<?xml version="1.0" encoding="utf-8"?>
<COLLADA xmlns="http://www.collada.org/2005/11/COLLADASchema" version="1.4.1" xmlns:xsi="http://www.w3.org/2001/XMLSchema-instance">
  <asset>
    <contributor>
      <author>Blender User</author>
      <authoring_tool>Blender 4.4.3 commit date:2025-04-29, commit time:14:09, hash:802179c51ccc</authoring_tool>
    </contributor>
    <created>2025-11-20T14:01:03</created>
    <modified>2025-11-20T14:01:03</modified>
    <unit name="meter" meter="1"/>
    <up_axis>Z_UP</up_axis>
  </asset>
  <library_effects>
    <effect id="generic_car_parametrized-effect">
      <profile_COMMON>
        <technique sid="common">
          <lambert>
            <emission>
              <color sid="emission">0 0 0 1</color>
            </emission>
            <diffuse>
              <color sid="diffuse">0.588294 0.001998425 0.01040506 1</color>
            </diffuse>
            <reflectivity>
              <float sid="specular">0.4145078</float>
            </reflectivity>
            <index_of_refraction>
              <float sid="ior">1.5</float>
            </index_of_refraction>
          </lambert>
        </technique>
      </profile_COMMON>
    </effect>
  </library_effects>
  <library_images/>
  <library_materials>
    <material id="generic_car_parametrized-material" name="generic_car_parametrized">
      <instance_effect url="#generic_car_parametrized-effect"/>
    </material>
  </library_materials>
  <library_geometries>
    <geometry id="generic_car_01a_005-mesh" name="generic_car_01a.005">
      <mesh>
        <source id="generic_car_01a_005-mesh-positions">
          <float_array id="generic_car_01a_005-mesh-positions-array" count="249">0 89.12585 -0.01616096 0 -87.40162 -0.01615142 -79.37202 -87.40162 -0.01616096 -79.37202 89.12585 -0.01616096 -85.83339 92.27477 32.91927 -85.83339 -93.40946 32.91927 -59.56878 -30.24497 110.0016 -72.17827 -54.95781 87.9282 -79.54555 -75.87638 65.85471 0 -47.17552 110.0016 -35.57379 -41.58662 110.0016 0 -71.88838 87.9282 -41.87854 -66.29947 87.9282 0 -92.80694 65.85471 -45.56218 -87.21803 65.85471 -45.64046 89.12585 -0.01616096 -45.64046 -87.40162 -0.01616096 -79.03491 -119.0871 63.61523 -85.17014 -106.2483 48.26725 -45.64046 -93.40946 32.91927 -45.64046 92.27477 32.91927 -45.64046 -106.2483 48.26725 -70.51023 -121.1783 63.65079 0 -125.177 -0.01615142 -41.79817 -124.3769 63.93135 -66.91421 -124.5172 47.46414 -45.64046 -124.7207 32.91927 -45.64046 -124.6086 42.8319 -45.64046 -124.8864 18.28041 -45.64046 -124.5562 47.46242 -45.64046 -125.0934 -0.01616096 -23.22448 -125.1344 -0.01616096 -84.77365 -124.4845 47.4656 -57.5783 -124.3506 63.70475 -78.91744 -124.3183 63.10009 -45.63481 -124.3702 63.90705 0 -124.451 64.15018 0 125.0073 113 0 125.9219 -0.01615142 -79.63381 125.152 65.3926 -53.35829 125.0709 113 -23.50739 125.9219 -0.01615142 -45.64046 125.9219 -0.01615142 -45.64046 125.7242 16.78748 -45.72475 125.3924 44.99303 -85.46065 125.3924 44.99303 79.37202 -87.40162 -0.01616096 79.37202 89.12585 -0.01616096 85.83339 92.27477 32.91927 85.83339 -93.40946 32.91927 59.56878 -30.24497 110.0016 72.17827 -54.95781 87.9282 79.54555 -75.87638 65.85471 35.57379 -41.58662 110.0016 41.87854 -66.29947 87.9282 45.56218 -87.21803 65.85471 45.64046 89.12585 -0.01616096 45.64046 -87.40162 -0.01616096 79.03491 -119.0871 63.61523 85.17014 -106.2483 48.26725 45.64046 -93.40946 32.91927 45.64046 92.27477 32.91927 45.64046 -106.2483 48.26725 70.51023 -121.1783 63.65079 41.79817 -124.3769 63.93135 66.91421 -124.5172 47.46414 45.64046 -124.7207 32.91927 45.64046 -124.6086 42.8319 45.64046 -124.8864 18.28041 45.64046 -124.5562 47.46242 45.64046 -125.0934 -0.01616096 23.22448 -125.1344 -0.01616096 84.77365 -124.4845 47.4656 57.5783 -124.3506 63.70475 78.91744 -124.3183 63.10009 45.63481 -124.3702 63.90705 79.63381 125.152 65.3926 53.35829 125.0709 113 23.50739 125.9219 -0.01615142 45.64046 125.9219 -0.01615142 45.64046 125.7242 16.78748 45.72475 125.3924 44.99303 85.46065 125.3924 44.99303</float_array>
          <technique_common>
            <accessor source="#generic_car_01a_005-mesh-positions-array" count="83" stride="3">
              <param name="X" type="float"/>
              <param name="Y" type="float"/>
              <param name="Z" type="float"/>
            </accessor>
          </technique_common>
        </source>
        <source id="generic_car_01a_005-mesh-normals">
          <float_array id="generic_car_01a_005-mesh-normals-array" count="312">-0.9363052 -0.04121249 0.348761 -0.937313 -0.0394299 0.3462509 -0.9348219 -0.05553346 0.350748 -0.9812945 0 -0.1925133 -0.9812945 0 -0.1925133 -0.9990652 0.03493613 0.02546441 -0.9977545 -0.009402692 0.06631481 -0.8756785 0.02437746 0.4822788 -0.9307556 0.007867038 0.3655576 -0.8802994 0.02605485 0.4737027 0 -0.695717 0.718316 0 -0.6661559 0.7458127 -0.1913669 -0.6293864 0.753161 -0.17186 -0.665192 0.726625 -0.006192564 -0.05263775 0.9985945 0 -0.05378764 0.9985525 0 -0.05312931 0.9985877 2.0898e-7 0 -1 0 0 -1 0 -0.7228719 0.6909822 -0.162377 -0.6979322 0.6975131 -0.2517417 -0.5921651 0.7654846 -0.228923 -0.6321318 0.7402727 -0.02267289 -0.07547283 0.9968901 -0.02833646 -0.09859067 0.9947246 -0.01786631 -0.05585306 0.9982792 -0.2233389 -0.6691983 0.7087266 -0.9613504 0.0166819 0.2748219 -0.9734274 0.01121431 0.2287214 -0.0125156 -0.05220794 0.9985579 -0.01733922 -0.05195403 0.998499 -0.02183359 -0.07158577 0.9971955 0 2.59178e-7 -1 0 -0.9837669 -0.1794515 0 -0.983767 -0.1794511 0 -0.9053837 -0.4245944 0 -0.89924 -0.4374558 0 0.9954606 -0.09517532 0 0.9954607 -0.09517455 0 -0.7670193 -0.6416241 0 -0.767019 -0.6416245 -1.12338e-6 0.04391694 -0.9990352 -1 0 0 0 0.3425193 -0.9395109 0 0.3425194 -0.9395108 0 0.3425193 -0.9395108 0 0.3425192 -0.9395108 0 0.04391795 -0.9990352 -1 -2.17081e-7 0 -0.01171147 -0.05232536 0.9985615 2.08911e-7 1.24134e-7 -1 0 2.59178e-7 -1 -0.9356393 -0.0114488 0.3527718 -1 2.11841e-7 0 -0.9999945 -0.001449406 -0.003005564 -0.9580377 -0.08860135 0.2726055 0 0.04391807 -0.9990352 4.1073e-7 0 -1 0 2.59179e-7 -1 -0.004662096 -0.01802426 0.9998267 0 -0.01741135 0.9998484 0 -0.01791322 0.9998396 -8.32982e-4 -0.01807731 0.9998363 -0.008953809 -0.01894289 0.9997805 0.9363051 -0.04121249 0.3487609 0.9348219 -0.05553346 0.350748 0.937313 -0.0394299 0.3462509 0.9812945 0 -0.1925133 0.9990652 0.03493613 0.02546441 0.9812945 0 -0.1925133 0.9977545 -0.009402692 0.06631481 0.8756785 0.02437746 0.4822788 0.8802994 0.02605485 0.4737027 0.9307555 0.007867038 0.3655576 0.1913669 -0.6293864 0.753161 0.17186 -0.665192 0.726625 0.006192564 -0.05263775 0.9985945 -2.0898e-7 0 -1 0.162377 -0.6979321 0.6975131 0.2517417 -0.5921651 0.7654846 0.228923 -0.6321318 0.7402727 0.02267289 -0.07547283 0.9968901 0.01786631 -0.05585306 0.9982792 0.02833646 -0.09859067 0.9947246 0.2233389 -0.6691983 0.7087266 0.9734274 0.01121431 0.2287214 0.9613504 0.0166819 0.2748219 0.0125156 -0.05220794 0.9985579 0.02183365 -0.07158577 0.9971955 0.01733922 -0.05195403 0.998499 1.12338e-6 0.04391694 -0.9990352 1 0 0 1 -2.17081e-7 0 0.01171147 -0.05232536 0.9985615 -2.08911e-7 1.24134e-7 -1 0.9356393 -0.0114488 0.3527718 1 2.11841e-7 0 0.9999945 -0.001449406 -0.003005564 0.9580377 -0.08860135 0.2726055 0 0.04391807 -0.9990352 -4.1073e-7 0 -1 0.004662096 -0.01802426 0.9998267 8.32982e-4 -0.01807731 0.9998363 0.008953809 -0.01894289 0.9997805</float_array>
          <technique_common>
            <accessor source="#generic_car_01a_005-mesh-normals-array" count="104" stride="3">
              <param name="X" type="float"/>
              <param name="Y" type="float"/>
              <param name="Z" type="float"/>
            </accessor>
          </technique_common>
        </source>
        <source id="generic_car_01a_005-mesh-map-0">
          <float_array id="generic_car_01a_005-mesh-map-0-array" count="744">0.375 0.4911561 0.3173749 0.375 0.3564852 0.5 0.75 0 0.375 0 0.375 0.25 0.375 0.25 0.75 0.25 0.75 0 0.75 0.5732275 0.5 0.75 0.5 1 0.5 0.75 0.5 1 0.5 1 0.5 1 0.5 0.75 0.5 0.75 0.3855234 0.5 0.3968152 0.5 0.5 0.5 0.75 0 0.375 0 0.5 0 0.5 0 0.75 0 0.75 0 0.5 0.5 0.5 0.75 0.5 0.75 0.5 0.75 0.5 0.5 0.5 0.5 0.5 0.75 0.5 1 0.5 1 0.5 1 0.5 0.75 0.5 0.75 0.375 0.5 0.3564852 0.5 0.375 0.5 0.75 0 0.75 0 0.5 0 0.5 0 0.375 0 0.75 0 0.5 0.5 0.5 0.75 0.5 0.75 0.5 0.75 0.5 0.5 0.5 0.5 0.375 0.25 0.375 0.375 0.5 0.5 0.5 0.5 0.5 0.5 0.375 0.5 0.375 0.375 0.375 0.5 0.5 0.5 0.3772143 0 0.377348 0 0.5 0 0.8143821 0.7424721 0.75 0.871236 0.75 1 0.375 0 0.375 0 0.375 0.25 0.375 0.25 0.375 0.25 0.375 0 0.75 0.25 0.75 0.25 0.75 0 0.75 0 0.75 0 0.75 0.25 0.375 0.25 0.375 0.25 0.375 0.375 0.375 0.375 0.375 0.375 0.375 0.25 0.3172715 0.3750001 0.3173749 0.375 0.375 0.375 0.3194411 0.1388821 0.3144913 0.25 0.375 0.25 0.75 0 0.8112251 0.3724501 0.8143821 0.257528 0.3307324 0.3307324 0.3171482 0.375 0.375 0.375 0.8125 0.25 0.8125 0.25 0.75 0.25 0.75 0.25 0.75 0.25 0.8125 0.25 0.375 0.375 0.3144913 0.25 0.3307324 0.3307324 0.375 0.375 0.3172715 0.3750001 0.375 0.375 0.5 0 0.3194411 0.1388821 0.375 0.25 0.375 0.5 0.3840763 0.5 0.5 0.5 0.5 0.5 0.3855234 0.5 0.5 0.5 0.375 0 0.3772143 0 0.5 0 0 0 0.8143821 0.7424721 0.75 1 0.75 0.5732275 0.7493438 0.5006563 0.5 0.75 0.5 0.5 0.7491911 0.4994607 0.375 0.25 0.75 0.25 0.375 0.25 0.7491911 0.4994607 0.7494127 0.5 0.5 0.5 0.5 0.75 0.375 0.5 0.375 0.5 0.3564852 0.5 0.75 0 0.75 0.25 0.8112251 0.3724501 0.8112251 0.3724501 0.75 0.25 0.8125 0.25 0.8125 0.25 0.75 0.25 0.75 0.4964922 0.375 0.375 0.375 0.25 0.3144913 0.25 0.375 0.375 0.3171482 0.375 0.3172715 0.3750001 0.5 0 0.377348 0 0.3194411 0.1388821 0.375 0.4911561 0.375 0.375 0.3173749 0.375 0.5 0.5 0.375 0.5 0.375 0.5 0.375 0.5 0.375 0.5 0.5 0.5 0.5 0.5 0.3840763 0.5 0.3855234 0.5 0.375 0 0.313538 0 0.3772143 0 0 0 0.4506739 0.257528 0.8143821 0.7424721 0.5 1 0.5 1 0 0 0.75 0.5732275 0.5 1 0 0 0.75 0.5732275 0.5 1 0.5 1 0.375 0.4911561 0.3564852 0.5 0.3173749 0.375 0.75 0 0.375 0.25 0.375 0 0.375 0.25 0.75 0 0.75 0.25 0.75 0.5732275 0.5 1 0.5 0.75 0.5 0.75 0.5 1 0.5 1 0.5 1 0.5 0.75 0.5 0.75 0.3855234 0.5 0.5 0.5 0.3968152 0.5 0.75 0 0.5 0 0.375 0 0.5 0 0.75 0 0.75 0 0.5 0.5 0.5 0.75 0.5 0.75 0.5 0.75 0.5 0.5 0.5 0.5 0.5 0.75 0.5 1 0.5 1 0.5 1 0.5 0.75 0.5 0.75 0.375 0.5 0.375 0.5 0.3564852 0.5 0.75 0 0.5 0 0.75 0 0.5 0 0.75 0 0.375 0 0.5 0.5 0.5 0.75 0.5 0.75 0.5 0.75 0.5 0.5 0.5 0.5 0.375 0.25 0.5 0.5 0.375 0.375 0.5 0.5 0.375 0.5 0.5 0.5 0.375 0.375 0.5 0.5 0.375 0.5 0.3772143 0 0.5 0 0.377348 0 0.8143821 0.7424721 0.75 1 0.75 0.871236 0.375 0 0.375 0.25 0.375 0 0.375 0.25 0.375 0 0.375 0.25 0.75 0.25 0.75 0 0.75 0.25 0.75 0 0.75 0.25 0.75 0 0.375 0.25 0.375 0.375 0.375 0.25 0.375 0.375 0.375 0.25 0.375 0.375 0.3172715 0.3750001 0.375 0.375 0.3173749 0.375 0.3194411 0.1388821 0.375 0.25 0.3144913 0.25 0.75 0 0.8143821 0.257528 0.8112251 0.3724501 0.3307324 0.3307324 0.375 0.375 0.3171482 0.375 0.8125 0.25 0.75 0.25 0.8125 0.25 0.75 0.25 0.8125 0.25 0.75 0.25 0.375 0.375 0.3307324 0.3307324 0.3144913 0.25 0.375 0.375 0.375 0.375 0.3172715 0.3750001 0.5 0 0.375 0.25 0.3194411 0.1388821 0.375 0.5 0.5 0.5 0.3840763 0.5 0.5 0.5 0.5 0.5 0.3855234 0.5 0.375 0 0.5 0 0.3772143 0 0 0 0.75 1 0.8143821 0.7424721 0.75 0.5732275 0.5 0.75 0.7493438 0.5006563 0.5 0.5 0.375 0.25 0.7491911 0.4994607 0.75 0.25 0.7491911 0.4994607 0.375 0.25 0.7494127 0.5 0.5 0.75 0.5 0.5 0.375 0.5 0.3564852 0.5 0.375 0.5 0.75 0 0.8112251 0.3724501 0.75 0.25 0.8112251 0.3724501 0.8125 0.25 0.75 0.25 0.8125 0.25 0.75 0.4964922 0.75 0.25 0.375 0.375 0.3144913 0.25 0.375 0.25 0.375 0.375 0.3172715 0.3750001 0.3171482 0.375 0.5 0 0.3194411 0.1388821 0.377348 0 0.375 0.4911561 0.3173749 0.375 0.375 0.375 0.5 0.5 0.375 0.5 0.375 0.5 0.375 0.5 0.5 0.5 0.375 0.5 0.5 0.5 0.3855234 0.5 0.3840763 0.5 0.375 0 0.3772143 0 0.313538 0 0 0 0.8143821 0.7424721 0.4506739 0.257528 0.5 1 0 0 0.5 1 0.75 0.5732275 0 0 0.5 1 0.75 0.5732275 0.5 1 0.5 1</float_array>
          <technique_common>
            <accessor source="#generic_car_01a_005-mesh-map-0-array" count="372" stride="2">
              <param name="S" type="float"/>
              <param name="T" type="float"/>
            </accessor>
          </technique_common>
        </source>
        <vertices id="generic_car_01a_005-mesh-vertices">
          <input semantic="POSITION" source="#generic_car_01a_005-mesh-positions"/>
        </vertices>
        <triangles material="generic_car_parametrized-material" count="124">
          <input semantic="VERTEX" source="#generic_car_01a_005-mesh-vertices" offset="0"/>
          <input semantic="NORMAL" source="#generic_car_01a_005-mesh-normals" offset="1"/>
          <input semantic="TEXCOORD" source="#generic_car_01a_005-mesh-map-0" offset="2" set="0"/>
          <p>17 0 0 32 1 1 34 2 2 3 3 3 2 4 4 5 5 5 5 5 6 4 6 7 3 3 8 40 7 9 7 8 10 6 9 11 11 10 12 9 11 13 10 12 14 10 12 15 12 13 16 11 10 17 24 14 18 36 15 19 13 16 20 0 17 21 1 17 22 16 17 23 16 18 24 15 18 25 0 18 26 13 19 27 11 10 28 12 13 29 12 13 30 14 20 31 13 19 32 12 13 33 10 12 34 6 21 35 6 21 36 7 22 37 12 13 38 22 23 39 34 24 40 33 25 41 3 18 42 15 18 43 16 18 44 16 18 45 2 18 46 3 18 47 14 20 48 12 13 49 7 22 50 7 22 51 8 26 52 14 20 53 5 5 54 18 27 55 8 28 56 14 29 57 8 30 58 17 31 59 18 27 60 17 0 61 8 28 62 31 18 63 30 18 64 16 18 65 41 32 66 38 32 67 0 32 68 2 33 69 16 34 70 19 35 71 19 35 72 5 36 73 2 33 74 4 37 75 20 37 76 15 37 77 15 38 78 3 38 79 4 38 80 5 36 81 19 35 82 21 39 83 21 39 84 18 40 85 5 36 86 25 41 87 32 41 88 18 41 89 28 42 90 26 42 91 19 42 92 15 42 93 43 42 94 42 42 95 27 42 96 29 42 97 21 42 98 45 43 99 44 44 100 20 45 101 20 45 102 4 46 103 45 43 104 21 42 105 26 42 106 27 42 107 21 47 108 25 47 109 18 47 110 16 48 111 28 48 112 19 48 113 33 25 114 35 49 115 14 29 116 14 29 117 24 14 118 13 16 119 1 50 120 31 50 121 16 50 122 15 51 123 41 51 124 0 51 125 40 7 126 39 52 127 7 8 128 8 28 129 39 52 130 5 5 131 4 6 132 5 5 133 39 52 134 39 52 135 8 28 136 7 8 137 22 23 138 17 31 139 34 24 140 15 53 141 20 53 142 43 53 143 43 54 144 20 54 145 44 54 146 45 55 147 4 6 148 39 52 149 21 42 150 19 42 151 26 42 152 21 56 153 29 56 154 25 56 155 16 42 156 30 42 157 28 42 158 17 0 159 18 27 160 32 1 161 14 29 162 17 31 163 22 23 164 22 23 165 33 25 166 14 29 167 14 29 168 35 49 169 24 14 170 1 57 171 23 57 172 31 57 173 15 58 174 42 58 175 41 58 176 10 59 177 9 60 178 37 61 179 40 62 180 10 59 181 37 61 182 40 62 183 6 63 184 10 59 185 58 64 186 74 65 187 72 66 188 47 67 189 49 68 190 46 69 191 49 68 192 47 67 193 48 70 194 77 71 195 50 72 196 51 73 197 11 10 198 53 74 199 9 11 200 53 74 201 11 10 202 54 75 203 64 76 204 13 16 205 36 15 206 0 77 207 57 77 208 1 77 209 57 18 210 0 18 211 56 18 212 13 19 213 54 75 214 11 10 215 54 75 216 13 19 217 55 78 218 54 75 219 50 79 220 53 74 221 50 79 222 54 75 223 51 80 224 63 81 225 73 82 226 74 83 227 47 18 228 57 18 229 56 18 230 57 18 231 47 18 232 46 18 233 55 78 234 51 80 235 54 75 236 51 80 237 55 78 238 52 84 239 49 68 240 52 85 241 59 86 242 55 87 243 58 88 244 52 89 245 59 86 246 52 85 247 58 64 248 71 18 249 57 18 250 70 18 251 78 32 252 0 32 253 38 32 254 46 33 255 60 35 256 57 34 257 60 35 258 46 33 259 49 36 260 48 37 261 56 37 262 61 37 263 56 38 264 48 38 265 47 38 266 49 36 267 62 39 268 60 35 269 62 39 270 49 36 271 59 40 272 65 90 273 59 90 274 72 90 275 68 91 276 60 91 277 66 91 278 56 91 279 79 91 280 80 91 281 67 91 282 62 91 283 69 91 284 82 43 285 61 45 286 81 44 287 61 45 288 82 43 289 48 46 290 62 91 291 67 91 292 66 91 293 62 47 294 59 47 295 65 47 296 57 92 297 60 92 298 68 92 299 73 82 300 55 87 301 75 93 302 55 87 303 13 16 304 64 76 305 1 94 306 57 94 307 71 94 308 56 51 309 0 51 310 78 51 311 77 71 312 51 73 313 76 95 314 52 85 315 49 68 316 76 95 317 48 70 318 76 95 319 49 68 320 76 95 321 51 73 322 52 85 323 63 81 324 74 83 325 58 88 326 56 96 327 80 96 328 61 96 329 80 97 330 81 97 331 61 97 332 82 98 333 76 95 334 48 70 335 62 91 336 66 91 337 60 91 338 62 99 339 65 99 340 69 99 341 57 91 342 68 91 343 70 91 344 58 64 345 72 66 346 59 86 347 55 87 348 63 81 349 58 88 350 63 81 351 55 87 352 73 82 353 55 87 354 64 76 355 75 93 356 1 100 357 71 100 358 23 100 359 56 58 360 78 58 361 79 58 362 53 101 363 37 61 364 9 60 365 77 102 366 37 61 367 53 101 368 77 102 369 53 101 370 50 103 371</p>
        </triangles>
      </mesh>
    </geometry>
  </library_geometries>
  <library_visual_scenes>
    <visual_scene id="Scene" name="Scene">
      <node id="template_car_wagon_middle" name="template_car_wagon_middle" type="NODE">
        <matrix sid="transform">0.01 0 0 0 0 0.01 0 1.25 0 0 0.01 0 0 0 0 1</matrix>
        <instance_geometry url="#generic_car_01a_005-mesh" name="template_car_wagon_middle">
          <bind_material>
            <technique_common>
              <instance_material symbol="generic_car_parametrized-material" target="#generic_car_parametrized-material">
                <bind_vertex_input semantic="generic_car_01a_004-mesh-map-0" input_semantic="TEXCOORD" input_set="0"/>
              </instance_material>
            </technique_common>
          </bind_material>
        </instance_geometry>
      </node>
    </visual_scene>
  </library_visual_scenes>
  <scene>
    <instance_visual_scene url="#Scene"/>
  </scene>
</COLLADA>