<?xml version="1.0" encoding="utf-8"?>
<COLLADA xmlns="http://www.collada.org/2005/11/COLLADASchema" version="1.4.1" xmlns:xsi="http://www.w3.org/2001/XMLSchema-instance">
  <asset>
    <contributor>
      <author>Blender User</author>
      <authoring_tool>Blender 4.4.3 commit date:2025-04-29, commit time:14:09, hash:802179c51ccc</authoring_tool>
    </contributor>
    <created>2025-11-20T14:01:10</created>
    <modified>2025-11-20T14:01:10</modified>
    <unit name="meter" meter="1"/>
    <up_axis>Z_UP</up_axis>
  </asset>
  <library_effects>
    <effect id="generic_car_parametrized-effect">
      <profile_COMMON>
        <technique sid="common">
          <lambert>
            <emission>
              <color sid="emission">0 0 0 1</color>
            </emission>
            <diffuse>
              <color sid="diffuse">0.588294 0.001998425 0.01040506 1</color>
            </diffuse>
            <reflectivity>
              <float sid="specular">0.4145078</float>
            </reflectivity>
            <index_of_refraction>
              <float sid="ior">1.5</float>
            </index_of_refraction>
          </lambert>
        </technique>
      </profile_COMMON>
    </effect>
  </library_effects>
  <library_images/>
  <library_materials>
    <material id="generic_car_parametrized-material" name="generic_car_parametrized">
      <instance_effect url="#generic_car_parametrized-effect"/>
    </material>
  </library_materials>
  <library_geometries>
    <geometry id="generic_car_01a_006-mesh" name="generic_car_01a.006">
      <mesh>
        <source id="generic_car_01a_006-mesh-positions">
          <float_array id="generic_car_01a_006-mesh-positions-array" count="159">0 194.9188 -0.01616096 0 160.5668 -0.01615142 -81.18331 190.2034 32.91927 -77.44395 181.8228 65.85471 -62.22993 148.4857 100.5717 -85.08949 158.3689 32.91927 0 195.4981 32.91927 -47.33335 193.8087 32.91927 -45.64046 193.2293 -0.01616096 0 187.1176 65.85471 -45.56218 185.4281 65.85471 -77.60053 189.624 -0.01616096 -78.65132 160.5668 -0.01615142 -45.64046 160.5668 -0.01615142 -45.64046 158.3689 32.91927 -85.43879 125.3913 45.08662 -45.72475 125.3924 44.99303 -45.64046 125.7242 16.78748 -45.64046 125.9219 -0.01615142 -23.50739 125.9219 -0.01615142 -53.35829 125.0709 113 0 125.9219 -0.01615142 0 125.0073 112.9237 -79.63381 125.152 65.3926 0 139.0721 112.9503 0 176.3192 89.20153 0 159.3941 103.7569 -50.94655 136.9257 113 -45.56217 174.4951 89.24581 -46.34151 157.4262 103.9369 -77.8254 153.9123 64.97376 81.18331 190.2034 32.91927 77.44395 181.8228 65.85471 62.22993 148.4857 100.5717 85.08949 158.3689 32.91927 47.33335 193.8087 32.91927 45.64046 193.2293 -0.01616096 45.56218 185.4281 65.85471 77.60053 189.624 -0.01616096 78.65132 160.5668 -0.01615142 45.64046 160.5668 -0.01615142 45.64046 158.3689 32.91927 85.43879 125.3913 45.08662 45.72475 125.3924 44.99303 45.64046 125.7242 16.78748 45.64046 125.9219 -0.01615142 23.50739 125.9219 -0.01615142 53.35829 125.0709 113 79.63381 125.152 65.3926 50.94655 136.9257 113 45.56217 174.4951 89.24581 46.34151 157.4262 103.9369 77.8254 153.9123 64.97376</float_array>
          <technique_common>
            <accessor source="#generic_car_01a_006-mesh-positions-array" count="53" stride="3">
              <param name="X" type="float"/>
              <param name="Y" type="float"/>
              <param name="Z" type="float"/>
            </accessor>
          </technique_common>
        </source>
        <source id="generic_car_01a_006-mesh-normals">
          <float_array id="generic_car_01a_006-mesh-normals-array" count="252">-0.9654014 0.04127037 0.2574818 -0.9925348 0.1217859 0.006565511 -0.9933989 0.08217734 0.08003413 -0.9462254 0.03896337 0.3211534 -0.8929801 -0.02727276 0.4492691 0 0.9933439 0.1151865 0 0.9998454 -0.01758879 -0.07296854 0.997115 -0.02091288 -0.07286763 0.9907089 0.1148316 -0.0712043 0.9658312 0.2491988 0 0.9691181 0.246597 -0.1089085 0.9937073 -0.02617073 -0.1051927 0.9876737 0.1159107 -0.1055833 0.9615799 0.2534096 0 -3.10291e-7 -1 0 -2.88896e-7 -1 0 -2.00326e-7 -1 0 -3.28206e-7 -1 -0.9855386 0.07717579 -0.1508561 -0.9812499 0.03548491 -0.1894453 0 -1.41649e-7 -1 0 -2.77618e-7 -1 0 0 -1 -0.001019954 -0.3448853 -0.9386443 -0.002201497 -0.3461275 -0.938185 -7.55375e-4 -0.7731496 -0.6342235 0 -0.9977807 -0.0665856 0 -0.9977807 -0.0665856 0 -0.8004721 -0.5993701 -0.9999995 5.98111e-4 -8.45925e-4 -0.9999977 -9.37577e-4 -0.001943945 -0.9999988 4.25097e-4 -0.001540601 -0.9999966 0.002620279 1.74854e-4 -1 0 0 -0.9639603 0.08050769 0.253573 -0.9335144 0.0400874 0.3562921 -0.8730865 -0.07509851 0.4817472 -0.2606614 0.7612561 0.5937549 -0.1782411 0.7559114 0.629943 -0.06787401 0.9041221 0.4218488 -0.3097369 0.2144799 0.926316 0 -0.001660227 0.9999986 0 0.2145961 0.9767029 -0.4605783 0.4800696 0.7465928 -0.2421144 0.04925543 0.9689967 -0.2275763 0.5460525 0.806248 0 0.5406025 0.8412783 0 0.7995804 0.6005591 0.9654015 0.04127037 0.2574818 0.9933989 0.08217734 0.08003413 0.9925348 0.1217859 0.006565511 0.9462254 0.03896337 0.3211534 0.8929801 -0.02727276 0.4492692 0.07296854 0.997115 -0.02091288 0.07286757 0.9907089 0.1148315 0.0712043 0.9658312 0.2491988 0.1089085 0.9937073 -0.02617073 0.1051927 0.9876737 0.1159107 0.1055833 0.9615799 0.2534096 0 -2.91978e-7 -1 0 -1.76585e-7 -1 0 -2.88896e-7 -1 0.8139632 0.06373989 -0.5774091 0.6576324 0.02378171 -0.7529636 0.001019954 -0.3448853 -0.9386443 7.55375e-4 -0.7731495 -0.6342234 0.002201497 -0.3461275 -0.938185 0 -0.8004721 -0.59937 0.9999995 5.98111e-4 -8.45925e-4 0.9999988 4.25097e-4 -0.001540601 0.9999977 -9.37577e-4 -0.001943945 0.9999966 0.002620279 1.74854e-4 1 0 0 0.9639603 0.08050769 0.253573 0.8730865 -0.07509851 0.4817472 0.9335144 0.0400874 0.3562921 0.2606614 0.7612561 0.5937549 0.1782411 0.7559114 0.629943 0.4605783 0.4800696 0.7465928 0.3097369 0.21448 0.926316 0.2421144 0.04925543 0.9689967 0.2275763 0.5460526 0.8062478 0.06787401 0.9041222 0.4218488 0 0.9076206 0.4197916</float_array>
          <technique_common>
            <accessor source="#generic_car_01a_006-mesh-normals-array" count="84" stride="3">
              <param name="X" type="float"/>
              <param name="Y" type="float"/>
              <param name="Z" type="float"/>
            </accessor>
          </technique_common>
        </source>
        <source id="generic_car_01a_006-mesh-map-0">
          <float_array id="generic_car_01a_006-mesh-map-0-array" count="528">1 0.5 1 0.25 0.8750001 0.25 0.8750001 0.3644571 0.8750001 0.5 1 0.5 1 0.25 1 0 1 0 1 0 1 0.25 1 0.25 1 0.25 1 0.25 1 0.5 1 0.5 1 0.5 1 0.25 1 0.25 1 0 1 0 1 0 1 0.25 1 0.25 1 0.5 1 0.5 1 0.25 1 0.25 1 0.25 1 0.5 1 0 1 0 0.8750001 0 0.8750001 0 0.8750001 0 1 0 1 0 0.8750001 0 0.8750001 0.25 0.8750001 0.25 1 0.25 1 0 0.8750001 0 0.8750001 0 1 0 1 0 1 0 0.8750001 0 0.8143821 0.7424721 0.4506739 0.257528 0.8750001 0.5 0.8126335 0.25 0.8126335 0.25 0.8750001 0.25 0.8750001 0 0.8750001 0 0.8750001 0.25 0.8750001 0.25 0.8750001 0.25 0.8750001 0 0.8750001 0.5 0.8112251 0.3724501 0.8126266 0.2505063 0.8126266 0.2505063 0.8750001 0.25 0.8750001 0.5 0.8750001 0.25 0.8126335 0.25 0.8750001 0.25 0.8750001 0.5 0.8143821 0.257528 0.8112251 0.3724501 0.75 0.75 0.8143821 0.7424721 0.8750001 0.5 0.8750001 0.3644571 0.8126335 0.25 0 0 0.75 0.75 0.75 0.871236 0.8143821 0.7424721 0 0 0.8750001 0.5 0 0 1 0.5 0.9379814 0.5 1 0.5 0 0 0 0 0.305342 0.1744811 0 0 0.8750001 0.5 0 0 0.8750001 0.5 0.8750001 0.5 0.8749999 0.4999999 0.8750001 0.5 0.9379814 0.5 0.8749999 0.4999999 0.9379814 0.5 0.8750001 0.5 0.9380989 0.5 0 0 0.305342 0.1744811 0.871397 0.4979411 0.9380989 0.5 1 0.5 0.9379814 0.5 0.8750001 0.5 0.8750001 0.3644571 0 0 0.8750001 0.25 0.8750001 0.3644571 1 0.5 1 0.5 0.8750001 0.25 1 0.25 0.8750001 0.3644571 1 0.5 0.8750001 0.5 1 0.25 1 0 1 0 1 0 1 0.25 1 0.25 1 0.25 1 0.5 1 0.25 1 0.5 1 0.25 1 0.5 1 0.25 1 0 1 0 1 0 1 0.25 1 0.25 1 0.5 1 0.25 1 0.5 1 0.25 1 0.5 1 0.25 1 0 0.8750001 0 1 0 0.8750001 0 1 0 0.8750001 0 1 0 0.8750001 0.25 0.8750001 0 0.8750001 0.25 1 0 1 0.25 0.8750001 0 1 0 0.8750001 0 1 0 0.8750001 0 1 0 0.8143821 0.7424721 0.8750001 0.5 0.4506739 0.257528 0.8126335 0.25 0.8750001 0.25 0.8126335 0.25 0.8750001 0 0.8750001 0.25 0.8750001 0 0.8750001 0.25 0.8750001 0 0.8750001 0.25 0.8750001 0.5 0.8126266 0.2505063 0.8112251 0.3724501 0.8126266 0.2505063 0.8750001 0.5 0.8750001 0.25 0.8750001 0.25 0.8750001 0.25 0.8126335 0.25 0.8750001 0.5 0.8112251 0.3724501 0.8143821 0.257528 0.75 0.75 0.8750001 0.5 0.8143821 0.7424721 0.8750001 0.3644571 0.8126335 0.25 0.8750001 0.25 0.75 0.75 0.8143821 0.7424721 0.75 0.871236 0 0 0 0 0.8750001 0.5 1 0.5 0.9379814 0.5 0.8750001 0.5 0 0 0 0 0 0 0 0 0 0 0.8749999 0.4999999 0.8750001 0.5 0.8749999 0.4999999 0.8750001 0.5 0.8750001 0.5 0.8749999 0.4999999 0.9379814 0.5 0.8750001 0.5 0.9379814 0.5 0.9380989 0.5 0.305342 0.1744811 0 0 0.871397 0.4979411 0.9380989 0.5 1 0.5 1 0.5 0.8750001 0.5 0 0 0.8750001 0.3644571 0.8750001 0.25 1 0.5 0.8750001 0.3644571 0.8750001 0.3644571 0.8750001 0.25 0.8126335 0.25 1 0.5 0.8749999 0.4999999 0.9379814 0.5 0 0 0 0 0 0 0.9379814 0.5 0.8750001 0.5 0.8750001 0.5 0 0 0 0 0.305342 0.1744811 0.9380989 0.5 1 0.5 1 0.5 0.8750001 0.3644571 0 0 0.8126335 0.25 1 0.5 1 0.5 0.9379814 0.5 0 0 0.305342 0.1744811 0 0 0.8750001 0.5 0.8750001 0.5 0.9379814 0.5 0.305342 0.1744811 0 0 0 0 0.9380989 0.5 0.9379814 0.5 1 0.5</float_array>
          <technique_common>
            <accessor source="#generic_car_01a_006-mesh-map-0-array" count="264" stride="2">
              <param name="S" type="float"/>
              <param name="T" type="float"/>
            </accessor>
          </technique_common>
        </source>
        <vertices id="generic_car_01a_006-mesh-vertices">
          <input semantic="POSITION" source="#generic_car_01a_006-mesh-positions"/>
        </vertices>
        <triangles material="generic_car_parametrized-material" count="88">
          <input semantic="VERTEX" source="#generic_car_01a_006-mesh-vertices" offset="0"/>
          <input semantic="NORMAL" source="#generic_car_01a_006-mesh-normals" offset="1"/>
          <input semantic="TEXCOORD" source="#generic_car_01a_006-mesh-map-0" offset="2" set="0"/>
          <p>3 0 0 2 1 1 5 2 2 30 3 3 4 4 4 3 0 5 6 5 6 0 6 7 8 7 8 8 7 9 7 8 10 6 5 11 6 5 12 7 8 13 10 9 14 10 9 15 9 10 16 6 5 17 7 8 18 8 7 19 11 11 20 11 11 21 2 12 22 7 8 23 3 13 24 10 9 25 7 8 26 7 8 27 2 12 28 3 13 29 11 14 30 8 15 31 13 16 32 13 16 33 12 17 34 11 14 35 11 18 36 12 19 37 5 2 38 5 2 39 2 1 40 11 18 41 1 20 42 13 16 43 8 15 44 8 15 45 0 21 46 1 20 47 19 22 48 18 22 49 13 16 50 16 23 51 15 24 52 5 25 53 12 26 54 13 27 55 14 28 56 14 28 57 5 25 58 12 26 59 13 29 60 17 30 61 16 31 62 16 31 63 14 32 64 13 29 65 14 28 66 16 23 67 5 25 68 13 29 69 18 33 70 17 30 71 1 20 72 19 22 73 13 16 74 30 3 75 15 34 76 23 35 77 1 20 78 21 22 79 19 22 80 20 36 81 4 4 82 23 35 83 3 37 84 28 38 85 10 39 86 27 40 87 22 41 88 24 42 89 27 40 90 4 43 91 20 44 92 27 40 93 29 45 94 4 43 95 29 45 96 28 38 97 4 43 98 28 38 99 26 46 100 25 47 101 29 45 102 24 42 103 26 46 104 25 47 105 10 39 106 28 38 107 4 4 108 30 3 109 23 35 110 5 2 111 30 3 112 3 0 113 32 48 114 34 49 115 31 50 116 52 51 117 32 48 118 33 52 119 6 5 120 36 53 121 0 6 122 36 53 123 6 5 124 35 54 125 6 5 126 37 55 127 35 54 128 37 55 129 6 5 130 9 10 131 35 54 132 38 56 133 36 53 134 38 56 135 35 54 136 31 57 137 32 58 138 35 54 139 37 55 140 35 54 141 32 58 142 31 57 143 38 59 144 40 60 145 36 61 146 40 17 147 38 62 148 39 63 149 38 62 150 34 49 151 39 63 152 34 49 153 38 62 154 31 50 155 1 20 156 36 61 157 40 60 158 36 61 159 1 20 160 0 21 161 46 22 162 40 60 163 45 22 164 43 64 165 34 65 166 42 66 167 39 26 168 41 67 169 40 27 170 41 67 171 39 26 172 34 65 173 40 68 174 43 69 175 44 70 176 43 69 177 40 68 178 41 71 179 41 67 180 34 65 181 43 64 182 40 68 183 44 70 184 45 72 185 1 20 186 40 60 187 46 22 188 52 51 189 42 73 190 34 49 191 1 20 192 46 22 193 21 22 194 47 74 195 48 75 196 33 52 197 32 76 198 50 77 199 33 78 200 49 79 201 22 41 202 47 80 203 49 79 204 47 80 205 33 78 206 49 79 207 33 78 208 51 81 209 51 81 210 33 78 211 50 77 212 26 46 213 50 77 214 25 47 215 24 42 216 51 81 217 26 46 218 25 47 219 37 82 220 9 83 221 33 52 222 48 75 223 52 51 224 34 49 225 32 48 226 52 51 227 30 3 228 5 2 229 15 34 230 3 37 231 4 43 232 28 38 233 27 40 234 20 44 235 22 41 236 28 38 237 29 45 238 26 46 239 29 45 240 27 40 241 24 42 242 25 47 243 9 83 244 10 39 245 52 51 246 48 75 247 42 73 248 32 76 249 37 82 250 50 77 251 49 79 252 24 42 253 22 41 254 26 46 255 51 81 256 50 77 257 24 42 258 49 79 259 51 81 260 25 47 261 50 77 262 37 82 263</p>
        </triangles>
      </mesh>
    </geometry>
  </library_geometries>
  <library_visual_scenes>
    <visual_scene id="Scene" name="Scene">
      <node id="template_car_wagon_rear" name="template_car_wagon_rear" type="NODE">
        <matrix sid="transform">0.01 0 0 0 0 0.01 0 1.25 0 0 0.01 0 0 0 0 1</matrix>
        <instance_geometry url="#generic_car_01a_006-mesh" name="template_car_wagon_rear">
          <bind_material>
            <technique_common>
              <instance_material symbol="generic_car_parametrized-material" target="#generic_car_parametrized-material">
                <bind_vertex_input semantic="generic_car_01a_003-mesh-map-0" input_semantic="TEXCOORD" input_set="0"/>
              </instance_material>
            </technique_common>
          </bind_material>
        </instance_geometry>
      </node>
    </visual_scene>
  </library_visual_scenes>
  <scene>
    <instance_visual_scene url="#Scene"/>
  </scene>
</COLLADA>