<?xml version="1.0" encoding="utf-8"?>
<COLLADA xmlns="http://www.collada.org/2005/11/COLLADASchema" version="1.4.1" xmlns:xsi="http://www.w3.org/2001/XMLSchema-instance">
  <asset>
    <contributor>
      <author>Blender User</author>
      <authoring_tool>Blender 4.4.3 commit date:2025-04-29, commit time:14:09, hash:802179c51ccc</authoring_tool>
    </contributor>
    <created>2025-11-20T10:27:59</created>
    <modified>2025-11-20T10:27:59</modified>
    <unit name="meter" meter="1"/>
    <up_axis>Z_UP</up_axis>
  </asset>
  <library_effects>
    <effect id="generic_car_parametrized-effect">
      <profile_COMMON>
        <technique sid="common">
          <lambert>
            <emission>
              <color sid="emission">0 0 0 1</color>
            </emission>
            <diffuse>
              <color sid="diffuse">0.588294 0.001998425 0.01040506 1</color>
            </diffuse>
            <reflectivity>
              <float sid="specular">0.4145078</float>
            </reflectivity>
            <index_of_refraction>
              <float sid="ior">1.5</float>
            </index_of_refraction>
          </lambert>
        </technique>
      </profile_COMMON>
    </effect>
  </library_effects>
  <library_images/>
  <library_materials>
    <material id="generic_car_parametrized-material" name="generic_car_parametrized">
      <instance_effect url="#generic_car_parametrized-effect"/>
    </material>
  </library_materials>
  <library_geometries>
    <geometry id="generic_car_01a_001-mesh" name="generic_car_01a.001">
      <mesh>
        <source id="generic_car_01a_001-mesh-positions">
          <float_array id="generic_car_01a_001-mesh-positions-array" count="153">0 194.9188 -0.01616096 0 165.312 68.60765 0 160.5668 -0.01615142 -81.18331 190.2034 32.91927 -75.83079 182.0052 65.85471 -77.8068 153.7311 64.89862 -85.08949 158.3689 32.91927 0 195.4981 32.91927 -47.33335 193.8087 32.91927 -45.64046 193.2293 -0.01616096 0 187.1176 65.85471 -45.56218 185.4281 65.85471 -45.56217 163.3925 68.60765 -77.60053 189.624 -0.01616096 -78.65132 160.5668 -0.01615142 -45.64046 160.5668 -0.01615142 -45.64046 158.3689 32.91927 -19.82597 125.024 79.50251 -85.43879 125.3913 45.08662 -45.72475 125.3924 44.99303 -45.64046 125.7242 16.78748 -45.64046 125.9219 -0.01615142 -23.50739 125.9219 -0.01615142 -53.35829 125.0709 79.50251 -44.0819 125.0426 79.50251 -66.21766 125.1523 72.607 0 125.9219 -0.01615142 0 125.0073 79.4262 -79.63381 125.152 65.3926 81.18331 190.2034 32.91927 75.83079 182.0052 65.85471 77.8068 153.7311 64.89862 85.08949 158.3689 32.91927 47.33335 193.8087 32.91927 45.64046 193.2293 -0.01616096 45.56218 185.4281 65.85471 45.56217 163.3925 68.60765 77.60053 189.624 -0.01616096 78.65132 160.5668 -0.01615142 45.64046 160.5668 -0.01615142 45.64046 158.3689 32.91927 19.82597 125.024 79.50251 85.43879 125.3913 45.08662 45.72475 125.3924 44.99303 45.64046 125.7242 16.78748 45.64046 125.9219 -0.01615142 23.50739 125.9219 -0.01615142 53.35829 125.0709 79.50251 44.0819 125.0426 79.50251 66.21766 125.1523 72.607 79.63381 125.152 65.3926</float_array>
          <technique_common>
            <accessor source="#generic_car_01a_001-mesh-positions-array" count="51" stride="3">
              <param name="X" type="float"/>
              <param name="Y" type="float"/>
              <param name="Z" type="float"/>
            </accessor>
          </technique_common>
        </source>
        <source id="generic_car_01a_001-mesh-normals">
          <float_array id="generic_car_01a_001-mesh-normals-array" count="264">-0.9736664 0.0888468 0.2099522 -0.9921472 0.1217386 0.02870208 -0.9915214 0.09160625 0.09216141 -0.9678531 0.07364553 0.2404928 0 0.9933439 0.1151865 0 0.9998454 -0.01758879 -0.07296854 0.997115 -0.02091288 -0.0728411 0.9907128 0.114815 -0.07120436 0.9658312 0.249199 0 0.9691181 0.246597 0 0.1931916 0.9811611 0 0.125255 0.9921246 -0.005058586 0.1243314 0.9922279 -0.005812704 0.2031372 0.9791331 -0.1089085 0.9937073 -0.02617073 -0.1052228 0.9879567 0.1134448 -0.1055983 0.9616186 0.2532562 0 -3.10291e-7 -1 0 -2.88896e-7 -1 0 -2.00326e-7 -1 0 -3.28206e-7 -1 -0.9855386 0.07717579 -0.1508561 -0.9812499 0.03548491 -0.1894453 0 -1.41649e-7 -1 0 -2.77618e-7 -1 -0.0717051 0.03084629 0.9969489 -0.2405295 0.1143727 0.9638799 -0.1114473 0.1525138 0.9819976 -0.01401734 0.1239558 0.9921888 0 0 -1 -0.001019954 -0.3448853 -0.9386443 -0.002201497 -0.3461275 -0.938185 -7.55375e-4 -0.7731496 -0.6342235 0 -0.9977807 -0.0665856 0 -0.9977807 -0.0665856 0 -0.8004721 -0.5993701 -0.9999995 5.98111e-4 -8.45925e-4 -0.9999977 -9.37577e-4 -0.001943945 -0.9999988 4.25097e-4 -0.001540601 -0.9999966 0.002620279 1.74854e-4 -1 0 0 -0.9636525 0.08169329 0.2543625 -0.472295 0.04589968 0.8802447 -0.4731177 0.04545336 0.879826 -0.9591761 0.06607204 0.2749835 -0.3347702 0.1852104 0.923919 8.332e-4 0.2733069 0.9619266 5.13388e-4 0.2732955 0.96193 -0.002150774 0.2659519 0.963984 0 0.2592423 0.9658123 0.9736664 0.0888468 0.2099522 0.9915214 0.09160625 0.09216141 0.9921472 0.1217386 0.02870208 0.9678531 0.07364553 0.2404928 0.07296854 0.997115 -0.02091288 0.07284104 0.9907128 0.114815 0.07120436 0.9658312 0.249199 0.005058586 0.1243314 0.9922279 0.005812704 0.2031372 0.9791331 0.1089085 0.9937073 -0.02617073 0.1052228 0.9879567 0.1134448 0.1055983 0.9616186 0.2532562 0 -3.10291e-7 -1 0 -2.00326e-7 -1 0 -2.88896e-7 -1 0.9855386 0.07717579 -0.1508561 0.9812499 0.03548491 -0.1894453 0.0717051 0.03084629 0.9969489 0.1114473 0.1525138 0.9819976 0.2405295 0.1143727 0.9638799 0.01401734 0.1239558 0.9921888 0.001019954 -0.3448853 -0.9386443 7.55375e-4 -0.7731495 -0.6342234 0.002201497 -0.3461275 -0.938185 0 -0.8004721 -0.59937 0.9999995 5.98111e-4 -8.45925e-4 0.9999988 4.25097e-4 -0.001540601 0.9999977 -9.37577e-4 -0.001943945 0.9999966 0.002620279 1.74854e-4 1 0 0 0.9636525 0.08169329 0.2543625 0.472295 0.04589968 0.8802447 0.4731177 0.04545336 0.879826 0.9591761 0.06607204 0.2749835 0.3347702 0.1852104 0.923919 -8.332e-4 0.2733069 0.9619266 -5.13388e-4 0.2732955 0.96193 0.002150774 0.265952 0.963984</float_array>
          <technique_common>
            <accessor source="#generic_car_01a_001-mesh-normals-array" count="88" stride="3">
              <param name="X" type="float"/>
              <param name="Y" type="float"/>
              <param name="Z" type="float"/>
            </accessor>
          </technique_common>
        </source>
        <source id="generic_car_01a_001-mesh-map-0">
          <float_array id="generic_car_01a_001-mesh-map-0-array" count="468">1 0.5 1 0.25 0.8750001 0.25 0.8750001 0.25 0.262655 0.1007059 1 0.5 1 0.25 1 0 1 0 1 0 1 0.25 1 0.25 1 0.25 1 0.25 1 0.5 1 0.5 1 0.5 1 0.25 0.8750001 0.5 1 0.5 1 0.5 1 0.5 0.8750001 0.5 0.8750001 0.5 1 0.25 1 0 1 0 1 0 1 0.25 1 0.25 1 0.5 1 0.5 1 0.25 1 0.25 1 0.25 1 0.5 1 0 1 0 0.8750001 0 0.8750001 0 0.8750001 0 1 0 1 0 0.8750001 0 0.8750001 0.25 0.8750001 0.25 1 0.25 1 0 0.8750001 0 0.8750001 0 1 0 1 0 1 0 0.8750001 0 1 0.5 0.262655 0.1007059 0.8750001 0.5 0.8750001 0.5 1 0.5 1 0.5 0.8143821 0.7424721 0.4506739 0.257528 0.8750001 0.5 0.8126335 0.25 0.8126335 0.25 0.8750001 0.25 0.8750001 0 0.8750001 0 0.8750001 0.25 0.8750001 0.25 0.8750001 0.25 0.8750001 0 0.8750001 0.5 0.8112251 0.3724501 0.8126266 0.2505063 0.8126266 0.2505063 0.8750001 0.25 0.8750001 0.5 0.8750001 0.25 0.8126335 0.25 0.8750001 0.25 0.8750001 0.5 0.8143821 0.257528 0.8112251 0.3724501 0.75 0.75 0.8143821 0.7424721 0.8750001 0.5 0.262655 0.1007059 0.8750001 0.25 0.8126335 0.25 0.75 0.75 0.75 0.871236 0.8143821 0.7424721 0.4876516 0.3251011 0.262655 0.1007059 0 0 0.8126335 0.25 0 0 0.262655 0.1007059 0.4876516 0.3251011 0 0 0.262655 0.1007059 0 0 0 0 0 0 0 0 0.262655 0.1007059 0 0 0 0 0 0 0 0 0 0 0 0 0.8750001 0.5 0 0 0 0 0.8750001 0.5 1 0.5 0.8750001 0.25 1 0.25 0.8750001 0.25 1 0.5 0.262655 0.1007059 1 0.25 1 0 1 0 1 0 1 0.25 1 0.25 1 0.25 1 0.5 1 0.25 1 0.5 1 0.25 1 0.5 0.8750001 0.5 1 0.5 1 0.5 1 0.5 0.8750001 0.5 0.8750001 0.5 1 0.25 1 0 1 0 1 0 1 0.25 1 0.25 1 0.5 1 0.25 1 0.5 1 0.25 1 0.5 1 0.25 1 0 0.8750001 0 1 0 0.8750001 0 1 0 0.8750001 0 1 0 0.8750001 0.25 0.8750001 0 0.8750001 0.25 1 0 1 0.25 0.8750001 0 1 0 0.8750001 0 1 0 0.8750001 0 1 0 1 0.5 0.8750001 0.5 0.262655 0.1007059 0.8750001 0.5 1 0.5 1 0.5 0.8143821 0.7424721 0.8750001 0.5 0.4506739 0.257528 0.8126335 0.25 0.8750001 0.25 0.8126335 0.25 0.8750001 0 0.8750001 0.25 0.8750001 0 0.8750001 0.25 0.8750001 0 0.8750001 0.25 0.8750001 0.5 0.8126266 0.2505063 0.8112251 0.3724501 0.8126266 0.2505063 0.8750001 0.5 0.8750001 0.25 0.8750001 0.25 0.8750001 0.25 0.8126335 0.25 0.8750001 0.5 0.8112251 0.3724501 0.8143821 0.257528 0.75 0.75 0.8750001 0.5 0.8143821 0.7424721 0.262655 0.1007059 0.8126335 0.25 0.8750001 0.25 0.75 0.75 0.8143821 0.7424721 0.75 0.871236 0.4876516 0.3251011 0 0 0.262655 0.1007059 0.8126335 0.25 0.262655 0.1007059 0 0 0.4876516 0.3251011 0.262655 0.1007059 0 0 0 0 0 0 0 0 0 0 0 0 0.262655 0.1007059 0 0 0 0 0 0 0 0 0.8750001 0.5 0 0 0 0 0.8750001 0.5 0 0</float_array>
          <technique_common>
            <accessor source="#generic_car_01a_001-mesh-map-0-array" count="234" stride="2">
              <param name="S" type="float"/>
              <param name="T" type="float"/>
            </accessor>
          </technique_common>
        </source>
        <vertices id="generic_car_01a_001-mesh-vertices">
          <input semantic="POSITION" source="#generic_car_01a_001-mesh-positions"/>
        </vertices>
        <triangles material="generic_car_parametrized-material" count="78">
          <input semantic="VERTEX" source="#generic_car_01a_001-mesh-vertices" offset="0"/>
          <input semantic="NORMAL" source="#generic_car_01a_001-mesh-normals" offset="1"/>
          <input semantic="TEXCOORD" source="#generic_car_01a_001-mesh-map-0" offset="2" set="0"/>
          <p>4 0 0 3 1 1 6 2 2 6 2 3 5 3 4 4 0 5 7 4 6 0 5 7 9 6 8 9 6 9 8 7 10 7 4 11 7 4 12 8 7 13 11 8 14 11 8 15 10 9 16 7 4 17 1 10 18 10 11 19 11 12 20 11 12 21 12 13 22 1 10 23 8 7 24 9 6 25 13 14 26 13 14 27 3 15 28 8 7 29 4 16 30 11 8 31 8 7 32 8 7 33 3 15 34 4 16 35 13 17 36 9 18 37 15 19 38 15 19 39 14 20 40 13 17 41 13 21 42 14 22 43 6 2 44 6 2 45 3 1 46 13 21 47 2 23 48 15 19 49 9 18 50 9 18 51 0 24 52 2 23 53 4 25 54 5 26 55 12 27 56 12 27 57 11 28 58 4 25 59 22 29 60 21 29 61 15 19 62 19 30 63 18 31 64 6 32 65 14 33 66 15 34 67 16 35 68 16 35 69 6 32 70 14 33 71 15 36 72 20 37 73 19 38 74 19 38 75 16 39 76 15 36 77 16 35 78 19 30 79 6 32 80 15 36 81 21 40 82 20 37 83 2 23 84 22 29 85 15 19 86 5 3 87 6 2 88 18 41 89 2 23 90 26 29 91 22 29 92 25 42 93 5 26 94 28 43 95 18 41 96 28 44 97 5 3 98 25 42 99 23 45 100 5 26 101 23 46 102 24 47 103 12 13 104 12 27 105 5 26 106 23 45 107 17 48 108 12 13 109 24 47 110 12 13 111 17 48 112 1 10 113 17 48 114 27 49 115 1 10 116 30 50 117 32 51 118 29 52 119 32 51 120 30 50 121 31 53 122 7 4 123 34 54 124 0 5 125 34 54 126 7 4 127 33 55 128 7 4 129 35 56 130 33 55 131 35 56 132 7 4 133 10 9 134 1 10 135 35 57 136 10 11 137 35 57 138 1 10 139 36 58 140 33 55 141 37 59 142 34 54 143 37 59 144 33 55 145 29 60 146 30 61 147 33 55 148 35 56 149 33 55 150 30 61 151 29 60 152 37 62 153 39 63 154 34 64 155 39 63 156 37 62 157 38 20 158 37 65 159 32 51 160 38 66 161 32 51 162 37 65 163 29 52 164 2 23 165 34 64 166 39 63 167 34 64 168 2 23 169 0 24 170 30 67 171 36 68 172 31 69 173 36 68 174 30 67 175 35 70 176 46 29 177 39 63 178 45 29 179 43 71 180 32 72 181 42 73 182 38 33 183 40 74 184 39 34 185 40 74 186 38 33 187 32 72 188 39 75 189 43 76 190 44 77 191 43 76 192 39 75 193 40 78 194 40 74 195 32 72 196 43 71 197 39 75 198 44 77 199 45 79 200 2 23 201 39 63 202 46 29 203 31 53 204 42 80 205 32 51 206 2 23 207 46 29 208 26 29 209 49 81 210 50 82 211 31 69 212 42 80 213 31 53 214 50 83 215 49 81 216 31 69 217 47 84 218 47 85 219 36 58 220 48 86 221 36 68 222 47 84 223 31 69 224 41 87 225 48 86 226 36 58 227 36 58 228 1 10 229 41 87 230 41 87 231 1 10 232 27 49 233</p>
        </triangles>
      </mesh>
    </geometry>
  </library_geometries>
  <library_visual_scenes>
    <visual_scene id="Scene" name="Scene">
      <node id="template_car_coupe_rear" name="template_car_coupe_rear" type="NODE">
        <matrix sid="transform">0.01 0 0 0 0 0.01 0 1.25 0 0 0.01 0 0 0 0 1</matrix>
        <instance_geometry url="#generic_car_01a_001-mesh" name="template_car_coupe_rear">
          <bind_material>
            <technique_common>
              <instance_material symbol="generic_car_parametrized-material" target="#generic_car_parametrized-material">
                <bind_vertex_input semantic="generic_car_01a_003-mesh-map-0" input_semantic="TEXCOORD" input_set="0"/>
              </instance_material>
            </technique_common>
          </bind_material>
        </instance_geometry>
      </node>
    </visual_scene>
  </library_visual_scenes>
  <scene>
    <instance_visual_scene url="#Scene"/>
  </scene>
</COLLADA>