<?xml version="1.0" encoding="utf-8"?>
<COLLADA xmlns="http://www.collada.org/2005/11/COLLADASchema" version="1.4.1" xmlns:xsi="http://www.w3.org/2001/XMLSchema-instance">
  <asset>
    <contributor>
      <author>Blender User</author>
      <authoring_tool>Blender 4.4.3 commit date:2025-04-29, commit time:14:09, hash:802179c51ccc</authoring_tool>
    </contributor>
    <created>2025-11-20T10:27:53</created>
    <modified>2025-11-20T10:27:53</modified>
    <unit name="meter" meter="1"/>
    <up_axis>Z_UP</up_axis>
  </asset>
  <library_effects>
    <effect id="generic_car_parametrized-effect">
      <profile_COMMON>
        <technique sid="common">
          <lambert>
            <emission>
              <color sid="emission">0 0 0 1</color>
            </emission>
            <diffuse>
              <color sid="diffuse">0.588294 0.001998425 0.01040506 1</color>
            </diffuse>
            <reflectivity>
              <float sid="specular">0.4145078</float>
            </reflectivity>
            <index_of_refraction>
              <float sid="ior">1.5</float>
            </index_of_refraction>
          </lambert>
        </technique>
      </profile_COMMON>
    </effect>
  </library_effects>
  <library_images/>
  <library_materials>
    <material id="generic_car_parametrized-material" name="generic_car_parametrized">
      <instance_effect url="#generic_car_parametrized-effect"/>
    </material>
  </library_materials>
  <library_geometries>
    <geometry id="generic_car_01a_003-mesh" name="generic_car_01a.003">
      <mesh>
        <source id="generic_car_01a_003-mesh-positions">
          <float_array id="generic_car_01a_003-mesh-positions-array" count="405">0 89.12585 -0.01616096 0 -87.40162 -0.01615142 -79.37202 -87.40162 -0.01616096 -79.37202 89.12585 -0.01616096 -85.83339 92.27477 32.91927 -85.83339 -93.40946 32.91927 -59.56878 -30.24497 110.0016 -72.17827 -54.95781 87.9282 -79.54555 -75.87638 65.85471 0 -47.17552 110.0016 -35.57379 -41.58662 110.0016 0 -71.88838 87.9282 -41.87854 -66.29947 87.9282 0 -92.80694 65.85471 -45.56218 -87.21803 65.85471 -45.64046 89.12585 -0.01616096 -45.64046 -87.40162 -0.01616096 -79.03491 -119.0871 63.61523 -85.17014 -106.2483 48.26725 -45.64046 -93.40946 32.91927 -45.64046 92.27477 32.91927 -45.64046 -106.2483 48.26725 -70.51023 -121.1783 63.65079 0 -125.177 -0.01615142 -41.79817 -124.3769 63.93135 -66.91421 -124.5172 47.46414 -45.64046 -124.7207 32.91927 -45.64046 -124.6086 42.8319 -45.64046 -124.8864 18.28041 -45.64046 -124.5562 47.46242 -45.64046 -125.0934 -0.01616096 -23.22448 -125.1344 -0.01616096 -84.77365 -124.4845 47.46559 -57.5783 -124.3506 63.70475 -78.91744 -124.3183 63.10009 -45.63481 -124.3702 63.90705 0 -124.451 64.15018 0 125.0073 79.50251 0 125.9219 -0.01615142 -79.63381 125.152 65.3926 -44.0819 125.0426 79.50251 -53.35829 125.0709 79.50251 -23.50739 125.9219 -0.01615142 -45.64046 125.9219 -0.01615142 -45.64046 125.7242 16.78748 -45.72475 125.3924 44.99303 -85.46065 125.3924 44.99303 -19.82597 125.024 79.50251 79.37202 -87.40162 -0.01616096 79.37202 89.12585 -0.01616096 85.83339 92.27477 32.91927 85.83339 -93.40946 32.91927 59.56878 -30.24497 110.0016 72.17827 -54.95781 87.9282 79.54555 -75.87638 65.85471 35.57379 -41.58662 110.0016 41.87854 -66.29947 87.9282 45.56218 -87.21803 65.85471 45.64046 89.12585 -0.01616096 45.64046 -87.40162 -0.01616096 79.03491 -119.0871 63.61523 85.17014 -106.2483 48.26725 45.64046 -93.40946 32.91927 45.64046 92.27477 32.91927 45.64046 -106.2483 48.26725 70.51023 -121.1783 63.65079 41.79817 -124.3769 63.93135 66.91421 -124.5172 47.46414 45.64046 -124.7207 32.91927 45.64046 -124.6086 42.8319 45.64046 -124.8864 18.28041 45.64046 -124.5562 47.46242 45.64046 -125.0934 -0.01616096 23.22448 -125.1344 -0.01616096 84.77365 -124.4845 47.46559 57.5783 -124.3506 63.70475 78.91744 -124.3183 63.10009 45.63481 -124.3702 63.90705 79.63381 125.152 65.3926 44.0819 125.0426 79.50251 53.35829 125.0709 79.50251 23.50739 125.9219 -0.01615142 45.64046 125.9219 -0.01615142 45.64046 125.7242 16.78748 45.72475 125.3924 44.99303 85.46065 125.3924 44.99303 19.82597 125.024 79.50251 0 0.9999924 -0.01615524 -82.60271 0.9999924 16.45155 -79.37202 0.9999924 -0.01615905 -85.83339 0.9999924 32.91927 -59.28439 26.99999 110 -22.82023 0.9999924 -0.01615905 -45.64046 0.9999924 -0.01615905 -62.50624 0.9999924 -0.01615905 -79.58968 0.9999924 65.62366 -82.7336 0.9999924 49.15594 0 26.99999 110 -27.69988 26.99999 110 -39.82784 26.99999 110 82.60271 0.9999924 16.45155 79.37202 0.9999924 -0.01615905 85.83339 0.9999924 32.91927 59.28439 26.99999 110 45.64046 0.9999924 -0.01615905 62.50624 0.9999924 -0.01615905 79.58968 0.9999924 65.62366 82.7336 0.9999924 49.15594 27.69988 26.99999 110 39.82784 26.99999 110 22.82023 0.9999924 -0.01615905 -79.37202 84.99999 -0.01615905 -59.1422 84.99999 93.15095 -79.61174 84.99999 65.50814 -81.1837 84.99999 57.27427 0 84.99999 93.15095 -23.76292 84.99999 93.15095 -41.95487 84.99999 93.15095 79.37202 84.99999 -0.01615905 59.1422 84.99999 93.15095 79.61174 84.99999 65.50814 81.1837 84.99999 57.27427 23.76292 84.99999 93.15095 41.95487 84.99999 93.15095 0 84.99999 -0.01615905 -80.98737 84.99999 8.217698 -85.83339 84.99999 32.91927 -11.41011 84.99999 -0.01615905 -45.64046 84.99999 -0.01615905 -70.93913 84.99999 -0.01615905 80.98737 84.99999 8.217698 85.83339 84.99999 32.91927 45.64046 84.99999 -0.01615905 70.93913 84.99999 -0.01615905 11.41011 84.99999 -0.01615905</float_array>
          <technique_common>
            <accessor source="#generic_car_01a_003-mesh-positions-array" count="135" stride="3">
              <param name="X" type="float"/>
              <param name="Y" type="float"/>
              <param name="Z" type="float"/>
            </accessor>
          </technique_common>
        </source>
        <source id="generic_car_01a_003-mesh-normals">
          <float_array id="generic_car_01a_003-mesh-normals-array" count="492">-0.9363054 -0.04121255 0.3487604 -0.9373131 -0.03943002 0.3462506 -0.9348224 -0.05553346 0.3507467 -0.9812944 1.42081e-7 -0.1925132 -0.9812944 0 -0.1925133 -0.9812944 0 -0.1925136 -0.997754 -0.009403169 0.06632149 -0.9812945 -1.65592e-6 -0.1925132 -0.9999969 0 -0.002539694 -0.8931968 0.03799855 0.4480577 -0.9314367 0.009308338 0.3637843 -0.8703847 0.00433743 0.4923532 0 -0.695717 0.718316 0 -0.6661559 0.7458127 -0.1913669 -0.6293864 0.753161 -0.17186 -0.665192 0.726625 -0.006192564 -0.05263775 0.9985945 0 -0.05378764 0.9985525 0 -0.05312931 0.9985877 1.67113e-7 0 -1 0 -4.62292e-7 -1 0 -0.7228719 0.6909822 -0.162377 -0.6979322 0.6975131 -0.2517417 -0.5921651 0.7654846 -0.228923 -0.6321318 0.7402727 -0.02267289 -0.07547283 0.9968901 -0.02833646 -0.09859067 0.9947246 -0.01786631 -0.05585306 0.9982792 0 0 -1 0 -4.62291e-7 -1 -0.2233389 -0.6691983 0.7087266 -0.9990652 0.03493613 0.02546447 -0.9613505 0.0166819 0.2748219 -0.9734256 0.01123493 0.2287276 -0.0125156 -0.05220794 0.9985579 -0.01733922 -0.05195403 0.998499 -0.02183359 -0.07158577 0.9971955 0 0 -1 0 2.59178e-7 -1 0 -0.9837669 -0.1794515 0 -0.983767 -0.1794511 0 -0.9053837 -0.4245944 0 -0.89924 -0.4374558 0 0.9954606 -0.09517532 0 0.9954607 -0.09517455 0 -0.7670193 -0.6416241 0 -0.767019 -0.6416245 -7.48921e-7 0.04391729 -0.9990352 -1 0 0 0 0.3425193 -0.9395109 0 0.3425194 -0.9395108 0 0.3425193 -0.9395108 0 0.3425192 -0.9395108 0 0.04391795 -0.9990352 -1 -2.17081e-7 0 -0.01171147 -0.05232536 0.9985615 2.08911e-7 1.24134e-7 -1 0 2.59178e-7 -1 -0.9562286 0.009974896 0.2924509 -0.9822595 0 0.1875272 -0.9720023 -0.04458075 0.2307034 -0.9822596 0 0.1875267 -0.9999969 0 -0.002539694 -0.9822596 0 0.1875268 -1 2.11841e-7 0 -0.9999945 -0.001449406 -0.003005564 -0.9580377 -0.08860135 0.2726055 0 0.04391807 -0.9990352 4.1073e-7 0 -1 0 2.59179e-7 -1 4.73565e-4 0.3225325 0.9465584 2.13025e-5 0.3009158 0.9536508 2.14724e-4 0.3227895 0.9464708 0 0.3009582 0.9536373 0 0.1409009 0.9900237 5.31316e-6 2.36358e-5 1 0 0.1409007 0.9900237 9.83177e-4 0.3222907 0.9466403 6.7404e-5 0.2998479 0.9539871 1.50086e-6 0.1405737 0.9900702 1.38311e-5 2.76565e-5 1 0.9363054 -0.04121255 0.3487604 0.9348224 -0.05553346 0.3507467 0.9373131 -0.03943002 0.3462506 0.9812944 0 -0.1925133 0.9812944 1.37839e-7 -0.1925132 0.9812944 0 -0.1925136 0.9812945 -1.38355e-6 -0.1925133 0.997754 -0.009403109 0.06632149 0.9999969 0 -0.002539694 0.8931968 0.03799855 0.4480577 0.8703847 0.00433743 0.4923532 0.9314368 0.009308338 0.3637843 0.1913669 -0.6293864 0.753161 0.17186 -0.665192 0.726625 0.006192564 -0.05263775 0.9985945 -1.67113e-7 0 -1 0.162377 -0.6979321 0.6975131 -0.6244962 0.1408607 0.7682205 -0.7698523 0.1466534 0.6211442 -0.7820689 0.230184 0.5791231 0.2517417 -0.5921651 0.7654846 0.228923 -0.6321318 0.7402727 0.02267289 -0.07547283 0.9968901 0.01786631 -0.05585306 0.9982792 0.02833646 -0.09859067 0.9947246 0.2233389 -0.6691983 0.7087266 0.9990652 0.03493613 0.02546453 0.9734257 0.01123493 0.2287277 0.9613505 0.0166819 0.2748219 0.0125156 -0.05220794 0.9985579 0.02183365 -0.07158577 0.9971955 0.01733922 -0.05195403 0.998499 7.48921e-7 0.04391729 -0.9990352 1 0 0 1 -2.17081e-7 0 0.01171147 -0.05232536 0.9985615 -2.08911e-7 1.24134e-7 -1 0.9562286 0.009974896 0.2924509 0.9822595 0 0.1875272 0.9822596 0 0.1875267 0.9720023 -0.04458075 0.2307034 0.9999969 0 -0.002539694 0.9822596 0 0.1875267 1 2.11841e-7 0 0.9999945 -0.001449406 -0.003005564 0.9580377 -0.08860135 0.2726055 0 0.04391807 -0.9990352 -4.1073e-7 0 -1 -4.73565e-4 0.3225324 0.9465583 -2.13025e-5 0.3009158 0.9536508 0 0.3008746 0.9536638 -2.14724e-4 0.3227895 0.9464708 0 0.1409007 0.9900237 -5.31316e-6 2.36358e-5 1 -6.7404e-5 0.2998479 0.9539871 -9.83177e-4 0.3222907 0.9466403 -1.50086e-6 0.1405737 0.9900702 -1.38311e-5 2.76565e-5 1 0 0.322877 0.9464409 0 0.140899 0.990024 0 2.1394e-5 1 0.7698525 0.1466535 0.6211442 0.7820689 0.230184 0.5791231 0 0 -1 0 0 -1 0 0 -1 0.9812943 -1.76304e-6 -0.192514 0 0.3008746 0.9536637 -0.9812943 -1.76304e-6 -0.192514 -0.9812944 -3.58406e-6 -0.1925135 0 -4.62292e-7 -1 0 -4.62291e-7 -1 0.9812944 -3.33918e-6 -0.1925135 0.6244962 0.1408607 0.7682205 0.4730935 0.00227499 0.8810094 2.0895e-7 0 -1 0 -4.6229e-7 -1 -2.0895e-7 0 -1 0 -4.6229e-7 -1 -0.4730935 0.00227499 0.8810094 -1.67163e-7 0 -1 1.67163e-7 0 -1 0 -4.62293e-7 -1</float_array>
          <technique_common>
            <accessor source="#generic_car_01a_003-mesh-normals-array" count="164" stride="3">
              <param name="X" type="float"/>
              <param name="Y" type="float"/>
              <param name="Z" type="float"/>
            </accessor>
          </technique_common>
        </source>
        <source id="generic_car_01a_003-mesh-map-0">
          <float_array id="generic_car_01a_003-mesh-map-0-array" count="1344">0.375 0.4911561 0.3173749 0.375 0.3564852 0.5 0.375 0 0.5625 0.125 0.5625 0 0.75 0.25 0.65625 0.0625 0.65625 0.25 0.625 0.875 0.5 0.75 0.5 1 0.5 0.75 0.5 1 0.5 1 0.5 1 0.5 0.75 0.5 0.75 0.3855234 0.5 0.3968152 0.5 0.5 0.5 0.375 0 0.625 0 0.5625 0 0.75 0 0.6875 0 0.6875 0 0.5 0.5 0.5 0.75 0.5 0.75 0.5 0.75 0.5 0.5 0.5 0.5 0.5 0.75 0.5 1 0.5 1 0.5 1 0.5 0.75 0.5 0.75 0.375 0.5 0.3564852 0.5 0.375 0.5 0.625 0 0.625 0 0.5 0 0.6875 0 0.65625 0 0.75 0 0.5 0.5 0.5 0.75 0.5 0.75 0.5 0.75 0.5 0.5 0.5 0.5 0.375 0.25 0.375 0.375 0.5 0.5 0.5 0.5 0.5 0.5 0.375 0.5 0.375 0.375 0.375 0.5 0.5 0.5 0.3772143 0 0.377348 0 0.5 0 0.8143821 0.7424721 0.75 0.871236 0.75 1 0.375 0 0.375 0 0.375 0.25 0.375 0.25 0.375 0.25 0.375 0 0.75 0.25 0.75 0.25 0.75 0 0.75 0 0.75 0 0.75 0.25 0.375 0.25 0.375 0.25 0.375 0.375 0.375 0.375 0.375 0.375 0.375 0.25 0.3172715 0.3750001 0.3173749 0.375 0.375 0.375 0.3194411 0.1388821 0.3144913 0.25 0.375 0.25 0.75 0 0.8112251 0.3724501 0.8143821 0.257528 0.3307324 0.3307324 0.3171482 0.375 0.375 0.375 0.8125 0.25 0.8125 0.25 0.75 0.25 0.75 0.25 0.75 0.25 0.8125 0.25 0.375 0.375 0.3144913 0.25 0.3307324 0.3307324 0.375 0.375 0.3172715 0.3750001 0.375 0.375 0.5 0 0.3194411 0.1388821 0.375 0.25 0.375 0.5 0.3840763 0.5 0.5 0.5 0.5 0.5 0.3855234 0.5 0.5 0.5 0.375 0 0.3772143 0 0.5 0 0 0 0.8143821 0.7424721 0.75 1 0.625 0.875 0.6247064 0.5 0.5 0.75 0.6868934 0.4995955 0.7491911 0.4994607 0.6556434 0.4370955 0.5625 0.25 0.375 0.25 0.5620956 0.3747304 0.6247064 0.5 0.5 0.5 0.5 0.75 0.375 0.5 0.375 0.5 0.3564852 0.5 0.75 0 0.75 0.25 0.8112251 0.3724501 0.8112251 0.3724501 0.75 0.25 0.8125 0.25 0.8125 0.25 0.75 0.25 0.75 0.4964922 0.375 0.375 0.375 0.25 0.3144913 0.25 0.375 0.375 0.3171482 0.375 0.3172715 0.3750001 0.5 0 0.377348 0 0.3194411 0.1388821 0.375 0.4911561 0.375 0.375 0.3173749 0.375 0.5 0.5 0.375 0.5 0.375 0.5 0.375 0.5 0.375 0.5 0.5 0.5 0.5 0.5 0.3840763 0.5 0.3855234 0.5 0.375 0 0.313538 0 0.3772143 0 0 0 0.4506739 0.257528 0.8143821 0.7424721 0 0 0.125 0.25 0 0 0.125 0.25 0.125 0.25 0 0 0.25 0.5 0.5 1 0.25 0.5 0 0 0.75 0.5732275 0.6875 0.8125 0.625 0.875 0.5 1 0.25 0.5 0.625 0.875 0.5 1 0.5 1 0.375 0.4911561 0.3564852 0.5 0.3173749 0.375 0.5625 0.125 0.375 0 0.5625 0 0.65625 0.0625 0.75 0.25 0.65625 0.25 0.625 0.875 0.5 1 0.5 0.75 0.5 0.75 0.5 1 0.5 1 0.5 1 0.5 0.75 0.5 0.75 0.3855234 0.5 0.5 0.5 0.3968152 0.5 0.625 0 0.375 0 0.5625 0 0.6875 0 0.75 0 0.6875 0 0.5 0.5 0.5 0.75 0.5 0.75 0.5 0.75 0.5 0.5 0.5 0.5 0.75 0.5732275 0.6870595 0.5 0.6875 0.8125 0.5 0.75 0.5 1 0.5 1 0.5 1 0.5 0.75 0.5 0.75 0.375 0.5 0.375 0.5 0.3564852 0.5 0.625 0 0.5 0 0.625 0 0.6875 0 0.75 0 0.65625 0 0.5 0.5 0.5 0.75 0.5 0.75 0.5 0.75 0.5 0.5 0.5 0.5 0.375 0.25 0.5 0.5 0.375 0.375 0.5 0.5 0.375 0.5 0.5 0.5 0.375 0.375 0.5 0.5 0.375 0.5 0.3772143 0 0.5 0 0.377348 0 0.8143821 0.7424721 0.75 1 0.75 0.871236 0.375 0 0.375 0.25 0.375 0 0.375 0.25 0.375 0 0.375 0.25 0.75 0.25 0.75 0 0.75 0.25 0.75 0 0.75 0.25 0.75 0 0.375 0.25 0.375 0.375 0.375 0.25 0.375 0.375 0.375 0.25 0.375 0.375 0.3172715 0.3750001 0.375 0.375 0.3173749 0.375 0.3194411 0.1388821 0.375 0.25 0.3144913 0.25 0.75 0 0.8143821 0.257528 0.8112251 0.3724501 0.3307324 0.3307324 0.375 0.375 0.3171482 0.375 0.8125 0.25 0.75 0.25 0.8125 0.25 0.75 0.25 0.8125 0.25 0.75 0.25 0.375 0.375 0.3307324 0.3307324 0.3144913 0.25 0.375 0.375 0.375 0.375 0.3172715 0.3750001 0.5 0 0.375 0.25 0.3194411 0.1388821 0.375 0.5 0.5 0.5 0.3840763 0.5 0.5 0.5 0.5 0.5 0.3855234 0.5 0.375 0 0.5 0 0.3772143 0 0 0 0.75 1 0.8143821 0.7424721 0.625 0.875 0.5 0.75 0.6247064 0.5 0.6868934 0.4995955 0.6556434 0.4370955 0.7491911 0.4994607 0.5625 0.25 0.5620956 0.3747304 0.375 0.25 0.6247064 0.5 0.5 0.75 0.5 0.5 0.375 0.5 0.3564852 0.5 0.375 0.5 0.75 0 0.8112251 0.3724501 0.75 0.25 0.8112251 0.3724501 0.8125 0.25 0.75 0.25 0.8125 0.25 0.75 0.4964922 0.75 0.25 0.375 0.375 0.3144913 0.25 0.375 0.25 0.375 0.375 0.3172715 0.3750001 0.3171482 0.375 0.5 0 0.3194411 0.1388821 0.377348 0 0.375 0.4911561 0.3173749 0.375 0.375 0.375 0.5 0.5 0.375 0.5 0.375 0.5 0.375 0.5 0.5 0.5 0.375 0.5 0.5 0.5 0.3855234 0.5 0.3840763 0.5 0.375 0 0.3772143 0 0.313538 0 0 0 0.8143821 0.7424721 0.4506739 0.257528 0 0 0.125 0.25 0.125 0.25 0.125 0.25 0 0 0.125 0.25 0.25 0.5 0.25 0.5 0.5 1 0 0 0.6875 0.8125 0.75 0.5732275 0.625 0.875 0.25 0.5 0.5 1 0.625 0.875 0.5 1 0.5 1 0 0 0 0 0.125 0.25 0.125 0.25 0.625 0.875 0.6875 0.8125 0.125 0.25 0.25 0.5 0.25 0.5 0.5 1 0.25 0.5 0.5 1 0.65625 0.25 0.5620956 0.3747304 0.5625 0.25 0.5 0.5 0.5620956 0.3747304 0.6245955 0.4997304 0.625 0.875 0.6870595 0.5 0.6875 0.8125 0.625 0 0.375 0 0.5 0 0.625 0 0.6875 0 0.6875 0 0.5 0 0.625 0 0.625 0 0.6875 0 0.5625 0 0.65625 0 0.375 0.25 0.5625 0.125 0.5625 0.25 0.65625 0.0625 0.5625 0 0.65625 0 0 0 0.6875 0.8125 0.125 0.25 0.625 0.875 0.125 0.25 0.6875 0.8125 0.125 0.25 0.25 0.5 0.125 0.25 0.5 1 0.25 0.5 0.25 0.5 0.65625 0.25 0.5620956 0.3747304 0.6556434 0.4370955 0.5 0.5 0.5620956 0.3747304 0.375 0.25 0.6870595 0.5 0.625 0.875 0.6875 0.8125 0.375 0 0.625 0 0.5 0 0.6875 0 0.625 0 0.6875 0 0.5 0 0.625 0 0.625 0 0.5625 0 0.6875 0 0.65625 0 0.375 0.25 0.5625 0.25 0.5625 0.125 0.5625 0 0.65625 0.0625 0.65625 0 0.75 0 0.65625 0 0.65625 0.0625 0.75 0 0.65625 0 0.6875 0 0.75 0 0.6875 0 0.75 0 0.75 0.25 0.6556434 0.4370955 0.7491911 0.4994607 0.75 0 0.65625 0.0625 0.65625 0 0.75 0 0.6875 0 0.65625 0 0.6875 0 0.75 0 0.75 0 0.75 0.25 0.6556434 0.4370955 0.65625 0.25 0.75 0.5732275 0.6870595 0.5 0.75 0.507481 0.6875 0.8125 0 0 0.125 0.25 0 0 0.125 0.25 0 0 0.125 0.25 0.25 0.5 0.25 0.5 0.6245955 0.4997304 0.6556434 0.4370955 0.6868934 0.4995955 0.6875 0 0.5625 0 0.625 0 0.625 0 0.6875 0 0.625 0 0.5625 0.125 0.65625 0.25 0.5625 0.25 0.25 0.5 0.125 0.25 0.25 0.5 0.6245955 0.4997304 0.6556434 0.4370955 0.5620956 0.3747304 0.5625 0 0.6875 0 0.625 0 0.6875 0 0.625 0 0.625 0 0.65625 0.25 0.5625 0.125 0.5625 0.25 0.375 0 0.375 0.25 0.5625 0.125 0.75 0.25 0.75 0 0.65625 0.0625 0.375 0 0.5 0 0.625 0 0.75 0 0.75 0 0.6875 0 0 0 0.125 0.25 0.125 0.25 0.5625 0.125 0.375 0.25 0.375 0 0.65625 0.0625 0.75 0 0.75 0.25 0.625 0 0.5 0 0.375 0 0.6875 0 0.75 0 0.75 0 0.75 0.5732275 0.7493438 0.5006563 0.6870595 0.5 0 0 0 0 0.125 0.25 0.125 0.25 0.25 0.5 0.625 0.875 0.125 0.25 0.125 0.25 0.25 0.5 0.5 1 0.25 0.5 0.25 0.5 0.65625 0.25 0.6556434 0.4370955 0.5620956 0.3747304 0.5 0.5 0.375 0.25 0.5620956 0.3747304 0.625 0.875 0.6247064 0.5 0.6870595 0.5 0.625 0 0.5625 0 0.375 0 0.625 0 0.625 0 0.6875 0 0.6875 0 0.625 0 0.5625 0 0.65625 0.0625 0.5625 0.125 0.5625 0 0.625 0.875 0.25 0.5 0.125 0.25 0.125 0.25 0.25 0.5 0.25 0.5 0.5 1 0.5 1 0.25 0.5 0.65625 0.25 0.5625 0.25 0.5620956 0.3747304 0.5 0.5 0.6245955 0.4997304 0.5620956 0.3747304 0.6870595 0.5 0.6247064 0.5 0.625 0.875 0.375 0 0.5625 0 0.625 0 0.6875 0 0.625 0 0.625 0 0.5625 0 0.625 0 0.6875 0 0.5625 0 0.5625 0.125 0.65625 0.0625 0.75 0 0.6875 0 0.6875 0 0.75 0.25 0.65625 0.25 0.6556434 0.4370955 0.6875 0 0.6875 0 0.75 0 0.75 0.25 0.7491911 0.4994607 0.6556434 0.4370955 0.75 0.5732275 0.6875 0.8125 0.6870595 0.5 0.125 0.25 0.125 0.25 0.25 0.5 0.6245955 0.4997304 0.5620956 0.3747304 0.6556434 0.4370955 0.6875 0 0.65625 0 0.5625 0 0.625 0 0.6875 0 0.6875 0 0.5625 0.125 0.65625 0.0625 0.65625 0.25 0.25 0.5 0.125 0.25 0.125 0.25 0.6245955 0.4997304 0.6868934 0.4995955 0.6556434 0.4370955 0.5625 0 0.65625 0 0.6875 0 0.6875 0 0.6875 0 0.625 0 0.65625 0.25 0.65625 0.0625 0.5625 0.125</float_array>
          <technique_common>
            <accessor source="#generic_car_01a_003-mesh-map-0-array" count="672" stride="2">
              <param name="S" type="float"/>
              <param name="T" type="float"/>
            </accessor>
          </technique_common>
        </source>
        <vertices id="generic_car_01a_003-mesh-vertices">
          <input semantic="POSITION" source="#generic_car_01a_003-mesh-positions"/>
        </vertices>
        <triangles material="generic_car_parametrized-material" count="224">
          <input semantic="VERTEX" source="#generic_car_01a_003-mesh-vertices" offset="0"/>
          <input semantic="NORMAL" source="#generic_car_01a_003-mesh-normals" offset="1"/>
          <input semantic="TEXCOORD" source="#generic_car_01a_003-mesh-map-0" offset="2" set="0"/>
          <p>17 0 0 32 1 1 34 2 2 2 3 3 88 4 4 89 5 5 4 6 6 125 7 7 126 8 8 91 9 9 7 10 10 6 11 11 11 12 12 9 13 13 10 14 14 10 14 15 12 15 16 11 12 17 24 16 18 36 17 19 13 18 20 1 19 21 92 19 22 87 19 23 15 20 24 127 20 25 128 20 26 13 21 27 11 12 28 12 15 29 12 15 30 14 22 31 13 21 32 12 15 33 10 14 34 6 23 35 6 23 36 7 24 37 12 15 38 22 25 39 34 26 40 33 27 41 94 28 42 93 28 43 16 28 44 129 29 45 111 29 46 3 29 47 14 22 48 12 15 49 7 24 50 7 24 51 8 30 52 14 22 53 5 31 54 18 32 55 8 33 56 14 34 57 8 35 58 17 36 59 18 32 60 17 0 61 8 33 62 31 37 63 30 37 64 16 37 65 42 38 66 38 38 67 0 38 68 2 39 69 16 40 70 19 41 71 19 41 72 5 42 73 2 39 74 4 43 75 20 43 76 15 43 77 15 44 78 3 44 79 4 44 80 5 42 81 19 41 82 21 45 83 21 45 84 18 46 85 5 42 86 25 47 87 32 47 88 18 47 89 28 48 90 26 48 91 19 48 92 15 48 93 44 48 94 43 48 95 27 48 96 29 48 97 21 48 98 46 49 99 45 50 100 20 51 101 20 51 102 4 52 103 46 49 104 21 48 105 26 48 106 27 48 107 21 53 108 25 53 109 18 53 110 16 54 111 28 54 112 19 54 113 33 27 114 35 55 115 14 34 116 14 34 117 24 16 118 13 18 119 1 56 120 31 56 121 16 56 122 15 57 123 42 57 124 0 57 125 91 9 126 95 58 127 7 10 128 113 59 129 39 60 130 114 61 131 90 62 132 5 31 133 96 63 134 95 58 135 8 33 136 7 10 137 22 25 138 17 36 139 34 26 140 15 64 141 20 64 142 44 64 143 44 65 144 20 65 145 45 65 146 46 66 147 4 6 148 39 60 149 21 48 150 19 48 151 26 48 152 21 67 153 29 67 154 25 67 155 16 48 156 30 48 157 28 48 158 17 0 159 18 32 160 32 1 161 14 34 162 17 36 163 22 25 164 22 25 165 33 27 166 14 34 167 14 34 168 35 55 169 24 16 170 1 68 171 23 68 172 31 68 173 15 69 174 43 69 175 42 69 176 40 70 177 116 71 178 47 72 179 116 71 180 115 73 181 47 72 182 99 74 183 10 75 184 98 76 185 40 70 186 41 77 187 112 78 188 91 79 189 10 75 190 99 74 191 91 79 192 6 80 193 10 75 194 60 81 195 76 82 196 74 83 197 100 84 198 48 85 199 101 86 200 130 87 201 50 88 202 131 89 203 103 90 204 52 91 205 53 92 206 11 12 207 55 93 208 9 13 209 55 93 210 11 12 211 56 94 212 66 95 213 13 18 214 36 17 215 110 96 216 1 96 217 87 96 218 134 20 219 58 20 220 132 20 221 13 21 222 56 94 223 11 12 224 56 94 225 13 21 226 57 97 227 41 98 228 113 99 229 112 100 230 56 94 231 52 101 232 55 93 233 52 101 234 56 94 235 53 102 236 65 103 237 75 104 238 76 105 239 105 28 240 59 28 241 104 28 242 133 29 243 49 29 244 118 29 245 57 97 246 53 102 247 56 94 248 53 102 249 57 97 250 54 106 251 51 107 252 54 108 253 61 109 254 57 110 255 60 111 256 54 112 257 61 109 258 54 108 259 60 81 260 73 37 261 59 37 262 72 37 263 81 38 264 0 38 265 38 38 266 48 39 267 62 41 268 59 40 269 62 41 270 48 39 271 51 42 272 50 43 273 58 43 274 63 43 275 58 44 276 50 44 277 49 44 278 51 42 279 64 45 280 62 41 281 64 45 282 51 42 283 61 46 284 67 113 285 61 113 286 74 113 287 70 114 288 62 114 289 68 114 290 58 114 291 82 114 292 83 114 293 69 114 294 64 114 295 71 114 296 85 49 297 63 51 298 84 50 299 63 51 300 85 49 301 50 52 302 64 114 303 69 114 304 68 114 305 64 53 306 61 53 307 67 53 308 59 115 309 62 115 310 70 115 311 75 104 312 57 110 313 77 116 314 57 110 315 13 18 316 66 95 317 1 117 318 59 117 319 73 117 320 58 57 321 0 57 322 81 57 323 103 90 324 53 92 325 106 118 326 120 119 327 121 120 328 78 121 329 102 122 330 107 123 331 51 107 332 106 118 333 53 92 334 54 108 335 65 103 336 76 105 337 60 111 338 58 124 339 83 124 340 63 124 341 83 125 342 84 125 343 63 125 344 85 126 345 78 121 346 50 88 347 64 114 348 68 114 349 62 114 350 64 127 351 67 127 352 71 127 353 59 114 354 70 114 355 72 114 356 60 81 357 74 83 358 61 109 359 57 110 360 65 103 361 60 111 362 65 103 363 57 110 364 75 104 365 57 110 366 66 95 367 77 116 368 1 128 369 73 128 370 23 128 371 58 69 372 81 69 373 82 69 374 79 129 375 122 130 376 123 131 377 122 130 378 86 132 379 115 73 380 109 74 381 108 133 382 55 134 383 79 129 384 119 135 385 80 136 386 103 137 387 109 74 388 55 134 389 103 137 390 55 134 391 52 138 392 37 139 393 47 72 394 115 73 395 123 131 396 103 137 397 119 135 398 123 131 399 108 133 400 109 74 401 55 134 402 97 140 403 9 141 404 131 89 405 107 123 406 102 122 407 54 108 408 107 123 409 106 118 410 103 90 411 120 142 412 119 143 413 105 144 414 48 144 415 59 144 416 105 37 417 132 37 418 133 37 419 59 145 420 110 145 421 104 145 422 134 146 423 87 146 424 124 146 425 51 107 426 100 84 427 102 122 428 130 87 429 101 86 430 118 147 431 40 70 432 112 78 433 117 148 434 91 79 435 117 148 436 112 78 437 117 148 438 98 76 439 116 71 440 10 75 441 97 140 442 98 76 443 126 8 444 96 63 445 114 61 446 8 33 447 96 63 448 5 31 449 113 99 450 91 9 451 112 100 452 2 145 453 94 145 454 16 145 455 128 37 456 94 37 457 129 37 458 16 145 459 93 145 460 92 145 461 87 146 462 127 146 463 124 146 464 5 31 465 90 62 466 88 4 467 89 5 468 125 7 469 111 149 470 3 150 471 111 149 472 125 7 473 0 151 474 124 151 475 127 151 476 15 152 477 129 152 478 3 152 479 4 6 480 114 61 481 39 60 482 49 153 483 130 87 484 118 147 485 0 151 486 134 151 487 124 151 488 133 152 489 58 152 490 49 152 491 50 88 492 121 120 493 131 89 494 80 154 495 120 142 496 78 155 497 119 135 498 79 129 499 123 131 500 37 139 501 115 73 502 86 132 503 122 130 504 97 140 505 108 133 506 106 118 507 121 120 508 120 119 509 133 37 510 101 37 511 105 37 512 110 37 513 132 37 514 104 37 515 100 84 516 131 89 517 102 122 518 97 140 519 116 71 520 98 76 521 95 58 522 114 61 523 96 63 524 89 37 525 129 37 526 94 37 527 128 37 528 92 37 529 93 37 530 126 8 531 88 4 532 90 62 533 2 3 534 5 31 535 88 4 536 4 6 537 3 150 538 125 7 539 1 156 540 16 156 541 92 156 542 15 157 543 0 157 544 127 157 545 40 70 546 117 148 547 116 71 548 100 84 549 51 107 550 48 85 551 130 87 552 49 153 553 50 88 554 110 158 555 59 158 556 1 158 557 134 159 558 0 159 559 58 159 560 41 98 561 39 160 562 113 99 563 79 129 564 86 132 565 122 130 566 123 131 567 109 74 568 103 137 569 123 131 570 122 130 571 108 133 572 55 134 573 108 133 574 97 140 575 131 89 576 121 120 577 107 123 578 54 108 579 51 107 580 107 123 581 103 90 582 106 118 583 120 142 584 105 28 585 101 28 586 48 28 587 105 37 588 104 37 589 132 37 590 134 161 591 110 161 592 87 161 593 130 87 594 100 84 595 101 86 596 91 79 597 99 74 598 117 148 599 117 148 600 99 74 601 98 76 602 10 75 603 9 141 604 97 140 605 126 8 606 90 62 607 96 63 608 8 33 609 95 58 610 96 63 611 113 99 612 95 58 613 91 9 614 2 28 615 89 28 616 94 28 617 128 37 618 93 37 619 94 37 620 87 162 621 92 162 622 127 162 623 89 5 624 88 4 625 125 7 626 15 163 627 128 163 628 129 163 629 4 6 630 126 8 631 114 61 632 133 163 633 132 163 634 58 163 635 50 88 636 78 121 637 121 120 638 80 154 639 119 143 640 120 142 641 122 130 642 115 73 643 97 140 644 106 118 645 107 123 646 121 120 647 133 37 648 118 37 649 101 37 650 110 37 651 134 37 652 132 37 653 100 84 654 130 87 655 131 89 656 97 140 657 115 73 658 116 71 659 95 58 660 113 59 661 114 61 662 89 37 663 111 37 664 129 37 665 128 37 666 127 37 667 92 37 668 126 8 669 125 7 670 88 4 671</p>
        </triangles>
      </mesh>
    </geometry>
  </library_geometries>
  <library_visual_scenes>
    <visual_scene id="Scene" name="Scene">
      <node id="template_car_coupe_middle" name="template_car_coupe_middle" type="NODE">
        <matrix sid="transform">0.01 0 0 0 0 0.01 0 1.25 0 0 0.01 0 0 0 0 1</matrix>
        <instance_geometry url="#generic_car_01a_003-mesh" name="template_car_coupe_middle">
          <bind_material>
            <technique_common>
              <instance_material symbol="generic_car_parametrized-material" target="#generic_car_parametrized-material">
                <bind_vertex_input semantic="generic_car_01a_004-mesh-map-0" input_semantic="TEXCOORD" input_set="0"/>
              </instance_material>
            </technique_common>
          </bind_material>
        </instance_geometry>
      </node>
    </visual_scene>
  </library_visual_scenes>
  <scene>
    <instance_visual_scene url="#Scene"/>
  </scene>
</COLLADA>