<?xml version="1.0" encoding="utf-8"?>
<COLLADA xmlns="http://www.collada.org/2005/11/COLLADASchema" version="1.4.1" xmlns:xsi="http://www.w3.org/2001/XMLSchema-instance">
  <asset>
    <contributor>
      <author>Blender User</author>
      <authoring_tool>Blender 4.4.3 commit date:2025-04-29, commit time:14:09, hash:802179c51ccc</authoring_tool>
    </contributor>
    <created>2025-11-20T13:52:03</created>
    <modified>2025-11-20T13:52:03</modified>
    <unit name="meter" meter="1"/>
    <up_axis>Z_UP</up_axis>
  </asset>
  <library_effects>
    <effect id="generic_car_parametrized-effect">
      <profile_COMMON>
        <technique sid="common">
          <lambert>
            <emission>
              <color sid="emission">0 0 0 1</color>
            </emission>
            <diffuse>
              <color sid="diffuse">0.588294 0.001998425 0.01040506 1</color>
            </diffuse>
            <reflectivity>
              <float sid="specular">0.4145078</float>
            </reflectivity>
            <index_of_refraction>
              <float sid="ior">1.5</float>
            </index_of_refraction>
          </lambert>
        </technique>
      </profile_COMMON>
    </effect>
  </library_effects>
  <library_images/>
  <library_materials>
    <material id="generic_car_parametrized-material" name="generic_car_parametrized">
      <instance_effect url="#generic_car_parametrized-effect"/>
    </material>
  </library_materials>
  <library_geometries>
    <geometry id="generic_car_parametrized_001-mesh" name="generic_car_parametrized.001">
      <mesh>
        <source id="generic_car_parametrized_001-mesh-positions">
          <float_array id="generic_car_parametrized_001-mesh-positions-array" count="486">0 89.12585 -0.01616096 0 -87.40162 -0.01615142 -79.37202 -87.40162 -0.01616096 -79.37202 89.12585 -0.01616096 -85.83339 92.27477 32.91927 -85.83339 -93.40946 32.91927 -59.56878 -30.24497 110.0016 -72.17827 -54.95781 87.9282 -59.05697 105.5884 65.00325 -79.54555 -75.87638 65.85471 0 -47.17552 110.0016 -35.57379 -41.58662 110.0016 0 -71.88838 87.9282 -41.87854 -66.29947 87.9282 0 -92.80694 65.85471 -45.56218 -87.21803 65.85471 -45.64046 89.12585 -0.01616096 -45.64046 -87.40162 -0.01616096 -79.03491 -119.0871 63.61523 -85.17014 -106.2483 48.26725 -45.64046 -93.40946 32.91927 -45.64046 92.27477 32.91927 -45.64046 -106.2483 48.26725 -70.51023 -121.1783 63.65079 0 -125.177 -0.01615142 -41.79817 -124.3769 63.93135 -66.91421 -124.5172 47.46414 -45.64046 -124.7207 32.91927 -45.64046 -124.6086 42.8319 -45.64046 -124.8864 18.28041 -45.64046 -124.5562 47.46242 -45.64046 -125.0934 -0.01616096 -23.22448 -125.1344 -0.01616096 -84.77365 -124.4845 47.46559 -57.5783 -124.3506 63.70475 -78.91744 -124.3183 63.10009 -45.63481 -124.3702 63.90705 0 -124.451 64.15018 0 125.0073 65.5 0 125.9219 -0.01615142 -79.63381 125.152 65.3926 -44.0819 125.0426 65.5 -53.35829 125.0709 65.5 -23.50739 125.9219 -0.01615142 -45.64046 125.9219 -0.01615142 -45.64046 125.7242 16.78748 -45.72475 125.3924 44.99303 -85.46065 125.3924 44.99303 -19.82597 125.024 65.5 79.37202 -87.40162 -0.01616096 79.37202 89.12585 -0.01616096 85.83339 92.27477 32.91927 85.83339 -93.40946 32.91927 59.56878 -30.24497 110.0016 72.17827 -54.95781 87.9282 58.94303 105.5884 65.00325 79.54555 -75.87638 65.85471 35.57379 -41.58662 110.0016 41.87854 -66.29947 87.9282 45.56218 -87.21803 65.85471 45.64046 89.12585 -0.01616096 45.64046 -87.40162 -0.01616096 79.03491 -119.0871 63.61523 85.17014 -106.2483 48.26725 45.64046 -93.40946 32.91927 45.64046 92.27477 32.91927 45.64046 -106.2483 48.26725 70.51023 -121.1783 63.65079 41.79817 -124.3769 63.93135 66.91421 -124.5172 47.46414 45.64046 -124.7207 32.91927 45.64046 -124.6086 42.8319 45.64046 -124.8864 18.28041 45.64046 -124.5562 47.46242 45.64046 -125.0934 -0.01616096 23.22448 -125.1344 -0.01616096 84.77365 -124.4845 47.46559 57.5783 -124.3506 63.70475 78.91744 -124.3183 63.10009 45.63481 -124.3702 63.90705 79.63381 125.152 65.3926 44.0819 125.0426 65.5 53.35829 125.0709 65.5 23.50739 125.9219 -0.01615142 45.64046 125.9219 -0.01615142 45.64046 125.7242 16.78748 45.72475 125.3924 44.99303 85.46065 125.3924 44.99303 19.82597 125.024 65.5 0 0.9999924 -0.01615524 -82.60271 0.9999924 16.45155 -79.37202 0.9999924 -0.01615905 -85.83339 0.9999924 32.91927 -59.28439 0.9999924 110 -65.58914 1 100.4641 -22.82023 0.9999924 -0.01615905 -45.64046 0.9999924 -0.01615905 -62.50624 0.9999924 -0.01615905 -75.90604 1.000008 76.6604 -82.7336 0.9999924 49.15594 0 0.9999924 110 -9.912985 0.9999924 110 -27.69988 0.9999924 110 -39.82784 0.9999924 110 -47.28689 0.9999924 110 82.60271 0.9999924 16.45155 79.37202 0.9999924 -0.01615905 85.83339 0.9999924 32.91927 59.28439 0.9999924 110 65.58914 1 100.4641 45.64046 0.9999924 -0.01615905 62.50624 0.9999924 -0.01615905 75.90604 1.000008 76.6604 82.7336 0.9999924 49.15594 27.69988 0.9999924 110 39.82784 0.9999924 110 47.28689 0.9999924 110 22.82023 0.9999924 -0.01615905 9.912985 0.9999924 110 -79.37202 84.99999 -0.01615905 -60.71838 84.99999 65.74838 -78.69083 84.99999 65.50407 -81.1837 84.99999 57.27427 0 84.99999 65.49999 -14.86948 84.99999 65.49999 -23.76292 84.99999 65.49999 -41.95487 84.99999 65.49999 79.37202 84.99999 -0.01615905 60.71838 84.99999 65.74838 78.69083 84.99999 65.50407 81.1837 84.99999 57.27427 23.76292 84.99999 65.49999 41.95487 84.99999 65.49999 14.86948 84.99999 65.49999 0 84.99999 -0.01615905 -80.98737 84.99999 8.217698 -85.83339 84.99999 32.91927 -11.41011 84.99999 -0.01615905 -45.64046 84.99999 -0.01615905 -70.93913 84.99999 -0.01615905 -53.14345 84.99999 65.49999 80.98737 84.99999 8.217698 85.83339 84.99999 32.91927 45.64046 84.99999 -0.01615905 70.93913 84.99999 -0.01615905 53.14345 84.99999 65.49999 11.41011 84.99999 -0.01615905 -50.21517 1.186016 65.5 50.21517 1.186016 65.5 -59.21329 1.186016 65.5 -63.94185 1.18602 65.50001 -78.90727 1.139515 65.56386 0 1.186016 65.5 -12.39123 1.186016 65.5 -25.7314 1.186016 65.5 -40.89136 1.186016 65.5 59.21329 1.186016 65.5 63.94185 1.18602 65.50001 78.90727 1.139515 65.56386 25.7314 1.186016 65.5 40.89136 1.186016 65.5 12.39123 1.186016 65.5</float_array>
          <technique_common>
            <accessor source="#generic_car_parametrized_001-mesh-positions-array" count="162" stride="3">
              <param name="X" type="float"/>
              <param name="Y" type="float"/>
              <param name="Z" type="float"/>
            </accessor>
          </technique_common>
        </source>
        <source id="generic_car_parametrized_001-mesh-normals">
          <float_array id="generic_car_parametrized_001-mesh-normals-array" count="594">-0.9363054 -0.04121255 0.3487604 -0.9373131 -0.03943002 0.3462506 -0.9348224 -0.05553346 0.3507467 -0.9812944 1.42081e-7 -0.1925132 -0.9812944 0 -0.1925133 -0.9812944 0 -0.1925136 -0.997754 -0.009403169 0.06632149 -0.9812945 -1.65592e-6 -0.1925132 -0.9999969 0 -0.002539694 -0.8774361 0.008756697 0.4796137 -0.5319615 -0.005472481 0.8467509 -0.4714132 0.004335522 0.8819019 0 -0.695717 0.718316 0 -0.6661559 0.7458127 -0.1913669 -0.6293864 0.753161 -0.17186 -0.665192 0.726625 -0.006192564 -0.05263775 0.9985945 0 -0.05378764 0.9985525 0 -0.05312931 0.9985877 1.67113e-7 0 -1 0 -4.62292e-7 -1 0 -0.7228719 0.6909822 -0.162377 -0.6979322 0.6975131 -0.001753747 -0.02497667 0.9996865 0.009200155 -0.01022356 0.9999055 -0.003665983 0.002165913 0.9999909 -0.2517417 -0.5921651 0.7654846 -0.228923 -0.6321318 0.7402727 -0.02267289 -0.07547283 0.9968901 -0.02833646 -0.09859067 0.9947246 -0.01786631 -0.05585306 0.9982792 0 0 -1 0 -4.62291e-7 -1 -0.2233389 -0.6691983 0.7087266 -0.9990652 0.03493613 0.02546447 -0.9613505 0.0166819 0.2748219 -0.9732823 0.0135734 0.2292103 -0.0125156 -0.05220794 0.9985579 -0.01733922 -0.05195403 0.998499 -0.02183359 -0.07158577 0.9971955 0 0 -1 0 2.59178e-7 -1 0 -0.9837669 -0.1794515 0 -0.983767 -0.1794511 0 -0.9053837 -0.4245944 0 -0.89924 -0.4374558 0 0.9954606 -0.09517532 0 0.9954607 -0.09517455 0 -0.7670193 -0.6416241 0 -0.767019 -0.6416245 -7.48921e-7 0.04391729 -0.9990352 -1 0 0 0 0.3425193 -0.9395109 0 0.3425194 -0.9395108 0 0.3425193 -0.9395108 0 0.3425192 -0.9395108 0 0.04391795 -0.9990352 -1 -2.17081e-7 0 -0.01171147 -0.05232536 0.9985615 2.08911e-7 1.24134e-7 -1 0 2.59178e-7 -1 -0.947134 0.001508355 0.3208351 -0.9346984 0.005572915 0.3553986 -0.9570141 -0.009459078 0.2898874 -0.9685901 -0.04730296 0.2441225 -0.9719076 -0.004226744 0.2353249 -0.9999969 0 -0.002539694 -0.9786856 0.001006484 0.2053618 -0.9698345 -3.78923e-4 0.2437641 -1 2.11841e-7 0 -0.9999945 -0.001449406 -0.003005564 -0.9580377 -0.08860135 0.2726055 0 0.04391807 -0.9990352 4.1073e-7 0 -1 0 2.59179e-7 -1 0 3.29403e-5 1 1.25725e-6 3.46166e-5 1 0 3.38829e-5 1 0 0 1 0 0 1 0 -3.81245e-7 1 0 3.72632e-5 1 8.15836e-6 3.76054e-5 1 0 3.72632e-5 1 -0.007021069 -0.007808268 0.9999449 4.04674e-6 4.35533e-5 1 0.9363054 -0.04121255 0.3487604 0.9348224 -0.05553346 0.3507467 0.9373131 -0.03943002 0.3462506 0.9812944 0 -0.1925133 0.9812944 1.37839e-7 -0.1925132 0.9812944 0 -0.1925136 0.9812945 -1.38355e-6 -0.1925133 0.997754 -0.009403109 0.06632149 0.9999969 0 -0.002539694 0.5319616 -0.00547254 0.8467508 0.8774361 0.008756697 0.4796136 0.4714133 0.004335522 0.8819018 0.1913669 -0.6293864 0.753161 0.17186 -0.665192 0.726625 0.006192564 -0.05263775 0.9985945 -1.67113e-7 0 -1 0.162377 -0.6979321 0.6975131 0.00176078 -0.02498489 0.9996863 0.003805458 0.002147316 0.9999905 -0.009183406 -0.01018768 0.999906 0.2517417 -0.5921651 0.7654846 0.228923 -0.6321318 0.7402727 0.02267289 -0.07547283 0.9968901 0.01786631 -0.05585306 0.9982792 0.02833646 -0.09859067 0.9947246 0.2233389 -0.6691983 0.7087266 0.9990652 0.03493613 0.02546453 0.9732823 0.0135734 0.2292103 0.9613505 0.0166819 0.2748219 0.0125156 -0.05220794 0.9985579 0.02183365 -0.07158577 0.9971955 0.01733922 -0.05195403 0.998499 7.48921e-7 0.04391729 -0.9990352 1 0 0 1 -2.17081e-7 0 0.01171147 -0.05232536 0.9985615 -2.08911e-7 1.24134e-7 -1 0.9346983 0.005572855 0.3553987 0.9471338 0.001508355 0.3208352 0.9570141 -0.009459078 0.2898874 0.9719076 -0.004226744 0.2353249 0.9685901 -0.04730296 0.2441225 0.9999969 0 -0.002539694 0.9786856 0.001006484 0.2053618 0.9698345 -3.78927e-4 0.2437642 1 2.11841e-7 0 0.9999945 -0.001449406 -0.003005564 0.9580377 -0.08860135 0.2726055 0 0.04391807 -0.9990352 -4.1073e-7 0 -1 -1.25725e-6 3.46166e-5 1 0 0 1 0 -3.81245e-7 1 0 0 1 -8.15836e-6 3.76054e-5 1 0.007034659 -0.007839024 0.9999446 -4.04674e-6 4.35533e-5 1 0 0.9999913 0.004180252 0.001714229 0.9999898 0.00417751 3.5841e-4 0.999989 0.004684209 0 0.9999913 0.004180252 0 0.9999913 0.004180252 0 0.9999913 0.004180252 0 0.9999913 0.004180252 0.003453135 0.9999688 0.007113099 0.008168697 0.9999354 0.007908999 0.003050029 0.9999057 0.01339584 0 0 -1 0 0 -1 0 0 -1 0.006755232 0.9999679 0.004318356 0.9812943 -1.76304e-6 -0.192514 -0.001714229 0.9999898 0.00417751 0 0.9999913 0.004180252 -3.5841e-4 0.999989 0.004684209 0 0.9999913 0.004180252 0 0.9999913 0.004180252 -0.003453135 0.9999688 0.007113099 -0.008168697 0.9999354 0.007908999 -0.006755232 0.9999679 0.004318356 -0.9812943 -1.76304e-6 -0.192514 -0.9812944 -3.58406e-6 -0.1925135 0 -4.62292e-7 -1 0 -4.62291e-7 -1 -0.003761112 0.009304285 0.9999496 0.008986055 0.01653468 0.9998229 0 -3.81308e-7 1 0 0 1 -0.003161013 0.003201842 0.9999899 0.01455372 0.01342952 0.9998039 0.9812944 -3.33918e-6 -0.1925135 0.003759443 0.009291708 0.9999498 0.003167331 0.00321412 0.9999899 -0.01458042 0.01339972 0.9998039 -0.008945584 0.01651501 0.9998237 0 1.82055e-7 1 9.80236e-4 -0.00129652 0.9999987 9.42409e-4 -0.001532852 0.9999985 0 1.82055e-7 1 -9.42409e-4 -0.001532852 0.9999985 -9.80377e-4 -0.00129652 0.9999987 2.0895e-7 0 -1 0 -4.6229e-7 -1 -2.0895e-7 0 -1 0 -4.6229e-7 -1 -1.67163e-7 0 -1 0 0.9999913 0.004180252 -0.003050029 0.9999057 0.01339584 1.67163e-7 0 -1 0 -4.62293e-7 -1 0.004265367 7.01976e-4 0.9999907 -0.004265666 7.01976e-4 0.9999907</float_array>
          <technique_common>
            <accessor source="#generic_car_parametrized_001-mesh-normals-array" count="198" stride="3">
              <param name="X" type="float"/>
              <param name="Y" type="float"/>
              <param name="Z" type="float"/>
            </accessor>
          </technique_common>
        </source>
        <source id="generic_car_parametrized_001-mesh-map-0">
          <float_array id="generic_car_parametrized_001-mesh-map-0-array" count="1668">0.375 0.4911561 0.3173749 0.375 0.3564852 0.5 0.375 0 0.5625 0.125 0.5625 0 0.75 0.25 0.65625 0.0625 0.65625 0.25 0.625 0.75 0.5 1 0.625 0.875 0.5 0.75 0.5 1 0.5 1 0.5 1 0.5 0.75 0.5 0.75 0.3855234 0.5 0.3968152 0.5 0.5 0.5 0.375 0 0.625 0 0.5625 0 0.75 0 0.6875 0 0.6875 0 0.5 0.5 0.5 0.75 0.5 0.75 0.5 0.75 0.5 0.5 0.5 0.5 0.75 0.5732275 0.75 0.507481 0.75 0.75 0.5 0.75 0.5 1 0.5 1 0.5 1 0.5 0.75 0.5 0.75 0.375 0.5 0.3564852 0.5 0.375 0.5 0.625 0 0.625 0 0.5 0 0.6875 0 0.65625 0 0.75 0 0.5 0.5 0.5 0.75 0.5 0.75 0.5 0.75 0.5 0.5 0.5 0.5 0.375 0.25 0.375 0.375 0.5 0.5 0.5 0.5 0.5 0.5 0.375 0.5 0.375 0.375 0.375 0.5 0.5 0.5 0.3772143 0 0.377348 0 0.5 0 0.8143821 0.7424721 0.75 0.871236 0.75 1 0.375 0 0.375 0 0.375 0.25 0.375 0.25 0.375 0.25 0.375 0 0.75 0.25 0.75 0.25 0.75 0 0.75 0 0.75 0 0.75 0.25 0.375 0.25 0.375 0.25 0.375 0.375 0.375 0.375 0.375 0.375 0.375 0.25 0.3172715 0.3750001 0.3173749 0.375 0.375 0.375 0.3194411 0.1388821 0.3144913 0.25 0.375 0.25 0.75 0 0.8112251 0.3724501 0.8143821 0.257528 0.3307324 0.3307324 0.3171482 0.375 0.375 0.375 0.8125 0.25 0.8125 0.25 0.75 0.25 0.75 0.25 0.75 0.25 0.8125 0.25 0.375 0.375 0.3144913 0.25 0.3307324 0.3307324 0.375 0.375 0.3172715 0.3750001 0.375 0.375 0.5 0 0.3194411 0.1388821 0.375 0.25 0.375 0.5 0.3840763 0.5 0.5 0.5 0.5 0.5 0.3855234 0.5 0.5 0.5 0.375 0 0.3772143 0 0.5 0 0 0 0.8143821 0.7424721 0.75 1 0.625 0.75 0.6246719 0.6253282 0.5 0.75 0.6868934 0.4995955 0.7491911 0.4994607 0.6556434 0.4370955 0.5625 0.25 0.375 0.25 0.5620956 0.3747304 0.6247064 0.5 0.5 0.75 0.6247064 0.625 0.375 0.5 0.375 0.5 0.3564852 0.5 0.75 0 0.75 0.25 0.8112251 0.3724501 0.8112251 0.3724501 0.75 0.25 0.8125 0.25 0.8125 0.25 0.75 0.25 0.75 0.4964922 0.375 0.375 0.375 0.25 0.3144913 0.25 0.375 0.375 0.3171482 0.375 0.3172715 0.3750001 0.5 0 0.377348 0 0.3194411 0.1388821 0.375 0.4911561 0.375 0.375 0.3173749 0.375 0.5 0.5 0.375 0.5 0.375 0.5 0.375 0.5 0.375 0.5 0.5 0.5 0.5 0.5 0.3840763 0.5 0.3855234 0.5 0.375 0 0.313538 0 0.3772143 0 0 0 0.4506739 0.257528 0.8143821 0.7424721 0.25 0.5 0.25 0.5 0.5 1 0.125 0.25 0.125 0.25 0 0 0.25 0.5 0.5 1 0.25 0.5 0 0 0.75 0.5732275 0.75 0.75 0.625 0.875 0.5 1 0.25 0.5 0.5 1 0.625 0.875 0.625 0.875 0.375 0.4911561 0.3564852 0.5 0.3173749 0.375 0.5625 0.125 0.375 0 0.5625 0 0.65625 0.0625 0.75 0.25 0.65625 0.25 0.5 1 0.625 0.75 0.625 0.875 0.5 0.75 0.5 1 0.5 1 0.5 1 0.5 0.75 0.5 0.75 0.3855234 0.5 0.5 0.5 0.3968152 0.5 0.625 0 0.375 0 0.5625 0 0.6875 0 0.75 0 0.6875 0 0.5 0.5 0.5 0.75 0.5 0.75 0.5 0.75 0.5 0.5 0.5 0.5 0.75 0.5732275 0.75 0.75 0.75 0.507481 0.5 0.75 0.5 1 0.5 1 0.5 1 0.5 0.75 0.5 0.75 0.375 0.5 0.375 0.5 0.3564852 0.5 0.625 0 0.5 0 0.625 0 0.6875 0 0.75 0 0.65625 0 0.5 0.5 0.5 0.75 0.5 0.75 0.5 0.75 0.5 0.5 0.5 0.5 0.375 0.25 0.5 0.5 0.375 0.375 0.5 0.5 0.375 0.5 0.5 0.5 0.375 0.375 0.5 0.5 0.375 0.5 0.3772143 0 0.5 0 0.377348 0 0.8143821 0.7424721 0.75 1 0.75 0.871236 0.375 0 0.375 0.25 0.375 0 0.375 0.25 0.375 0 0.375 0.25 0.75 0.25 0.75 0 0.75 0.25 0.75 0 0.75 0.25 0.75 0 0.375 0.25 0.375 0.375 0.375 0.25 0.375 0.375 0.375 0.25 0.375 0.375 0.3172715 0.3750001 0.375 0.375 0.3173749 0.375 0.3194411 0.1388821 0.375 0.25 0.3144913 0.25 0.75 0 0.8143821 0.257528 0.8112251 0.3724501 0.3307324 0.3307324 0.375 0.375 0.3171482 0.375 0.8125 0.25 0.75 0.25 0.8125 0.25 0.75 0.25 0.8125 0.25 0.75 0.25 0.375 0.375 0.3307324 0.3307324 0.3144913 0.25 0.375 0.375 0.375 0.375 0.3172715 0.3750001 0.5 0 0.375 0.25 0.3194411 0.1388821 0.375 0.5 0.5 0.5 0.3840763 0.5 0.5 0.5 0.5 0.5 0.3855234 0.5 0.375 0 0.5 0 0.3772143 0 0 0 0.75 1 0.8143821 0.7424721 0.625 0.75 0.5 0.75 0.6246719 0.6253282 0.6868934 0.4995955 0.6556434 0.4370955 0.7491911 0.4994607 0.5625 0.25 0.5620956 0.3747304 0.375 0.25 0.5 0.75 0.6247064 0.5 0.6247064 0.625 0.375 0.5 0.3564852 0.5 0.375 0.5 0.75 0 0.8112251 0.3724501 0.75 0.25 0.8112251 0.3724501 0.8125 0.25 0.75 0.25 0.8125 0.25 0.75 0.4964922 0.75 0.25 0.375 0.375 0.3144913 0.25 0.375 0.25 0.375 0.375 0.3172715 0.3750001 0.3171482 0.375 0.5 0 0.3194411 0.1388821 0.377348 0 0.375 0.4911561 0.3173749 0.375 0.375 0.375 0.5 0.5 0.375 0.5 0.375 0.5 0.375 0.5 0.5 0.5 0.375 0.5 0.5 0.5 0.3855234 0.5 0.3840763 0.5 0.375 0 0.3772143 0 0.313538 0 0 0 0.8143821 0.7424721 0.4506739 0.257528 0.25 0.5 0.5 1 0.25 0.5 0.125 0.25 0 0 0.125 0.25 0.25 0.5 0.25 0.5 0.5 1 0 0 0.75 0.75 0.75 0.5732275 0.625 0.875 0.25 0.5 0.5 1 0.625 0.875 0.5 1 0.625 0.875 0.65625 0.84375 0.625 0.875 0.65625 0.84375 0.1875 0.375 0.625 0.875 0.65625 0.84375 0.1875 0.375 0.25 0.5 0.25 0.5 0.5 1 0.25 0.5 0.5 1 0.1875 0.375 0.25 0.5 0.1875 0.375 0.65625 0.25 0.5620956 0.3747304 0.5625 0.25 0.5 0.5 0.5620956 0.3747304 0.6245955 0.4997304 0.65625 0.75 0.6246719 0.6253282 0.6558399 0.5941602 0.625 0 0.375 0 0.5 0 0.625 0 0.6875 0 0.6875 0 0.5 0 0.625 0 0.625 0 0.6875 0 0.5625 0 0.65625 0 0.65625 0.84375 0.625 0.75 0.65625 0.75 0.375 0.25 0.5625 0.125 0.5625 0.25 0.65625 0.0625 0.5625 0 0.65625 0 0.625 0.875 0.65625 0.84375 0.65625 0.84375 0.625 0.875 0.1875 0.375 0.65625 0.84375 0.1875 0.375 0.25 0.5 0.1875 0.375 0.5 1 0.25 0.5 0.25 0.5 0.1875 0.375 0.25 0.5 0.25 0.5 0.65625 0.25 0.5620956 0.3747304 0.6556434 0.4370955 0.5 0.5 0.5620956 0.3747304 0.375 0.25 0.65625 0.75 0.6246719 0.6253282 0.625 0.75 0.375 0 0.625 0 0.5 0 0.6875 0 0.625 0 0.6875 0 0.5 0 0.625 0 0.625 0 0.5625 0 0.6875 0 0.65625 0 0.625 0.75 0.65625 0.84375 0.65625 0.75 0.375 0.25 0.5625 0.25 0.5625 0.125 0.5625 0 0.65625 0.0625 0.65625 0 0.75 0 0.65625 0 0.65625 0.0625 0.75 0 0.65625 0 0.6875 0 0.75 0 0.6875 0 0.75 0 0.75 0.75 0.6870079 0.5629922 0.6875 0.75 0.75 0.25 0.6556434 0.4370955 0.7491911 0.4994607 0 0 0.125 0.25 0.125 0.25 0 0 0.125 0.25 0 0 0.75 0.75 0.125 0.25 0 0 0.75 0.75 0.6875 0.8125 0.6875 0.8125 0.75 0 0.65625 0.0625 0.65625 0 0.75 0 0.6875 0 0.65625 0 0.6875 0 0.75 0 0.75 0 0.75 0.75 0.6870079 0.5629922 0.7493438 0.5006563 0.75 0.25 0.6556434 0.4370955 0.65625 0.25 0 0 0.125 0.25 0 0 0 0 0.125 0.25 0.125 0.25 0.75 0.75 0.125 0.25 0.6875 0.8125 0.75 0.75 0.6875 0.8125 0.6875 0.8125 0.1875 0.375 0.125 0.25 0.1875 0.375 0.6245955 0.4997304 0.6556434 0.4370955 0.6868934 0.4995955 0.6875 0 0.5625 0 0.625 0 0.625 0 0.6875 0 0.625 0 0.5625 0.125 0.65625 0.25 0.5625 0.25 0.1875 0.375 0.125 0.25 0.125 0.25 0.6557444 0.4996629 0.6556434 0.4370955 0.5620956 0.3747304 0.5625 0 0.6875 0 0.625 0 0.6875 0 0.625 0 0.625 0 0.65625 0.25 0.5625 0.125 0.5625 0.25 0.25 0.5 0.1875 0.375 0.1875 0.375 0.25 0.5 0.1875 0.375 0.25 0.5 0.6875 0.75 0.65625 0.75 0.65625 0.84375 0.6870079 0.5629922 0.65625 0.75 0.6875 0.75 0.125 0.25 0.1875 0.375 0.1875 0.375 0.125 0.25 0.1875 0.375 0.125 0.25 0.65625 0.84375 0.125 0.25 0.6875 0.8125 0.65625 0.84375 0.6875 0.8125 0.6875 0.8125 0.6875 0.8125 0.65625 0.84375 0.65625 0.75 0.65625 0.75 0.6870079 0.5629922 0.6875 0.75 0.125 0.25 0.1875 0.375 0.125 0.25 0.125 0.25 0.1875 0.375 0.1875 0.375 0.125 0.25 0.65625 0.84375 0.6875 0.8125 0.6875 0.8125 0.65625 0.84375 0.6875 0.8125 0.375 0 0.375 0.25 0.5625 0.125 0.75 0.25 0.75 0 0.65625 0.0625 0.625 0.75 0.5 0.75 0.5 1 0.375 0 0.5 0 0.625 0 0.75 0 0.75 0 0.6875 0 0.6247064 0.5 0.5 0.5 0.5 0.75 0.5 1 0.5 1 0.625 0.875 0.5625 0.125 0.375 0.25 0.375 0 0.65625 0.0625 0.75 0 0.75 0.25 0.5 1 0.5 0.75 0.625 0.75 0.625 0 0.5 0 0.375 0 0.6875 0 0.75 0 0.75 0 0.5 0.75 0.5 0.5 0.6247064 0.5 0.625 0.875 0.5 1 0.5 1 0.65625 0.84375 0.625 0.875 0.625 0.875 0.1875 0.375 0.25 0.5 0.625 0.875 0.1875 0.375 0.1875 0.375 0.25 0.5 0.5 1 0.25 0.5 0.25 0.5 0.1875 0.375 0.25 0.5 0.25 0.5 0.65625 0.25 0.6556434 0.4370955 0.5620956 0.3747304 0.5 0.5 0.375 0.25 0.5620956 0.3747304 0.65625 0.75 0.625 0.75 0.6246719 0.6253282 0.625 0 0.5625 0 0.375 0 0.625 0 0.625 0 0.6875 0 0.6875 0 0.625 0 0.5625 0 0.65625 0.84375 0.625 0.875 0.625 0.75 0.65625 0.0625 0.5625 0.125 0.5625 0 0.625 0.875 0.625 0.875 0.65625 0.84375 0.625 0.875 0.25 0.5 0.1875 0.375 0.1875 0.375 0.25 0.5 0.25 0.5 0.5 1 0.5 1 0.25 0.5 0.1875 0.375 0.1875 0.375 0.25 0.5 0.65625 0.25 0.5625 0.25 0.5620956 0.3747304 0.5 0.5 0.6245955 0.4997304 0.5620956 0.3747304 0.65625 0.75 0.6558399 0.5941602 0.6246719 0.6253282 0.375 0 0.5625 0 0.625 0 0.6875 0 0.625 0 0.625 0 0.5625 0 0.625 0 0.6875 0 0.625 0.75 0.625 0.875 0.65625 0.84375 0.5625 0 0.5625 0.125 0.65625 0.0625 0.75 0 0.6875 0 0.6875 0 0.75 0.75 0.7493438 0.5006563 0.6870079 0.5629922 0.75 0.25 0.65625 0.25 0.6556434 0.4370955 0 0 0 0 0.125 0.25 0 0 0.125 0.25 0.125 0.25 0.75 0.75 0.6875 0.8125 0.125 0.25 0.6875 0 0.6875 0 0.75 0 0.75 0.75 0.6875 0.75 0.6870079 0.5629922 0.75 0.25 0.7491911 0.4994607 0.6556434 0.4370955 0 0 0.125 0.25 0.125 0.25 0 0 0 0 0.125 0.25 0.75 0.75 0 0 0.125 0.25 0.1875 0.375 0.125 0.25 0.125 0.25 0.6245955 0.4997304 0.5620956 0.3747304 0.6556434 0.4370955 0.6875 0 0.65625 0 0.5625 0 0.625 0 0.6875 0 0.6875 0 0.5625 0.125 0.65625 0.0625 0.65625 0.25 0.1875 0.375 0.1875 0.375 0.125 0.25 0.6557444 0.4996629 0.6868934 0.4995955 0.6556434 0.4370955 0.5625 0 0.65625 0 0.6875 0 0.6875 0 0.6875 0 0.625 0 0.65625 0.25 0.65625 0.0625 0.5625 0.125 0.25 0.5 0.25 0.5 0.1875 0.375 0.25 0.5 0.1875 0.375 0.1875 0.375 0.6870079 0.5629922 0.6558399 0.5941602 0.65625 0.75 0.125 0.25 0.125 0.25 0.1875 0.375 0.125 0.25 0.1875 0.375 0.1875 0.375 0.65625 0.84375 0.1875 0.375 0.125 0.25 0.65625 0.84375 0.65625 0.84375 0.6875 0.8125 0.65625 0.75 0.6558399 0.5941602 0.6870079 0.5629922 0.125 0.25 0.1875 0.375 0.1875 0.375 0.125 0.25 0.125 0.25 0.1875 0.375 0.125 0.25 0.1875 0.375 0.65625 0.84375 0.6875 0.8125 0.65625 0.84375 0.65625 0.84375</float_array>
          <technique_common>
            <accessor source="#generic_car_parametrized_001-mesh-map-0-array" count="834" stride="2">
              <param name="S" type="float"/>
              <param name="T" type="float"/>
            </accessor>
          </technique_common>
        </source>
        <vertices id="generic_car_parametrized_001-mesh-vertices">
          <input semantic="POSITION" source="#generic_car_parametrized_001-mesh-positions"/>
        </vertices>
        <triangles material="generic_car_parametrized-material" count="278">
          <input semantic="VERTEX" source="#generic_car_parametrized_001-mesh-vertices" offset="0"/>
          <input semantic="NORMAL" source="#generic_car_parametrized_001-mesh-normals" offset="1"/>
          <input semantic="TEXCOORD" source="#generic_car_parametrized_001-mesh-map-0" offset="2" set="0"/>
          <p>18 0 0 33 1 1 35 2 2 2 3 3 90 4 4 91 5 5 4 6 6 135 7 7 136 8 8 94 9 9 6 10 10 93 11 11 12 12 12 10 13 13 11 14 14 11 14 15 13 15 16 12 12 17 25 16 18 37 17 19 14 18 20 1 19 21 95 19 22 89 19 23 16 20 24 137 20 25 138 20 26 14 21 27 12 12 28 13 15 29 13 15 30 15 22 31 14 21 32 42 23 33 40 24 34 8 25 35 13 15 36 11 14 37 6 26 38 6 26 39 7 27 40 13 15 41 23 28 42 35 29 43 34 30 44 97 31 45 96 31 46 17 31 47 139 32 48 119 32 49 3 32 50 15 22 51 13 15 52 7 27 53 7 27 54 9 33 55 15 22 56 5 34 57 19 35 58 9 36 59 15 37 60 9 38 61 18 39 62 19 35 63 18 0 64 9 36 65 32 40 66 31 40 67 17 40 68 43 41 69 39 41 70 0 41 71 2 42 72 17 43 73 20 44 74 20 44 75 5 45 76 2 42 77 4 46 78 21 46 79 16 46 80 16 47 81 3 47 82 4 47 83 5 45 84 20 44 85 22 48 86 22 48 87 19 49 88 5 45 89 26 50 90 33 50 91 19 50 92 29 51 93 27 51 94 20 51 95 16 51 96 45 51 97 44 51 98 28 51 99 30 51 100 22 51 101 47 52 102 46 53 103 21 54 104 21 54 105 4 55 106 47 52 107 22 51 108 27 51 109 28 51 110 22 56 111 26 56 112 19 56 113 17 57 114 29 57 115 20 57 116 34 30 117 36 58 118 15 37 119 15 37 120 25 16 121 14 18 122 1 59 123 32 59 124 17 59 125 16 60 126 43 60 127 0 60 128 94 9 129 98 61 130 7 62 131 121 63 132 40 64 133 122 65 134 92 66 135 5 34 136 99 67 137 151 68 138 7 62 139 98 61 140 23 28 141 18 39 142 35 29 143 16 69 144 21 69 145 45 69 146 45 70 147 21 70 148 46 70 149 47 71 150 4 6 151 40 64 152 22 51 153 20 51 154 27 51 155 22 72 156 30 72 157 26 72 158 17 51 159 31 51 160 29 51 161 18 0 162 19 35 163 33 1 164 15 37 165 18 39 166 23 28 167 23 28 168 34 30 169 15 37 170 15 37 171 36 58 172 25 16 173 1 73 174 24 73 175 32 73 176 16 74 177 44 74 178 43 74 179 100 75 180 101 76 181 10 77 182 125 78 183 124 79 184 48 80 185 103 81 186 11 82 187 102 83 188 41 84 189 42 23 190 8 25 191 104 85 192 11 82 193 103 81 194 6 10 195 104 85 196 93 11 197 62 86 198 78 87 199 76 88 200 105 89 201 49 90 202 106 91 203 141 92 204 51 93 205 142 94 206 53 95 207 109 96 208 108 97 209 12 12 210 57 98 211 10 13 212 57 98 213 12 12 214 58 99 215 68 100 216 14 18 217 37 17 218 117 101 219 1 101 220 89 101 221 146 20 222 60 20 223 143 20 224 14 21 225 58 99 226 12 12 227 58 99 228 14 21 229 59 102 230 82 103 231 55 104 232 80 105 233 58 99 234 53 106 235 57 98 236 53 106 237 58 99 238 54 107 239 67 108 240 77 109 241 78 110 242 111 31 243 61 31 244 110 31 245 144 32 246 50 32 247 127 32 248 59 102 249 54 107 250 58 99 251 54 107 252 59 102 253 56 111 254 52 112 255 56 113 256 63 114 257 59 115 258 62 116 259 56 117 260 63 114 261 56 113 262 62 86 263 75 40 264 61 40 265 74 40 266 83 41 267 0 41 268 39 41 269 49 42 270 64 44 271 61 43 272 64 44 273 49 42 274 52 45 275 51 46 276 60 46 277 65 46 278 60 47 279 51 47 280 50 47 281 52 45 282 66 48 283 64 44 284 66 48 285 52 45 286 63 49 287 69 118 288 63 118 289 76 118 290 72 119 291 64 119 292 70 119 293 60 119 294 84 119 295 85 119 296 71 119 297 66 119 298 73 119 299 87 52 300 65 54 301 86 53 302 65 54 303 87 52 304 51 55 305 66 119 306 71 119 307 70 119 308 66 56 309 63 56 310 69 56 311 61 120 312 64 120 313 72 120 314 77 109 315 59 115 316 79 121 317 59 115 318 14 18 319 68 100 320 1 122 321 61 122 322 75 122 323 60 60 324 0 60 325 83 60 326 109 96 327 54 123 328 112 124 329 129 125 330 130 126 331 80 127 332 107 128 333 113 129 334 52 112 335 54 123 336 158 130 337 112 124 338 67 108 339 78 110 340 62 116 341 60 131 342 85 131 343 65 131 344 85 132 345 86 132 346 65 132 347 87 133 348 80 127 349 51 93 350 66 119 351 70 119 352 64 119 353 66 134 354 69 134 355 73 134 356 61 119 357 72 119 358 74 119 359 62 86 360 76 88 361 63 114 362 59 115 363 67 108 364 62 116 365 67 108 366 59 115 367 77 109 368 59 115 369 68 100 370 79 121 371 1 135 372 75 135 373 24 135 374 60 74 375 83 74 376 84 74 377 100 75 378 10 77 379 118 136 380 131 137 381 88 138 382 133 139 383 115 81 384 114 83 385 57 140 386 81 141 387 55 104 388 82 103 389 116 142 390 115 81 391 57 140 392 116 142 393 53 95 394 108 97 395 148 143 396 108 144 397 156 145 398 160 146 399 116 147 400 148 143 401 160 146 402 114 147 403 115 148 404 57 140 405 118 136 406 10 77 407 152 147 408 118 147 409 161 149 410 142 94 411 113 129 412 107 128 413 56 113 414 113 129 415 158 130 416 157 150 417 112 151 418 158 152 419 111 153 420 49 153 421 61 153 422 111 40 423 143 40 424 144 40 425 61 154 426 117 154 427 110 154 428 146 155 429 89 155 430 134 155 431 156 145 432 109 156 433 157 150 434 52 112 435 105 89 436 107 128 437 141 92 438 106 91 439 127 157 440 93 158 441 147 159 442 149 160 443 104 147 444 155 143 445 147 159 446 155 143 447 102 148 448 154 161 449 11 82 450 101 76 451 102 83 452 152 147 453 101 147 454 100 162 455 136 8 456 99 67 457 122 65 458 9 36 459 99 67 460 5 34 461 150 163 462 98 164 463 94 165 464 2 154 465 97 154 466 17 154 467 138 40 468 97 40 469 139 40 470 17 154 471 96 154 472 95 154 473 89 155 474 137 155 475 134 155 476 94 165 477 149 160 478 150 163 479 5 34 480 92 66 481 90 4 482 91 5 483 135 7 484 119 166 485 3 167 486 119 166 487 135 7 488 0 168 489 134 168 490 137 168 491 16 169 492 139 169 493 3 169 494 8 25 495 121 170 496 120 171 497 4 6 498 122 65 499 40 64 500 38 172 501 124 79 502 123 173 503 41 84 504 125 78 505 48 80 506 8 25 507 126 174 508 41 84 509 8 25 510 120 171 511 140 175 512 50 176 513 141 92 514 127 157 515 0 168 516 146 168 517 134 168 518 144 169 519 60 169 520 50 169 521 55 104 522 129 177 523 80 105 524 51 93 525 130 126 526 142 94 527 38 172 528 133 139 529 88 138 530 81 141 531 131 137 532 132 178 533 55 104 534 132 178 535 145 179 536 55 104 537 145 179 538 128 180 539 159 181 540 133 139 541 161 181 542 158 130 543 130 126 544 129 125 545 144 40 546 106 40 547 111 40 548 117 40 549 143 40 550 110 40 551 105 89 552 142 94 553 107 128 554 154 181 555 124 79 556 125 78 557 151 68 558 122 65 559 99 67 560 91 40 561 139 40 562 97 40 563 138 40 564 95 40 565 96 40 566 136 8 567 90 4 568 92 66 569 102 148 570 153 149 571 154 161 572 114 147 573 161 149 574 118 147 575 120 171 576 150 182 577 149 183 578 121 170 579 150 182 580 120 171 581 123 173 582 153 181 583 152 181 584 126 174 585 154 181 586 125 78 587 147 184 588 126 174 589 140 175 590 149 183 591 140 175 592 120 171 593 128 180 594 156 185 595 157 186 596 157 186 597 129 177 598 128 180 599 123 173 600 161 181 601 133 139 602 132 178 603 159 181 604 160 184 605 132 178 606 148 184 607 145 179 608 145 179 609 156 185 610 128 180 611 2 3 612 5 34 613 90 4 614 4 6 615 3 167 616 135 7 617 94 9 618 7 62 619 6 10 620 1 187 621 17 187 622 95 187 623 16 188 624 0 188 625 137 188 626 151 68 627 9 36 628 7 62 629 6 10 630 11 82 631 104 85 632 105 89 633 52 112 634 49 90 635 141 92 636 50 176 637 51 93 638 53 95 639 54 123 640 109 96 641 117 189 642 61 189 643 1 189 644 146 190 645 0 190 646 60 190 647 54 123 648 56 113 649 158 130 650 116 142 651 57 140 652 53 95 653 148 143 654 116 147 655 108 144 656 160 146 657 115 148 658 116 147 659 160 146 660 159 161 661 114 147 662 57 140 663 114 83 664 118 136 665 152 147 666 100 162 667 118 147 668 142 94 669 130 126 670 113 129 671 56 113 672 52 112 673 113 129 674 157 150 675 109 156 676 112 151 677 111 31 678 106 31 679 49 31 680 111 40 681 110 40 682 143 40 683 146 191 684 117 191 685 89 191 686 156 145 687 108 144 688 109 156 689 141 92 690 105 89 691 106 91 692 93 158 693 104 147 694 147 159 695 104 147 696 103 192 697 155 143 698 155 143 699 103 192 700 102 148 701 11 82 702 10 77 703 101 76 704 152 147 705 153 149 706 101 147 707 136 8 708 92 66 709 99 67 710 9 36 711 151 68 712 99 67 713 150 163 714 151 193 715 98 164 716 2 31 717 91 31 718 97 31 719 138 40 720 96 40 721 97 40 722 89 194 723 95 194 724 137 194 725 94 165 726 93 158 727 149 160 728 91 5 729 90 4 730 135 7 731 16 195 732 138 195 733 139 195 734 8 25 735 40 24 736 121 170 737 4 6 738 136 8 739 122 65 740 38 172 741 48 80 742 124 79 743 41 84 744 126 174 745 125 78 746 8 25 747 140 175 748 126 174 749 144 195 750 143 195 751 60 195 752 55 104 753 128 180 754 129 177 755 51 93 756 80 127 757 130 126 758 38 172 759 123 173 760 133 139 761 81 141 762 88 138 763 131 137 764 55 104 765 81 141 766 132 178 767 159 181 768 131 137 769 133 139 770 158 130 771 113 129 772 130 126 773 144 40 774 127 40 775 106 40 776 117 40 777 146 40 778 143 40 779 105 89 780 141 92 781 142 94 782 154 181 783 153 181 784 124 79 785 151 68 786 121 63 787 122 65 788 91 40 789 119 40 790 139 40 791 138 40 792 137 40 793 95 40 794 136 8 795 135 7 796 90 4 797 102 148 798 101 147 799 153 149 800 114 147 801 159 161 802 161 149 803 121 170 804 151 196 805 150 182 806 123 173 807 124 79 808 153 181 809 126 174 810 155 184 811 154 181 812 147 184 813 155 184 814 126 174 815 149 183 816 147 184 817 140 175 818 157 186 819 158 197 820 129 177 821 123 173 822 152 181 823 161 181 824 132 178 825 131 137 826 159 181 827 132 178 828 160 184 829 148 184 830 145 179 831 148 184 832 156 185 833</p>
        </triangles>
      </mesh>
    </geometry>
  </library_geometries>
  <library_visual_scenes>
    <visual_scene id="Scene" name="Scene">
      <node id="template_car_pickup_middle" name="template_car_pickup_middle" type="NODE">
        <matrix sid="transform">0.01 0 0 0 0 0.01 0 1.25 0 0 0.01 0 0 0 0 1</matrix>
        <instance_geometry url="#generic_car_parametrized_001-mesh" name="template_car_pickup_middle">
          <bind_material>
            <technique_common>
              <instance_material symbol="generic_car_parametrized-material" target="#generic_car_parametrized-material">
                <bind_vertex_input semantic="generic_car_01a_004-mesh-map-0" input_semantic="TEXCOORD" input_set="0"/>
              </instance_material>
            </technique_common>
          </bind_material>
        </instance_geometry>
      </node>
    </visual_scene>
  </library_visual_scenes>
  <scene>
    <instance_visual_scene url="#Scene"/>
  </scene>
</COLLADA>