<?xml version="1.0" encoding="utf-8"?>
<COLLADA xmlns="http://www.collada.org/2005/11/COLLADASchema" version="1.4.1" xmlns:xsi="http://www.w3.org/2001/XMLSchema-instance">
  <asset>
    <contributor>
      <author>Blender User</author>
      <authoring_tool>Blender 4.4.3 commit date:2025-04-29, commit time:14:09, hash:802179c51ccc</authoring_tool>
    </contributor>
    <created>2025-11-05T14:21:17</created>
    <modified>2025-11-05T14:21:17</modified>
    <unit name="meter" meter="1"/>
    <up_axis>Z_UP</up_axis>
  </asset>
  <library_effects>
    <effect id="generic_car_parametrized-effect">
      <profile_COMMON>
        <technique sid="common">
          <lambert>
            <emission>
              <color sid="emission">0 0 0 1</color>
            </emission>
            <diffuse>
              <color sid="diffuse">0.588294 0.001998425 0.01040506 1</color>
            </diffuse>
            <reflectivity>
              <float sid="specular">0.4145078</float>
            </reflectivity>
            <index_of_refraction>
              <float sid="ior">1.5</float>
            </index_of_refraction>
          </lambert>
        </technique>
      </profile_COMMON>
    </effect>
  </library_effects>
  <library_images/>
  <library_materials>
    <material id="generic_car_parametrized-material" name="generic_car_parametrized">
      <instance_effect url="#generic_car_parametrized-effect"/>
    </material>
  </library_materials>
  <library_geometries>
    <geometry id="generic_car_parametrized-mesh" name="generic_car_parametrized">
      <mesh>
        <source id="generic_car_parametrized-mesh-positions">
          <float_array id="generic_car_parametrized-mesh-positions-array" count="147">0 194.9188 -0.01616096 0 165.312 65.5 0 160.5668 -0.01615142 -81.18331 190.2034 32.91927 -75.83079 182.0052 65.50001 -77.8068 153.7311 64.89862 -85.08949 158.3689 32.91927 0 195.4981 32.91927 -47.33335 193.8087 32.91927 -45.64046 193.2293 -0.01616096 0 187.1176 65.50001 -45.56218 185.4281 65.50001 -45.56217 163.3925 65.5 -77.60053 189.624 -0.01616096 -78.65132 160.5668 -0.01615142 -45.64046 160.5668 -0.01615142 -45.64046 158.3689 32.91927 -19.82597 125.024 65.5 -85.43879 125.3913 45.08662 -45.72475 125.3924 44.99303 -45.64046 125.7242 16.78748 -45.64046 125.9219 -0.01615142 -23.50739 125.9219 -0.01615142 -53.35829 125.0709 65.5 -44.0819 125.0426 65.5 0 125.9219 -0.01615142 0 125.0073 65.5 -79.63381 125.152 65.3926 81.18331 190.2034 32.91927 75.83079 182.0052 65.50001 77.8068 153.7311 64.89862 85.08949 158.3689 32.91927 47.33335 193.8087 32.91927 45.64046 193.2293 -0.01616096 45.56218 185.4281 65.50001 45.56217 163.3925 65.5 77.60053 189.624 -0.01616096 78.65132 160.5668 -0.01615142 45.64046 160.5668 -0.01615142 45.64046 158.3689 32.91927 19.82597 125.024 65.5 85.43879 125.3913 45.08662 45.72475 125.3924 44.99303 45.64046 125.7242 16.78748 45.64046 125.9219 -0.01615142 23.50739 125.9219 -0.01615142 53.35829 125.0709 65.5 44.0819 125.0426 65.5 79.63381 125.152 65.3926</float_array>
          <technique_common>
            <accessor source="#generic_car_parametrized-mesh-positions-array" count="49" stride="3">
              <param name="X" type="float"/>
              <param name="Y" type="float"/>
              <param name="Z" type="float"/>
            </accessor>
          </technique_common>
        </source>
        <source id="generic_car_parametrized-mesh-normals">
          <float_array id="generic_car_parametrized-mesh-normals-array" count="186">-0.97329 0.09030759 0.2110712 -0.9921239 0.1217356 0.02950686 -0.9914295 0.09204262 0.09271425 -0.9676985 0.07501429 0.240692 0 0.9931941 0.1164711 0 0.9998454 -0.01758879 -0.07296854 0.997115 -0.02091288 -0.07283908 0.9905612 0.1161165 -0.07114565 0.9651755 0.2517434 0 0.9684737 0.2491159 1.68943e-7 -3.49882e-7 1 0 -3.4623e-7 1 -0.1089085 0.9937073 -0.02617073 -0.1052075 0.9878129 0.1147044 -0.1055029 0.9609419 0.2558516 0 -2.91978e-7 -1 0 -3.28206e-7 -1 -0.9855386 0.07717579 -0.1508561 -0.9812499 0.03548491 -0.1894453 0 -2.91979e-7 -1 0 -2.77618e-7 -1 -0.01253658 -0.02038758 0.9997137 -1.37263e-7 -3.4623e-7 1 0 0 -1 -0.002201497 -0.3461275 -0.938185 0 -0.9977807 -0.0665856 0 -0.9977807 -0.06658554 -0.9999945 -0.001449525 -0.003005564 -0.9999966 0.002620279 1.74854e-4 0 -0.343812 -0.9390385 -1 0 0 -0.9636525 0.08169329 0.2543625 -0.9591761 0.06607204 0.2749835 0 0 1 -0.01985716 0.004039704 0.9997947 0.97329 0.09030759 0.2110712 0.9914295 0.09204262 0.09271425 0.9921239 0.1217356 0.02950686 0.9676985 0.07501429 0.240692 0.07296854 0.997115 -0.02091288 0.07283908 0.9905612 0.1161165 0.07114565 0.9651755 0.2517434 -1.68943e-7 -3.49882e-7 1 0 -3.4623e-7 1 0.1089085 0.9937073 -0.02617073 0.1052075 0.9878129 0.1147044 0.1055029 0.9609419 0.2558516 0 -2.91978e-7 -1 0.9855386 0.07717579 -0.1508561 0.9812499 0.03548491 -0.1894453 0 -2.77618e-7 -1 0.01253658 -0.02038758 0.9997137 1.37263e-7 -3.4623e-7 1 0.002201497 -0.3461275 -0.938185 0.9999945 -0.001449525 -0.003005564 0.9999966 0.002620279 1.74854e-4 1 0 0 0.9636525 0.08169329 0.2543625 0.9591761 0.06607204 0.2749835 0.01985716 0.004039704 0.9997947 0.004032373 0.01753962 0.9998381 -0.004032254 0.01753962 0.9998381</float_array>
          <technique_common>
            <accessor source="#generic_car_parametrized-mesh-normals-array" count="62" stride="3">
              <param name="X" type="float"/>
              <param name="Y" type="float"/>
              <param name="Z" type="float"/>
            </accessor>
          </technique_common>
        </source>
        <source id="generic_car_parametrized-mesh-map-0">
          <float_array id="generic_car_parametrized-mesh-map-0-array" count="456">1 0.5 1 0.25 0.8750001 0.25 0.8750001 0.25 0.262655 0.1007059 1 0.5 1 0.25 1 0 1 0 1 0 1 0.25 1 0.25 1 0.25 1 0.25 1 0.5 1 0.5 1 0.5 1 0.25 0.8750001 0.5 1 0.5 1 0.5 1 0.5 0.8750001 0.5 0.8750001 0.5 1 0.25 1 0 1 0 1 0 1 0.25 1 0.25 1 0.5 1 0.5 1 0.25 1 0.25 1 0.25 1 0.5 1 0 1 0 0.8750001 0 0.8750001 0 0.8750001 0 1 0 1 0 0.8750001 0 0.8750001 0.25 0.8750001 0.25 1 0.25 1 0 0.8750001 0 0.8750001 0 1 0 1 0 1 0 0.8750001 0 1 0.5 0.262655 0.1007059 0.8750001 0.5 0.8750001 0.5 1 0.5 1 0.5 0.8143821 0.7424721 0.4506739 0.257528 0.8750001 0.5 0.8126335 0.25 0.8126335 0.25 0.8750001 0.25 0.8750001 0 0.8750001 0 0.8750001 0.25 0.8750001 0.25 0.8750001 0.25 0.8750001 0 0.8750001 0.5 0.8112251 0.3724501 0.8126266 0.2505063 0.8126266 0.2505063 0.8750001 0.25 0.8750001 0.5 0.8750001 0.25 0.8126335 0.25 0.8750001 0.25 0.8750001 0.5 0.8143821 0.257528 0.8112251 0.3724501 0.75 0.75 0.8143821 0.7424721 0.8750001 0.5 0.262655 0.1007059 0.8750001 0.25 0.8126335 0.25 0.75 0.75 0.75 0.871236 0.8143821 0.7424721 0.8126335 0.25 0 0 0.262655 0.1007059 0 0 0 0 0 0 0 0 0.262655 0.1007059 0 0 0 0 0 0 0 0 0 0 0 0 0.8750001 0.5 0 0 0 0 0.8750001 0.5 1 0.5 0.8750001 0.25 1 0.25 0.8750001 0.25 1 0.5 0.262655 0.1007059 1 0.25 1 0 1 0 1 0 1 0.25 1 0.25 1 0.25 1 0.5 1 0.25 1 0.5 1 0.25 1 0.5 0.8750001 0.5 1 0.5 1 0.5 1 0.5 0.8750001 0.5 0.8750001 0.5 1 0.25 1 0 1 0 1 0 1 0.25 1 0.25 1 0.5 1 0.25 1 0.5 1 0.25 1 0.5 1 0.25 1 0 0.8750001 0 1 0 0.8750001 0 1 0 0.8750001 0 1 0 0.8750001 0.25 0.8750001 0 0.8750001 0.25 1 0 1 0.25 0.8750001 0 1 0 0.8750001 0 1 0 0.8750001 0 1 0 1 0.5 0.8750001 0.5 0.262655 0.1007059 0.8750001 0.5 1 0.5 1 0.5 0.8143821 0.7424721 0.8750001 0.5 0.4506739 0.257528 0.8126335 0.25 0.8750001 0.25 0.8126335 0.25 0.8750001 0 0.8750001 0.25 0.8750001 0 0.8750001 0.25 0.8750001 0 0.8750001 0.25 0.8750001 0.5 0.8126266 0.2505063 0.8112251 0.3724501 0.8126266 0.2505063 0.8750001 0.5 0.8750001 0.25 0.8750001 0.25 0.8750001 0.25 0.8126335 0.25 0.8750001 0.5 0.8112251 0.3724501 0.8143821 0.257528 0.75 0.75 0.8750001 0.5 0.8143821 0.7424721 0.262655 0.1007059 0.8126335 0.25 0.8750001 0.25 0.75 0.75 0.8143821 0.7424721 0.75 0.871236 0.8126335 0.25 0.262655 0.1007059 0 0 0 0 0 0 0 0 0 0 0 0 0.262655 0.1007059 0 0 0 0 0 0 0 0 0.8750001 0.5 0 0 0 0 0.8750001 0.5 0 0 0.262655 0.1007059 0 0 0 0 0 0 0.262655 0.1007059 0 0</float_array>
          <technique_common>
            <accessor source="#generic_car_parametrized-mesh-map-0-array" count="228" stride="2">
              <param name="S" type="float"/>
              <param name="T" type="float"/>
            </accessor>
          </technique_common>
        </source>
        <vertices id="generic_car_parametrized-mesh-vertices">
          <input semantic="POSITION" source="#generic_car_parametrized-mesh-positions"/>
        </vertices>
        <triangles material="generic_car_parametrized-material" count="76">
          <input semantic="VERTEX" source="#generic_car_parametrized-mesh-vertices" offset="0"/>
          <input semantic="NORMAL" source="#generic_car_parametrized-mesh-normals" offset="1"/>
          <input semantic="TEXCOORD" source="#generic_car_parametrized-mesh-map-0" offset="2" set="0"/>
          <p>4 0 0 3 1 1 6 2 2 6 2 3 5 3 4 4 0 5 7 4 6 0 5 7 9 6 8 9 6 9 8 7 10 7 4 11 7 4 12 8 7 13 11 8 14 11 8 15 10 9 16 7 4 17 1 10 18 10 10 19 11 10 20 11 11 21 12 11 22 1 11 23 8 7 24 9 6 25 13 12 26 13 12 27 3 13 28 8 7 29 4 14 30 11 8 31 8 7 32 8 7 33 3 13 34 4 14 35 13 15 36 9 15 37 15 15 38 15 16 39 14 16 40 13 16 41 13 17 42 14 18 43 6 2 44 6 2 45 3 1 46 13 17 47 2 19 48 15 19 49 9 19 50 9 20 51 0 20 52 2 20 53 4 21 54 5 21 55 12 21 56 12 22 57 11 22 58 4 22 59 22 23 60 21 23 61 15 23 62 19 24 63 18 24 64 6 24 65 14 25 66 15 25 67 16 25 68 16 26 69 6 26 70 14 26 71 15 27 72 20 27 73 19 27 74 19 28 75 16 28 76 15 28 77 16 29 78 19 29 79 6 29 80 15 30 81 21 30 82 20 30 83 2 23 84 22 23 85 15 23 86 5 3 87 6 2 88 18 31 89 2 23 90 25 23 91 22 23 92 18 31 93 27 32 94 5 3 95 23 33 96 24 33 97 12 33 98 12 34 99 5 34 100 23 34 101 17 33 102 12 33 103 24 33 104 12 33 105 17 33 106 1 33 107 17 33 108 26 33 109 1 33 110 29 35 111 31 36 112 28 37 113 31 36 114 29 35 115 30 38 116 7 4 117 33 39 118 0 5 119 33 39 120 7 4 121 32 40 122 7 4 123 34 41 124 32 40 125 34 41 126 7 4 127 10 9 128 1 42 129 34 42 130 10 42 131 34 43 132 1 43 133 35 43 134 32 40 135 36 44 136 33 39 137 36 44 138 32 40 139 28 45 140 29 46 141 32 40 142 34 41 143 32 40 144 29 46 145 28 45 146 36 47 147 38 47 148 33 47 149 38 16 150 36 16 151 37 16 152 36 48 153 31 36 154 37 49 155 31 36 156 36 48 157 28 37 158 2 19 159 33 19 160 38 19 161 33 50 162 2 50 163 0 50 164 29 51 165 35 51 166 30 51 167 35 52 168 29 52 169 34 52 170 45 23 171 38 23 172 44 23 173 42 53 174 31 53 175 41 53 176 37 25 177 39 25 178 38 25 179 39 26 180 37 26 181 31 26 182 38 54 183 42 54 184 43 54 185 42 55 186 38 55 187 39 55 188 39 29 189 31 29 190 42 29 191 38 56 192 43 56 193 44 56 194 2 23 195 38 23 196 45 23 197 30 38 198 41 57 199 31 36 200 2 23 201 45 23 202 25 23 203 41 57 204 30 38 205 48 58 206 46 33 207 35 33 208 47 33 209 35 59 210 46 59 211 30 59 212 40 33 213 47 33 214 35 33 215 35 33 216 1 33 217 40 33 218 40 33 219 1 33 220 26 33 221 30 60 222 46 60 223 48 60 224 23 61 225 5 61 226 27 61 227</p>
        </triangles>
      </mesh>
    </geometry>
  </library_geometries>
  <library_visual_scenes>
    <visual_scene id="Scene" name="Scene">
      <node id="template_car_pickup_rear" name="template_car_pickup_rear" type="NODE">
        <matrix sid="transform">0.01 0 0 0 0 0.01 0 1.25 0 0 0.01 0 0 0 0 1</matrix>
        <instance_geometry url="#generic_car_parametrized-mesh" name="template_car_pickup_rear">
          <bind_material>
            <technique_common>
              <instance_material symbol="generic_car_parametrized-material" target="#generic_car_parametrized-material">
                <bind_vertex_input semantic="generic_car_01a_003-mesh-map-0" input_semantic="TEXCOORD" input_set="0"/>
              </instance_material>
            </technique_common>
          </bind_material>
        </instance_geometry>
      </node>
    </visual_scene>
  </library_visual_scenes>
  <scene>
    <instance_visual_scene url="#Scene"/>
  </scene>
</COLLADA>