<?xml version="1.0" encoding="utf-8"?>
<COLLADA xmlns="http://www.collada.org/2005/11/COLLADASchema" version="1.4.1" xmlns:xsi="http://www.w3.org/2001/XMLSchema-instance">
  <asset>
    <contributor>
      <author>Blender User</author>
      <authoring_tool>Blender 4.4.3 commit date:2025-04-29, commit time:14:09, hash:802179c51ccc</authoring_tool>
    </contributor>
    <created>2025-11-05T14:21:35</created>
    <modified>2025-11-05T14:21:35</modified>
    <unit name="meter" meter="1"/>
    <up_axis>Z_UP</up_axis>
  </asset>
  <library_effects>
    <effect id="generic_car_parametrized-effect">
      <profile_COMMON>
        <technique sid="common">
          <lambert>
            <emission>
              <color sid="emission">0 0 0 1</color>
            </emission>
            <diffuse>
              <color sid="diffuse">0.588294 0.001998425 0.01040506 1</color>
            </diffuse>
            <reflectivity>
              <float sid="specular">0.4145078</float>
            </reflectivity>
            <index_of_refraction>
              <float sid="ior">1.5</float>
            </index_of_refraction>
          </lambert>
        </technique>
      </profile_COMMON>
    </effect>
  </library_effects>
  <library_images/>
  <library_materials>
    <material id="generic_car_parametrized-material" name="generic_car_parametrized">
      <instance_effect url="#generic_car_parametrized-effect"/>
    </material>
  </library_materials>
  <library_geometries>
    <geometry id="generic_car_01a_007-mesh" name="generic_car_01a.007">
      <mesh>
        <source id="generic_car_01a_007-mesh-positions">
          <float_array id="generic_car_01a_007-mesh-positions-array" count="168">0 194.9188 -0.01616096 77.60053 189.624 -0.01616096 81.18331 194.0077 32.91927 77.44395 183.9334 65.85471 45.64046 193.2293 -0.01616096 47.33335 197.6129 32.91927 45.56218 187.5387 65.85471 45.56217 131.5032 65.85471 0 153.3643 65.85471 0 160.5668 -0.01615142 85.08949 158.3689 32.91927 78.49475 146.7007 65.85471 78.65132 160.5668 -0.01615142 45.56217 151.4448 65.85471 45.64046 160.5668 -0.01615142 45.64046 158.3689 32.91927 -81.18331 194.0077 32.91927 -77.44395 183.9334 65.85471 -78.49475 146.7007 65.85471 -85.08949 158.3689 32.91927 0 199.3024 32.91927 -47.33335 197.6129 32.91927 -45.64046 193.2293 -0.01616096 0 189.2282 65.85471 -45.56218 187.5387 65.85471 -45.56217 151.4448 65.85471 0 133.6528 65.85471 -45.56217 131.5032 65.85471 -77.60053 189.624 -0.01616096 -78.65132 160.5668 -0.01615142 -45.64046 160.5668 -0.01615142 -45.64046 158.3689 32.91927 44.0819 125.0426 74.72497 79.32509 125.1392 66.51524 85.43879 125.3913 45.08662 45.64046 125.9219 -0.01615142 45.64047 125.3932 44.92768 45.64046 125.7242 16.78748 84.69638 125.3604 47.71342 -19.82597 125.024 76.30465 -85.43879 125.3913 45.08662 -45.72475 125.3924 44.99303 -45.64046 125.7242 16.78748 -84.69638 125.3604 47.71342 -45.64046 125.9219 -0.01615142 -23.50739 125.9219 -0.01615142 -79.32509 125.1392 66.51524 -53.35829 125.0709 72.32025 -44.0819 125.0426 74.72497 -79.63378 125.1524 65.39258 0 125.9219 -0.01615142 23.50739 125.9219 -0.01615142 53.35829 125.0709 72.32025 0 125.0073 77.72482 19.82597 125.024 76.30465 79.63378 125.1524 65.39258</float_array>
          <technique_common>
            <accessor source="#generic_car_01a_007-mesh-positions-array" count="56" stride="3">
              <param name="X" type="float"/>
              <param name="Y" type="float"/>
              <param name="Z" type="float"/>
            </accessor>
          </technique_common>
        </source>
        <source id="generic_car_01a_007-mesh-normals">
          <float_array id="generic_car_01a_007-mesh-normals-array" count="276">0.9822094 0.06846785 0.1748625 0.9715049 0.05619597 0.2302612 0.9999291 0.01180911 -0.00152862 0.9940406 0.108951 0.003621935 0 0.9966509 0.08177423 0.07294505 0.9939997 0.08150821 0.0725286 0.9882041 -0.1348792 0 0.9912586 -0.1319338 0 0.9562656 0.2924996 0.07035171 0.9529415 0.2948781 0 0 1 0.09371298 0.794586 0.5998758 0.03955656 0.8060489 0.5905256 0.09551638 0.7969776 0.5964087 0.1055426 0.9909594 0.08282643 0.1078962 0.9843118 -0.139602 0.1068813 0.9473983 0.3016836 -1.24704e-6 5.27687e-6 1 -1.2489e-6 5.27594e-6 1 -3.1786e-6 4.38653e-6 1 0.1348917 0.7789645 0.6123877 0.1437746 0.782814 0.6054181 0.1348831 0.7789388 0.6124222 0 -3.28206e-7 -1 0 -2.91978e-7 -1 0.9757417 0.1065793 -0.1912307 0.9812499 0.03548496 -0.1894452 0 -2.77618e-7 -1 0 -2.91979e-7 -1 0 0 -1 0 -0.9977807 -0.06658554 0 -0.9977807 -0.0665856 -0.9716377 0.09881758 0.2148379 -0.9940406 0.108951 0.003621935 -0.9978618 -0.05206149 0.03951615 -0.9715207 0.05635458 0.2301561 -0.0725286 0.9882041 -0.1348795 -0.07294511 0.9939998 0.0815081 -0.07035171 0.9529415 0.2948782 0 0 1 0 0 1 -0.03963738 0.8061165 0.5904279 0 0.8083249 0.5887366 0 0.8072074 0.5902679 -0.1106612 0.9835708 -0.1426277 -0.1055427 0.9909594 0.08282649 -0.1041878 0.9486261 0.2987534 -1.85876e-7 0 1 8.77306e-7 5.46972e-6 1 2.38605e-6 4.77396e-6 1 7.12462e-7 5.54509e-6 1 -0.09398818 0.6463598 0.7572221 -0.09551644 0.7969776 0.5964087 -0.09371334 0.794586 0.5998759 0 -2.91978e-7 -1 0 -3.28206e-7 -1 -0.9852777 0.07335025 -0.1544272 -0.9812499 0.03548491 -0.1894453 0 0 1 0 0 1 0 -2.77618e-7 -1 0 0 1 3.64158e-7 -0.3438115 -0.9390388 5.33182e-7 -0.3438116 -0.9390386 6.13509e-7 -0.3438117 -0.9390387 -1 7.96886e-6 1.7032e-5 -1 8.10239e-6 1.69683e-5 -1 8.07131e-6 1.69832e-5 -1 -1.04569e-5 -7.13859e-7 -1 -1.04615e-5 -6.55054e-7 -1 -1.04554e-5 -7.45524e-7 0 -0.343812 -0.9390385 -1 0 0 -0.9855077 0.04271429 0.1641649 -0.9636418 0.00186485 0.2671912 -0.08848661 0.88639 0.4544039 1 0 -4.09001e-7 1 4.60784e-7 0 1 0 0 4.67664e-6 -0.3438158 -0.9390372 4.91192e-6 -0.3438155 -0.9390373 -0.1115458 -0.433379 -0.8942819 0.9753513 0.05608344 0.2134119 0.9663429 -0.003822565 0.2572296 0 -0.3437529 -0.9390602 0 -0.3437529 -0.9390602 0 -0.3437529 -0.9390602 -0.9617313 -0.0207886 0.2732047 -0.1348664 0.7789387 0.612426 0.966355 -0.004347085 0.2571756 0.9711647 0.006819963 0.238312 0.9704269 0.05576354 0.2348662</float_array>
          <technique_common>
            <accessor source="#generic_car_01a_007-mesh-normals-array" count="92" stride="3">
              <param name="X" type="float"/>
              <param name="Y" type="float"/>
              <param name="Z" type="float"/>
            </accessor>
          </technique_common>
        </source>
        <source id="generic_car_01a_007-mesh-map-0">
          <float_array id="generic_car_01a_007-mesh-map-0-array" count="516">1 0.5 0.8750001 0.5 0.8750001 0.25 0.8750001 0.25 1 0.25 1 0.5 1 0.25 1 0.25 1 0 1 0 1 0 1 0.25 1 0.25 1 0.5 1 0.5 1 0.5 1 0.25 1 0.25 0.8750001 0.5 0.8750001 0.5 1 0.5 1 0.5 1 0.5 0.8750001 0.5 0.75 0.5 0.75 0.618354 0.75 0.6004629 1 0.25 1 0.25 1 0 1 0 1 0 1 0.25 1 0.5 1 0.25 1 0.25 1 0.25 1 0.5 1 0.5 0.75 0.5 0.75 0.5 0.8750001 0.5 0.8750001 0.5 0.8750001 0.5 0.75 0.5 0.75 0.5 0.75 0.5732275 0.75 0.507481 1 0 0.8750001 0 0.8750001 0 0.8750001 0 1 0 1 0 1 0 1 0.25 0.8750001 0.25 0.8750001 0.25 0.8750001 0 1 0 0.75 0.5 0.75 0.5 0.8750001 0.5 0.8750001 0.5 0.8750001 0.5 0.75 0.5 0.8750001 0 1 0 1 0 1 0 0.8750001 0 0.8750001 0 1 0.5 1 0.5 0.8750001 0.5 0.8750001 0.5 0.8750001 0.5 1 0.5 0.75 0.75 0.8143821 0.7424721 0.75 0.871236 0.8750001 0 0.8750001 0.25 0.8750001 0.25 0.8750001 0.25 0.8750001 0 0.8750001 0 1 0.5 1 0.25 0.8750001 0.25 0.8750001 0.25 0.8750001 0.5 1 0.5 1 0.25 1 0 1 0 1 0 1 0.25 1 0.25 1 0.25 1 0.25 1 0.5 1 0.5 1 0.5 1 0.25 0.8750001 0.5 1 0.5 1 0.5 1 0.5 0.8750001 0.5 0.8750001 0.5 0.75 0.618354 0.75 0.6344385 0.75 0.5 1 0.25 1 0 1 0 1 0 1 0.25 1 0.25 1 0.5 1 0.5 1 0.25 1 0.25 1 0.25 1 0.5 0.75 0.5 0.8750001 0.5 0.8750001 0.5 0.8750001 0.5 0.75 0.5 0.75 0.5 0.75 0.5732275 0.75 0.6004629 0.75 0.5 1 0 1 0 0.8750001 0 0.8750001 0 0.8750001 0 1 0 1 0 0.8750001 0 0.8750001 0.25 0.8750001 0.25 1 0.25 1 0 0.75 0.5 0.8750001 0.5 0.8750001 0.5 0.8750001 0.5 0.75 0.5 0.75 0.5 0.8750001 0 0.8750001 0 1 0 1 0 1 0 0.8750001 0 1 0.5 0.8750001 0.5 0.8750001 0.5 0.8750001 0.5 1 0.5 1 0.5 0.8143821 0.7424721 0.4506739 0.257528 0.8750001 0.5 0.8126335 0.25 0.8126335 0.25 0.8750001 0.25 0.8750001 0 0.8750001 0 0.8750001 0.25 0.8750001 0.25 0.8750001 0.25 0.8750001 0 0.8750001 0.5 0.8112251 0.3724501 0.8126266 0.2505063 0.8126266 0.2505063 0.8750001 0.25 0.8750001 0.5 0.8750001 0.25 0.8126335 0.25 0.8750001 0.25 0.8750001 0.5 0.8143821 0.257528 0.8112251 0.3724501 0.8127032 0.2508128 0.75 0.5 0.8750001 0.5 0.75 0.5 0.75 0.5732275 0.75 0.5 0.75 0.5 0.75 0.618354 0.75 0.5 0.8750001 0.5 0.8126266 0.2505063 0.8112251 0.3724501 0.8750001 0.25 0.8126266 0.2505063 0.8750001 0.5 0.75 0.75 0.8143821 0.7424721 0.8750001 0.5 0.8750001 0.5 0.8112251 0.3724501 0.8143821 0.257528 0.8750001 0.5 0.4506739 0.257528 0.8143821 0.7424721 0.8750001 0.25 0.8126335 0.25 0.8126335 0.25 0.8750001 0.5 0.8126335 0.25 0.8750001 0.25 0.75 0.5 0.8127032 0.2508128 0.8750001 0.5 0.75 0.5 0.75 0.6004629 0.75 0.5732275 0.75 0.5 0.75 0.6344385 0.75 0.618354 0.75 0.5 0.75 0.5 0.75 0.618354 0.75 0.5 0.75 0.5 0.75 0.5732275 0.75 0.75 0.8750001 0.5 0.8143821 0.7424721 0.8750001 0.25 0.8750001 0.25 0.8126335 0.25 0.8750001 0.5 0.8750001 0.25 0.8126335 0.25 0.8127032 0.2508128 0.8044173 0.2823308 0.75 0.5 0.75 0.5 0.75 0.507481 0.75 0.5732275 0.75 0.5 0.75 0.6004629 0.75 0.618354 0.75 0.75 0.75 0.871236 0.8143821 0.7424721 0.75 0.5 0.8044173 0.2823308 0.8127032 0.2508128</float_array>
          <technique_common>
            <accessor source="#generic_car_01a_007-mesh-map-0-array" count="258" stride="2">
              <param name="S" type="float"/>
              <param name="T" type="float"/>
            </accessor>
          </technique_common>
        </source>
        <vertices id="generic_car_01a_007-mesh-vertices">
          <input semantic="POSITION" source="#generic_car_01a_007-mesh-positions"/>
        </vertices>
        <triangles material="generic_car_parametrized-material" count="86">
          <input semantic="VERTEX" source="#generic_car_01a_007-mesh-vertices" offset="0"/>
          <input semantic="NORMAL" source="#generic_car_01a_007-mesh-normals" offset="1"/>
          <input semantic="TEXCOORD" source="#generic_car_01a_007-mesh-map-0" offset="2" set="0"/>
          <p>3 0 0 11 1 1 10 2 2 10 2 3 2 3 4 3 0 5 20 4 6 5 5 7 4 6 8 4 6 9 0 7 10 20 4 11 20 4 12 23 8 13 6 9 14 6 9 15 5 5 16 20 4 17 8 10 18 13 10 19 6 10 20 6 10 21 23 10 22 8 10 23 7 11 24 54 12 25 32 13 26 5 5 27 2 14 28 1 15 29 1 15 30 4 6 31 5 5 32 3 16 33 2 14 34 5 5 35 5 5 36 6 9 37 3 16 38 7 17 39 55 18 40 11 19 41 11 10 42 13 10 43 7 10 44 55 20 45 52 21 46 33 22 47 1 23 48 12 23 49 14 23 50 14 24 51 4 24 52 1 24 53 1 25 54 2 3 55 10 2 56 10 2 57 12 26 58 1 25 59 26 10 60 7 10 61 13 10 62 13 10 63 8 10 64 26 10 65 9 27 66 0 27 67 4 27 68 4 28 69 14 28 70 9 28 71 3 10 72 6 10 73 13 10 74 13 10 75 11 10 76 3 10 77 9 29 78 51 29 79 50 29 80 12 30 81 10 30 82 15 30 83 15 31 84 14 31 85 12 31 86 17 32 87 16 33 88 19 34 89 19 34 90 18 35 91 17 32 92 20 4 93 0 7 94 22 36 95 22 36 96 21 37 97 20 4 98 20 4 99 21 37 100 24 38 101 24 38 102 23 8 103 20 4 104 8 39 105 23 39 106 24 39 107 24 40 108 25 40 109 8 40 110 39 41 111 53 42 112 26 43 113 21 37 114 22 36 115 28 44 116 28 44 117 16 45 118 21 37 119 17 46 120 24 38 121 21 37 122 21 37 123 16 45 124 17 46 125 27 47 126 25 47 127 18 47 128 18 48 129 49 49 130 27 50 131 47 51 132 48 52 133 27 53 134 28 54 135 22 54 136 30 54 137 30 55 138 29 55 139 28 55 140 28 56 141 29 57 142 19 34 143 19 34 144 16 33 145 28 56 146 26 58 147 8 58 148 25 58 149 25 59 150 27 59 151 26 59 152 9 28 153 30 28 154 22 28 155 22 60 156 0 60 157 9 60 158 17 61 159 18 61 160 25 61 161 25 10 162 24 10 163 17 10 164 45 29 165 44 29 166 30 29 167 41 62 168 40 63 169 19 64 170 29 31 171 30 31 172 31 31 173 31 30 174 19 30 175 29 30 176 30 65 177 42 66 178 41 67 179 41 68 180 31 69 181 30 70 182 31 71 183 41 71 184 19 71 185 30 72 186 44 72 187 42 72 188 40 73 189 49 74 190 18 35 191 49 75 192 47 51 193 27 53 194 27 53 195 39 41 196 26 43 197 14 76 198 36 76 199 37 76 200 15 77 201 36 77 202 14 77 203 9 29 204 45 29 205 30 29 206 14 78 207 37 78 208 35 78 209 14 29 210 35 29 211 51 29 212 10 79 213 34 80 214 36 81 215 11 1 216 34 82 217 10 2 218 55 83 219 34 82 220 11 1 221 7 11 222 32 13 223 52 21 224 26 43 225 53 42 226 54 12 227 7 11 228 26 43 229 54 12 230 55 20 231 7 11 232 52 21 233 9 29 234 14 29 235 51 29 236 15 84 237 10 85 238 36 86 239 18 35 240 19 34 241 40 73 242 40 73 243 43 87 244 49 74 245 49 75 246 46 88 247 47 51 248 27 53 249 48 52 250 39 41 251 9 29 252 50 29 253 45 29 254 55 89 255 38 90 256 34 91 257</p>
        </triangles>
      </mesh>
    </geometry>
  </library_geometries>
  <library_visual_scenes>
    <visual_scene id="Scene" name="Scene">
      <node id="template_car_sedan_rear" name="template_car_sedan_rear" type="NODE">
        <matrix sid="transform">0.01 0 0 0 0 0.01 0 1.25 0 0 0.01 0 0 0 0 1</matrix>
        <instance_geometry url="#generic_car_01a_007-mesh" name="template_car_sedan_rear">
          <bind_material>
            <technique_common>
              <instance_material symbol="generic_car_parametrized-material" target="#generic_car_parametrized-material">
                <bind_vertex_input semantic="generic_car_01a_003-mesh-map-0" input_semantic="TEXCOORD" input_set="0"/>
              </instance_material>
            </technique_common>
          </bind_material>
        </instance_geometry>
      </node>
    </visual_scene>
  </library_visual_scenes>
  <scene>
    <instance_visual_scene url="#Scene"/>
  </scene>
</COLLADA>