<?xml version="1.0" encoding="utf-8"?>
<COLLADA xmlns="http://www.collada.org/2005/11/COLLADASchema" version="1.4.1" xmlns:xsi="http://www.w3.org/2001/XMLSchema-instance">
  <asset>
    <contributor>
      <author>Blender User</author>
      <authoring_tool>Blender 4.4.3 commit date:2025-04-29, commit time:14:09, hash:802179c51ccc</authoring_tool>
    </contributor>
    <created>2025-11-20T13:52:36</created>
    <modified>2025-11-20T13:52:36</modified>
    <unit name="meter" meter="1"/>
    <up_axis>Z_UP</up_axis>
  </asset>
  <library_effects>
    <effect id="generic_car_parametrized-effect">
      <profile_COMMON>
        <technique sid="common">
          <lambert>
            <emission>
              <color sid="emission">0 0 0 1</color>
            </emission>
            <diffuse>
              <color sid="diffuse">0.588294 0.001998425 0.01040506 1</color>
            </diffuse>
            <reflectivity>
              <float sid="specular">0.4145078</float>
            </reflectivity>
            <index_of_refraction>
              <float sid="ior">1.5</float>
            </index_of_refraction>
          </lambert>
        </technique>
      </profile_COMMON>
    </effect>
  </library_effects>
  <library_images/>
  <library_materials>
    <material id="generic_car_parametrized-material" name="generic_car_parametrized">
      <instance_effect url="#generic_car_parametrized-effect"/>
    </material>
  </library_materials>
  <library_geometries>
    <geometry id="generic_car_01a_004-mesh" name="generic_car_01a.004">
      <mesh>
        <source id="generic_car_01a_004-mesh-positions">
          <float_array id="generic_car_01a_004-mesh-positions-array" count="315">0 89.12585 -0.01616096 85.83339 92.27477 32.91927 59.56878 90.86484 110.0016 59.56878 -30.24497 110.0016 79.54555 -75.87638 65.85471 79.37202 89.12585 -0.01616096 0 117.5758 87.9282 72.17827 109.5433 87.9282 72.17827 -54.95781 87.9282 35.57379 96.74773 110.0016 35.57379 -41.58662 110.0016 45.56218 -87.21803 65.85471 45.64046 -87.40162 -0.01616096 41.87854 115.4262 87.9282 41.87854 -66.29947 87.9282 0 -87.40162 -0.01615142 85.83339 -93.40946 32.91927 79.03491 -119.0871 63.61523 79.37202 -87.40162 -0.01616096 85.17014 -106.2483 48.26725 45.64046 92.27477 32.91927 45.64046 89.12585 -0.01616096 45.64046 -93.40946 32.91927 45.64046 -106.2483 48.26725 85.46144 125.3218 45.01887 45.64047 125.3218 45.01887 0 98.89731 110.0016 0 -47.17552 110.0016 0 -71.88838 87.9282 0 -92.80694 65.85471 77.08302 -119.5659 63.62337 63.87019 -122.8071 63.67849 45.63514 -124.5375 63.89827 56.72464 -124.56 63.7083 80.13204 -124.6441 60.06148 23.17397 -125.2195 -0.01616096 0 -125.177 -0.01615142 66.6695 -124.7621 47.45338 45.64046 -124.888 32.91927 45.64046 -124.7764 42.78222 45.64046 -125.0545 18.20222 45.64046 -124.7236 47.45507 45.64046 -125.2606 -0.01616096 84.76689 -124.7953 47.45192 78.91094 -124.6078 63.07157 0 -124.451 64.15018 42.00161 -124.5306 63.92199 19.82597 125.024 76.30465 0 125.0073 77.72482 53.35829 125.0709 72.32025 23.50739 125.9219 -0.01615142 0 125.9219 -0.01615142 45.64046 125.7242 16.78748 45.64046 125.9219 -0.01615142 84.69638 125.3604 47.71342 79.32509 125.1392 66.51524 79.52621 125.1463 65.91265 44.0819 125.0426 74.72497 -85.83339 92.27477 32.91927 -59.56878 90.86484 110.0016 -59.56878 -30.24497 110.0016 -79.54555 -75.87638 65.85471 -79.37202 89.12585 -0.01616096 -72.17827 109.5433 87.9282 -72.17827 -54.95781 87.9282 -35.57379 96.74773 110.0016 -35.57379 -41.58662 110.0016 -45.56218 -87.21803 65.85471 -45.64046 -87.40162 -0.01616096 -41.87854 115.4262 87.9282 -41.87854 -66.29947 87.9282 -85.83339 -93.40946 32.91927 -79.03491 -119.0871 63.61523 -79.37202 -87.40162 -0.01616096 -85.17014 -106.2483 48.26725 -45.64046 92.27477 32.91927 -45.64046 89.12585 -0.01616096 -45.64046 -93.40946 32.91927 -45.64046 -106.2483 48.26725 -85.46144 125.3218 45.01887 -45.64047 125.3218 45.01887 -77.08302 -119.5659 63.62337 -63.87019 -122.8071 63.67849 -45.63514 -124.5375 63.89827 -56.72464 -124.56 63.7083 -80.13204 -124.6441 60.06148 -23.17397 -125.2195 -0.01616096 -66.6695 -124.7621 47.45338 -45.64046 -124.888 32.91927 -45.64046 -124.7764 42.78222 -45.64046 -125.0545 18.20222 -45.64046 -124.7236 47.45507 -45.64046 -125.2606 -0.01616096 -84.76689 -124.7953 47.45192 -78.91094 -124.6078 63.07157 -42.00161 -124.5306 63.92199 -19.82597 125.024 76.30465 -53.35829 125.0709 72.32025 -23.50739 125.9219 -0.01615142 -45.64046 125.7242 16.78748 -45.64046 125.9219 -0.01615142 -84.69638 125.3604 47.71342 -79.32509 125.1392 66.51524 -79.52621 125.1463 65.91265 -44.0819 125.0426 74.72497</float_array>
          <technique_common>
            <accessor source="#generic_car_01a_004-mesh-positions-array" count="105" stride="3">
              <param name="X" type="float"/>
              <param name="Y" type="float"/>
              <param name="Z" type="float"/>
            </accessor>
          </technique_common>
        </source>
        <source id="generic_car_01a_004-mesh-normals">
          <float_array id="generic_car_01a_004-mesh-normals-array" count="426">0.9812945 0 -0.1925133 0.9887028 0.1452999 -0.03680914 0.990619 -0.1327654 -0.03236538 0.9812945 0 -0.1925133 0.8683092 0 0.4960234 0.9313274 0 0.3641833 0.9281795 0 0.372133 0.8683088 0 0.4960243 0.03522318 0.8000795 0.5988593 0.03973388 0.8061967 0.5903118 -0.01990878 0.8295009 0.5581505 1.28921e-4 -0.05160647 0.9986675 1.74496e-7 0 1 0 0 1 0 0 1 0.09878194 -0.6854808 0.7213586 0.17186 -0.665192 0.726625 0.1913669 -0.6293864 0.753161 -1.11172e-4 -0.62501 0.7806167 0.01251548 -0.05220806 0.9985579 0.00619632 -0.0526362 0.9985946 0.01172572 -0.05232566 0.9985613 0 0 -1 -2.0898e-7 0 -1 0.9592247 0.009447872 0.2824869 0.9447147 0.008896589 0.3277727 -0.02259349 0.7359413 0.6766684 0.1051644 0.7454866 0.658172 0.09830129 0.7697897 0.6306827 -1.08012e-4 -0.764158 0.6450293 0.1623771 -0.6979322 0.697513 0.1438631 0.7828496 0.6053512 0.09552222 0.796976 0.5964099 3.84772e-7 0 1 -1.68024e-7 0 1 0.228923 -0.6321318 0.7402727 0.2517417 -0.5921651 0.7654846 0.02267336 -0.07547158 0.9968902 0.02833533 -0.09859162 0.9947245 0.02267175 -0.07547366 0.9968901 0.1583947 0.7206628 0.6749491 0.141159 0.7546328 0.6407834 0.2233389 -0.6691984 0.7087265 0.9734372 0.01116901 0.2286818 0.9481875 0.04433673 0.3146023 0.02183139 -0.07158714 0.9971955 0.01733922 -0.05195403 0.998499 0.937871 -0.03556531 0.345157 0.9342001 -0.03403264 0.3551229 0.9315598 -0.04667425 0.36058 -4.11571e-7 0 -1 0 2.59179e-7 -1 0 -0.9837669 -0.1794515 0 -0.89924 -0.4374558 0.1153423 -0.9255548 -0.3606168 0 -0.983767 -0.1794511 0 0.9954606 -0.09517461 0 0.9954606 -0.09517532 0 -0.767019 -0.6416245 0 -0.7670193 -0.6416241 0 0.04391789 -0.9990352 1 0 0 1 0 0 0.003608107 0.002575993 -0.9999902 0 0.3438128 -0.9390382 0 0.3438127 -0.9390383 0 3.04878e-4 -1 0.9810575 -0.01089543 0.1934106 0.9461118 -0.03672909 0.3217508 0 0 -1 0 0.04391777 -0.9990351 0.9248629 -0.05778384 0.3758851 9.34624e-5 0.006413996 0.9999795 -0.002661108 -0.058402 0.9982897 0 2.59178e-7 -1 0.1348499 0.7789837 0.6123725 0.02267128 -0.07546359 0.9968909 -2.08924e-7 1.24133e-7 -1 0 2.59178e-7 -1 0 0.04391789 -0.9990351 1 -2.15927e-7 0 1 -2.60324e-7 -4.08173e-7 1 2.11841e-7 0 -0.9812945 0 -0.1925133 -0.9909344 -0.1160764 -0.06764078 -0.9899969 0.1283029 -0.05869096 -0.9812945 0 -0.1925133 -0.8683092 0 0.4960234 -0.9281795 0 0.372133 -0.9313274 0 0.3641832 -0.8683088 0 0.4960243 -0.04188352 0.8061966 0.5901634 0 0 1 -1.74496e-7 0 1 -0.1913669 -0.6293864 0.753161 -0.17186 -0.665192 0.726625 -0.01251548 -0.05220806 0.9985579 -0.01172572 -0.05232566 0.9985613 -0.00619632 -0.0526362 0.9985946 2.0898e-7 0 -1 -0.9498866 0.01409119 0.312277 -0.9642392 0.009663164 0.2648571 -0.1051644 0.7454866 0.658172 -0.09830129 0.7697898 0.6306827 -0.1623771 -0.6979322 0.697513 -0.1131922 0.7968648 0.5934596 -0.1505112 0.78285 0.6037319 -3.84772e-7 0 1 1.68024e-7 0 1 -0.2517417 -0.5921651 0.7654846 -0.228923 -0.6321318 0.7402727 -0.02267336 -0.07547158 0.9968902 -0.02267175 -0.07547366 0.9968901 -0.02833533 -0.09859162 0.9947245 -0.1583947 0.7206628 0.6749491 -0.141159 0.7546328 0.6407834 -0.2233389 -0.6691984 0.7087265 -0.9465434 0.0284996 0.3213154 -0.9734372 0.01116901 0.2286818 -0.02183139 -0.07158714 0.9971955 -0.01733922 -0.05195403 0.998499 -0.937871 -0.03556531 0.345157 -0.9360258 -0.04681211 0.3488045 -0.9341164 -0.04086208 0.3546225 4.11571e-7 0 -1 -0.1153423 -0.8690934 -0.4810125 0 0.04391789 -0.9990352 -1 0 0 -1 0 0 0.3414095 0.3231546 -0.8826158 -0.3435263 0.322889 -0.8818914 -0.9739841 -0.03685468 0.2235996 -0.9736531 0.0140472 0.2276017 0 0 -1 0 0.04391777 -0.9990351 -0.9248629 -0.05778384 0.3758851 -0.1348499 0.7789837 0.6123725 -0.01294702 -0.07544058 0.9970663 2.08924e-7 1.24133e-7 -1 -1 -2.15927e-7 0 -1 -2.60324e-7 -4.08173e-7 -1 2.11841e-7 0</float_array>
          <technique_common>
            <accessor source="#generic_car_01a_004-mesh-normals-array" count="142" stride="3">
              <param name="X" type="float"/>
              <param name="Y" type="float"/>
              <param name="Z" type="float"/>
            </accessor>
          </technique_common>
        </source>
        <source id="generic_car_01a_004-mesh-map-0">
          <float_array id="generic_car_01a_004-mesh-map-0-array" count="948">0.75 0 0.75 0.25 0.375 0.25 0.375 0.25 0.375 0 0.75 0 0.5 1 0.5 0.75 0.75 0.75 0.75 0.75 0.75 1 0.5 1 0.75 0.75 0.75 0.618354 0.75 0.6344385 0.5 1 0.5 1 0.75 1 0.75 1 0.75 1 0.5 1 0.5 0.75 0.5 0.75 0.5 1 0.5 1 0.5 1 0.5 0.75 0.5 0.5 0.3849662 0.5 0.3835542 0.5 0.75 0 0.75 0 0.5 0 0.5 0 0.375 0 0.75 0 0.75 0.75 0.7493438 0.5006563 0.75 0.507481 0.75 0.75 0.75 1 0.75 1 0.75 1 0.75 0.75 0.75 0.75 0.5 0.5 0.5 0.5 0.5 0.75 0.5 0.75 0.5 0.75 0.5 0.5 0.75 0.75 0.75 0.5732275 0.75 0.6004629 0.5 1 0.75 1 0.75 1 0.75 1 0.5 1 0.5 1 0.5 0.75 0.5 0.75 0.5 1 0.5 1 0.5 1 0.5 0.75 0.375 0.5 0.3554605 0.5 0.375 0.5 0.75 0 0.375 0 0.5 0 0.5 0 0.75 0 0.75 0 0.75 1 0.75 0.75 0.75 0.75 0.75 0.75 0.75 1 0.75 1 0.5 0.5 0.5 0.5 0.5 0.75 0.5 0.75 0.5 0.75 0.5 0.5 0.375 0.25 0.5 0.5 0.375 0.375 0.375 0.5 0.5 0.5 0.5 0.5 0.3163928 0.375 0.375 0.5 0.3490025 0.4740025 0.5 0.5 0.375 0.5 0.375 0.375 0.375 0 0.3769376 0 0.313538 0 0 0 0.8143821 0.7424721 0.4506739 0.257528 0.375 0 0.375 0.25 0.375 0.25 0.375 0.25 0.375 0 0.375 0 0.75 0.25 0.75 0 0.75 0 0.75 0 0.75 0.25 0.75 0.25 0.375 0.25 0.375 0.375 0.375 0.375 0.375 0.375 0.375 0.25 0.375 0.25 0.375 0.375 0.3164976 0.3750001 0.3166195 0.375 0.5 0 0.3191443 0.1382886 0.3768037 0 0.8112251 0.3724501 0.75 0 0.8143821 0.257528 0.3141681 0.25 0.375 0.375 0.3303278 0.3303278 0.8125 0.25 0.75 0.25 0.75 0.25 0.75 0.25 0.8125 0.25 0.8125 0.25 0.75 0.4964922 0.8125 0.25 0.8044173 0.2823308 0.375 0.25 0.3141681 0.25 0.3191443 0.1382886 0.375 0.375 0.3166195 0.375 0.3303278 0.3303278 0.5 0 0.3768037 0 0.3769376 0 0.375 0.375 0.3163928 0.375 0.3164976 0.3750001 0.375 0.5 0.3554605 0.5 0.3490025 0.4740025 0.375 0.5 0.375 0.5 0.5 0.5 0.5 0.5 0.3968152 0.5 0.3849662 0.5 0.75 1 0.75 0.871236 0.8143821 0.7424721 0.75 0.75 0.75 0.507481 0.75 0.5732275 0.75 0.75 0.75 0.6004629 0.75 0.618354 0.75 0.25 0.7491911 0.4994607 0.375 0.25 0.5 0.5 0.375 0.25 0.7491911 0.4994607 0.75 0.75 0.75 0.75 0.75 0.618354 0.5 0.5 0.5 0.5 0.3849662 0.5 0.75 0.75 0.5 0.75 0.7493438 0.5006563 0.75 0.75 0.75 0.75 0.75 0.5732275 0.375 0.5 0.3554605 0.5 0.375 0.5 0.3554605 0.5 0.375 0.5 0.375 0.5 0.3163928 0.375 0.375 0.375 0.375 0.5 0.375 0 0.5 0 0.3769376 0 0 0 0.75 1 0.8143821 0.7424721 0.375 0.375 0.375 0.375 0.3164976 0.3750001 0.5 0 0.375 0.25 0.3191443 0.1382886 0.8125 0.25 0.75 0.25 0.8112251 0.3724501 0.8112251 0.3724501 0.75 0.25 0.75 0 0.3141681 0.25 0.375 0.25 0.375 0.375 0.75 0.4964922 0.75 0.25 0.8125 0.25 0.375 0.5 0.5 0.5 0.375 0.5 0.5 0.5 0.3835542 0.5 0.375 0.5 0.375 0.5 0.5 0.5 0.375 0.5 0.5 0.75 0.5 0.5 0.7494127 0.5 0.75 0 0.375 0.25 0.75 0.25 0.375 0.25 0.75 0 0.375 0 0.5 1 0.75 0.75 0.5 0.75 0.75 0.75 0.5 1 0.75 1 0.75 0.75 0.75 0.6344385 0.75 0.618354 0.5 1 0.75 1 0.5 1 0.75 1 0.5 1 0.75 1 0.5 0.75 0.5 1 0.5 0.75 0.5 1 0.5 0.75 0.5 1 0.5 0.5 0.3835542 0.5 0.3849662 0.5 0.75 0 0.5 0 0.75 0 0.5 0 0.75 0 0.375 0 0.75 0.75 0.75 0.507481 0.7493438 0.5006563 0.75 0.75 0.75 1 0.75 1 0.75 1 0.75 0.75 0.75 0.75 0.5 0.5 0.5 0.75 0.5 0.5 0.5 0.75 0.5 0.5 0.5 0.75 0.75 0.75 0.75 0.6004629 0.75 0.5732275 0.5 1 0.75 1 0.75 1 0.75 1 0.5 1 0.5 1 0.5 0.75 0.5 1 0.5 0.75 0.5 1 0.5 0.75 0.5 1 0.375 0.5 0.375 0.5 0.3554605 0.5 0.75 0 0.5 0 0.375 0 0.5 0 0.75 0 0.75 0 0.75 1 0.75 0.75 0.75 0.75 0.75 0.75 0.75 1 0.75 1 0.5 0.5 0.5 0.75 0.5 0.5 0.5 0.75 0.5 0.5 0.5 0.75 0.375 0.25 0.375 0.375 0.5 0.5 0.375 0.5 0.5 0.5 0.5 0.5 0.3163928 0.375 0.3490025 0.4740025 0.375 0.5 0.5 0.5 0.375 0.375 0.375 0.5 0.375 0 0.313538 0 0.3769376 0 0 0 0.4506739 0.257528 0.8143821 0.7424721 0.375 0 0.375 0.25 0.375 0.25 0.375 0.25 0.375 0 0.375 0 0.75 0.25 0.75 0 0.75 0 0.75 0 0.75 0.25 0.75 0.25 0.375 0.25 0.375 0.375 0.375 0.375 0.375 0.375 0.375 0.25 0.375 0.25 0.375 0.375 0.3166195 0.375 0.3164976 0.3750001 0.5 0 0.3768037 0 0.3191443 0.1382886 0.8112251 0.3724501 0.8143821 0.257528 0.75 0 0.3141681 0.25 0.3303278 0.3303278 0.375 0.375 0.8125 0.25 0.75 0.25 0.75 0.25 0.75 0.25 0.8125 0.25 0.8125 0.25 0.75 0.4964922 0.8044173 0.2823308 0.8125 0.25 0.375 0.25 0.3191443 0.1382886 0.3141681 0.25 0.375 0.375 0.3303278 0.3303278 0.3166195 0.375 0.5 0 0.3769376 0 0.3768037 0 0.375 0.375 0.3164976 0.3750001 0.3163928 0.375 0.375 0.5 0.3490025 0.4740025 0.3554605 0.5 0.375 0.5 0.5 0.5 0.375 0.5 0.5 0.5 0.3849662 0.5 0.3968152 0.5 0.75 1 0.8143821 0.7424721 0.75 0.871236 0.75 0.75 0.75 0.5732275 0.75 0.507481 0.75 0.75 0.75 0.618354 0.75 0.6004629 0.75 0.25 0.375 0.25 0.7491911 0.4994607 0.5 0.5 0.7491911 0.4994607 0.375 0.25 0.75 0.75 0.75 0.618354 0.75 0.75 0.5 0.5 0.3849662 0.5 0.5 0.5 0.75 0.75 0.7493438 0.5006563 0.5 0.75 0.75 0.75 0.75 0.5732275 0.75 0.75 0.375 0.5 0.375 0.5 0.3554605 0.5 0.3554605 0.5 0.375 0.5 0.375 0.5 0.3163928 0.375 0.375 0.5 0.375 0.375 0.375 0 0.3769376 0 0.5 0 0 0 0.8143821 0.7424721 0.75 1 0.375 0.375 0.3164976 0.3750001 0.375 0.375 0.5 0 0.3191443 0.1382886 0.375 0.25 0.8125 0.25 0.8112251 0.3724501 0.75 0.25 0.8112251 0.3724501 0.75 0 0.75 0.25 0.3141681 0.25 0.375 0.375 0.375 0.25 0.75 0.4964922 0.8125 0.25 0.75 0.25 0.375 0.5 0.375 0.5 0.5 0.5 0.5 0.5 0.375 0.5 0.3835542 0.5 0.375 0.5 0.375 0.5 0.5 0.5 0.5 0.75 0.7494127 0.5 0.5 0.5</float_array>
          <technique_common>
            <accessor source="#generic_car_01a_004-mesh-map-0-array" count="474" stride="2">
              <param name="S" type="float"/>
              <param name="T" type="float"/>
            </accessor>
          </technique_common>
        </source>
        <vertices id="generic_car_01a_004-mesh-vertices">
          <input semantic="POSITION" source="#generic_car_01a_004-mesh-positions"/>
        </vertices>
        <triangles material="generic_car_parametrized-material" count="158">
          <input semantic="VERTEX" source="#generic_car_01a_004-mesh-vertices" offset="0"/>
          <input semantic="NORMAL" source="#generic_car_01a_004-mesh-normals" offset="1"/>
          <input semantic="TEXCOORD" source="#generic_car_01a_004-mesh-map-0" offset="2" set="0"/>
          <p>5 0 0 1 1 1 16 2 2 16 2 3 18 3 4 5 0 5 3 4 6 8 5 7 7 6 8 7 6 9 2 7 10 3 4 11 6 8 12 47 9 13 48 10 14 27 11 15 10 12 16 9 13 17 9 13 18 26 14 19 27 11 20 28 15 21 14 16 22 10 17 23 10 17 24 27 18 25 28 15 26 11 19 27 46 20 28 32 21 29 0 22 30 21 22 31 12 22 32 12 23 33 15 23 34 0 23 35 7 6 36 56 24 37 55 25 38 6 8 39 26 26 40 9 27 41 9 27 42 13 28 43 6 8 44 29 29 45 11 30 46 14 16 47 14 16 48 28 15 49 29 29 50 13 28 51 49 31 52 57 32 53 3 33 54 2 34 55 9 13 56 9 13 57 10 12 58 3 33 59 14 16 60 8 35 61 3 36 62 3 36 63 10 17 64 14 16 65 31 37 66 44 38 67 30 39 68 5 22 69 18 22 70 12 22 71 12 22 72 21 22 73 5 22 74 2 40 75 7 41 76 13 28 77 13 28 78 9 27 79 2 40 80 11 30 81 4 42 82 8 35 83 8 35 84 14 16 85 11 30 86 16 2 87 4 43 88 19 44 89 17 45 90 4 46 91 11 19 92 43 47 93 17 48 94 34 49 95 4 43 96 17 48 97 19 44 98 15 50 99 35 50 100 36 50 101 21 51 102 50 51 103 53 51 104 18 52 105 16 53 106 22 54 107 22 54 108 12 55 109 18 52 110 1 56 111 5 56 112 21 56 113 21 57 114 20 57 115 1 57 116 16 53 117 19 58 118 23 59 119 23 59 120 22 54 121 16 53 122 23 60 123 37 60 124 41 60 125 12 61 126 40 61 127 42 61 128 52 62 129 21 62 130 53 62 131 38 61 132 23 61 133 39 61 134 24 63 135 1 64 136 20 65 137 20 65 138 25 66 139 24 63 140 56 24 141 24 67 142 54 68 143 22 61 144 38 61 145 40 61 146 23 61 147 41 61 148 39 61 149 12 69 150 42 69 151 35 69 152 19 70 153 43 70 154 37 70 155 17 48 156 44 71 157 34 49 158 31 37 159 30 39 160 11 19 161 29 72 162 45 73 163 46 20 164 0 74 165 51 74 166 50 74 167 7 41 168 55 75 169 49 31 170 13 28 171 57 32 172 47 9 173 1 1 174 56 24 175 16 2 176 4 43 177 16 2 178 56 24 179 6 8 180 13 28 181 47 9 182 11 19 183 29 72 184 46 20 185 7 6 186 8 5 187 56 24 188 13 28 189 7 41 190 49 31 191 33 76 192 44 38 193 31 37 194 44 38 195 17 45 196 30 39 197 43 47 198 19 44 199 17 48 200 15 77 201 12 77 202 35 77 203 21 78 204 0 78 205 50 78 206 23 79 207 19 79 208 37 79 209 12 80 210 22 80 211 40 80 212 25 81 213 20 81 214 52 81 215 52 82 216 20 82 217 21 82 218 38 61 219 22 61 220 23 61 221 56 24 222 1 1 223 24 67 224 17 45 225 11 19 226 30 39 227 11 19 228 32 21 229 33 76 230 31 37 231 11 19 232 33 76 233 8 5 234 4 43 235 56 24 236 62 83 237 71 84 238 58 85 239 71 84 240 62 83 241 73 86 242 60 87 243 63 88 244 64 89 245 63 88 246 60 87 247 59 90 248 6 8 249 48 10 250 96 91 251 27 11 252 65 92 253 66 93 254 65 92 255 27 11 256 26 14 257 28 15 258 66 94 259 70 95 260 66 94 261 28 15 262 27 18 263 67 96 264 83 97 265 95 98 266 0 22 267 68 22 268 76 22 269 68 99 270 0 99 271 15 99 272 63 88 273 102 100 274 103 101 275 6 8 276 65 102 277 26 26 278 65 102 279 6 8 280 69 103 281 29 29 282 70 95 283 67 104 284 70 95 285 29 29 286 28 15 287 69 103 288 104 105 289 97 106 290 60 107 291 65 92 292 59 108 293 65 92 294 60 107 295 66 93 296 70 95 297 60 109 298 64 110 299 60 109 300 70 95 301 66 94 302 82 111 303 81 112 304 94 113 305 62 22 306 68 22 307 73 22 308 68 22 309 62 22 310 76 22 311 59 114 312 69 103 313 63 115 314 69 103 315 59 114 316 65 102 317 67 104 318 64 110 319 61 116 320 64 110 321 67 104 322 70 95 323 71 84 324 74 117 325 61 118 326 72 119 327 67 96 328 61 120 329 93 121 330 85 122 331 72 123 332 61 118 333 74 117 334 72 123 335 15 124 336 36 124 337 86 124 338 76 51 339 100 51 340 98 51 341 73 52 342 77 125 343 71 53 344 77 125 345 73 52 346 68 55 347 58 56 348 76 56 349 62 56 350 76 57 351 58 57 352 75 57 353 71 53 354 78 59 355 74 58 356 78 59 357 71 53 358 77 125 359 78 126 360 91 126 361 87 126 362 68 127 363 92 127 364 90 127 365 99 128 366 100 128 367 76 128 368 88 127 369 89 127 370 78 127 371 79 129 372 75 65 373 58 64 374 75 65 375 79 129 376 80 130 377 103 101 378 101 131 379 79 132 380 77 127 381 90 127 382 88 127 383 78 127 384 89 127 385 91 127 386 68 133 387 86 133 388 92 133 389 74 134 390 87 134 391 93 134 392 72 123 393 85 122 394 94 135 395 82 111 396 67 96 397 81 112 398 29 72 399 95 98 400 45 73 401 0 74 402 98 74 403 51 74 404 63 115 405 97 106 406 102 136 407 69 103 408 96 91 409 104 105 410 58 85 411 71 84 412 103 101 413 61 118 414 103 101 415 71 84 416 6 8 417 96 91 418 69 103 419 67 96 420 95 98 421 29 72 422 63 88 423 103 101 424 64 89 425 69 103 426 97 106 427 63 115 428 84 137 429 82 111 430 94 113 431 94 113 432 81 112 433 72 119 434 93 121 435 72 123 436 74 117 437 15 138 438 86 138 439 68 138 440 76 78 441 98 78 442 0 78 443 78 79 444 87 79 445 74 79 446 68 139 447 90 139 448 77 139 449 80 140 450 99 140 451 75 140 452 99 141 453 76 141 454 75 141 455 88 127 456 78 127 457 77 127 458 103 101 459 79 132 460 58 85 461 72 119 462 81 112 463 67 96 464 67 96 465 84 137 466 83 97 467 82 111 468 84 137 469 67 96 470 64 89 471 103 101 472 61 118 473</p>
        </triangles>
      </mesh>
    </geometry>
  </library_geometries>
  <library_visual_scenes>
    <visual_scene id="Scene" name="Scene">
      <node id="template_car_sedan_middle" name="template_car_sedan_middle" type="NODE">
        <matrix sid="transform">0.01 0 0 0 0 0.01 0 1.25 0 0 0.01 0 0 0 0 1</matrix>
        <instance_geometry url="#generic_car_01a_004-mesh" name="template_car_sedan_middle">
          <bind_material>
            <technique_common>
              <instance_material symbol="generic_car_parametrized-material" target="#generic_car_parametrized-material">
                <bind_vertex_input semantic="generic_car_01a_004-mesh-map-0" input_semantic="TEXCOORD" input_set="0"/>
              </instance_material>
            </technique_common>
          </bind_material>
        </instance_geometry>
      </node>
    </visual_scene>
  </library_visual_scenes>
  <scene>
    <instance_visual_scene url="#Scene"/>
  </scene>
</COLLADA>