<?xml version="1.0" encoding="utf-8"?>
<COLLADA xmlns="http://www.collada.org/2005/11/COLLADASchema" version="1.4.1" xmlns:xsi="http://www.w3.org/2001/XMLSchema-instance">
  <asset>
    <contributor>
      <author>Blender User</author>
      <authoring_tool>Blender 4.4.3 commit date:2025-04-29, commit time:14:09, hash:802179c51ccc</authoring_tool>
    </contributor>
    <created>2025-11-05T14:18:26</created>
    <modified>2025-11-05T14:18:26</modified>
    <unit name="meter" meter="1"/>
    <up_axis>Z_UP</up_axis>
  </asset>
  <library_effects>
    <effect id="generic_car_parametrized-effect">
      <profile_COMMON>
        <technique sid="common">
          <lambert>
            <emission>
              <color sid="emission">0 0 0 1</color>
            </emission>
            <diffuse>
              <color sid="diffuse">0.588294 0.001998425 0.01040506 1</color>
            </diffuse>
            <reflectivity>
              <float sid="specular">0.4145078</float>
            </reflectivity>
            <index_of_refraction>
              <float sid="ior">1.5</float>
            </index_of_refraction>
          </lambert>
        </technique>
      </profile_COMMON>
    </effect>
  </library_effects>
  <library_images/>
  <library_materials>
    <material id="generic_car_parametrized-material" name="generic_car_parametrized">
      <instance_effect url="#generic_car_parametrized-effect"/>
    </material>
  </library_materials>
  <library_geometries>
    <geometry id="generic_car_01a_002-mesh" name="generic_car_01a.002">
      <mesh>
        <source id="generic_car_01a_002-mesh-positions">
          <float_array id="generic_car_01a_002-mesh-positions-array" count="186">0 58.7717 -0.01620101 0 55.3333 32.91927 84.59939 93.90711 32.91927 78.24189 97.59511 60.13729 76.6201 77.9292 56.30736 77.36254 66.42911 32.91927 75.78265 69.86751 -0.01616096 78.04477 87.77181 -0.01616096 45.76649 92.5529 60.37588 46.05919 69.27571 56.30736 47.04321 57.7756 32.91927 45.64046 61.21411 -0.01616096 45.64046 87.77181 -0.01616096 0 120.8588 63.78981 45.6405 124.721 63.75455 84.31008 106.1939 46.52827 45.64046 93.90711 32.91927 45.64046 106.1939 46.52827 -76.6201 77.9292 56.30736 -84.31008 106.1939 46.52827 -78.24189 97.59511 60.13729 -77.36254 66.42911 32.91927 -75.78265 69.86751 -0.01616096 -78.04477 87.77181 -0.01616096 -84.59939 93.90711 32.91927 -45.6405 124.721 63.75455 0 90.41751 60.39439 0 66.83341 56.30736 -46.05919 69.27571 56.30736 -45.76649 92.5529 60.37588 -47.04321 57.7756 32.91927 -45.64046 61.21411 -0.01616096 0 87.77181 -0.01615142 -45.64046 87.77181 -0.01616096 -45.64046 93.90711 32.91927 -45.64046 106.1939 46.52827 42.00161 137.4694 64.5686 0 137.549 64.79679 78.91094 137.3922 63.71818 84.76689 137.2047 48.15036 45.64046 136.7394 -0.01616096 45.64046 137.2764 48.15351 45.64046 136.9455 18.20222 45.64046 137.112 32.91927 45.64046 137.2236 42.78222 -78.91744 137.6817 63.7467 -80.07366 137.6516 60.25056 -84.77365 137.5155 48.16403 -23.22448 136.8656 -0.01616096 -45.64046 136.9066 -0.01616096 -45.64046 137.4438 48.16086 -45.64046 137.1136 18.28041 -45.64046 137.3914 42.8319 -57.5783 137.6494 64.35136 -45.64046 137.2793 32.91927 -66.91421 137.4828 48.16258 -41.79817 137.6231 64.57796 66.6695 137.2379 48.15182 0 136.823 -0.01615142 23.17397 136.7805 -0.01616096 80.13204 137.3559 60.06148 56.72464 137.44 64.35491</float_array>
          <technique_common>
            <accessor source="#generic_car_01a_002-mesh-positions-array" count="62" stride="3">
              <param name="X" type="float"/>
              <param name="Y" type="float"/>
              <param name="Z" type="float"/>
            </accessor>
          </technique_common>
        </source>
        <source id="generic_car_01a_002-mesh-normals">
          <float_array id="generic_car_01a_002-mesh-normals-array" count="273">0.9627045 -0.1982082 0.1841566 0.9529118 -0.0774666 0.2931861 0.9315366 -0.1076503 0.3473486 0.9748961 -0.182196 -0.1279928 0.9774112 -0.1234919 -0.1715145 0.964526 -0.237591 0.1150665 0.9694213 -0.2432883 0.03214406 -4.58559e-6 -0.08576852 0.9963151 0.006082832 -0.06175464 0.9980729 -1.79884e-5 -0.06022369 0.9981849 0 -0.1711528 0.9852446 0.02356719 -0.1755782 0.9841834 0.01880693 -0.1398509 0.9899939 0 -0.1417441 0.9899034 0 -0.9847708 0.1738582 0.1615814 -0.9722428 0.1692202 0.1488837 -0.8850139 0.4411168 0 -0.8973838 0.4412509 0 -0.9945947 -0.1038337 0.1625223 -0.9806819 -0.1088561 -2.08992e-7 0 -1 7.86095e-7 1.71003e-6 -1 0.01727682 -0.0834245 0.9963644 0.03682214 -0.1355431 0.990087 0.05528777 -0.1952567 0.9791926 0.2701252 -0.9464392 0.1768763 0.2463482 -0.8661583 0.4348362 0.2742511 -0.9550012 -0.1129572 0 0 -1 0 0 -1 -0.006098508 -0.06165283 0.9980791 -0.02057206 -0.0498588 0.9985444 -0.0172801 -0.08302664 0.9963975 0.9415618 -0.02224421 0.3361051 0.9446843 -0.01430666 0.327669 0 0 -1 2.75967e-6 0.4299761 -0.9028403 0 0.8886757 -0.4585363 0 0.8963752 -0.4432962 3.14428e-6 0.4298496 -0.9029005 0 0.9830883 -0.1831321 0 0.9830883 -0.1831323 9.88388e-6 0.05222642 -0.9986353 1.52381e-5 0.05223536 -0.9986348 1 0 0 -0.9627045 -0.1982082 0.1841566 -0.9315388 -0.1076707 0.3473366 -0.9431085 -0.1182761 0.3107364 -0.9532956 -0.2345816 -0.1902602 -0.9694213 -0.2432883 0.03214406 -0.9913265 -0.1275477 0.03167825 -0.9774112 -0.1234919 -0.1715145 -0.01880693 -0.1398509 0.9899939 -0.02356725 -0.1755782 0.9841834 -0.1488837 -0.8850141 0.4411167 -0.1615813 -0.9722428 0.1692201 -0.1625223 -0.9806819 -0.1088561 -7.86112e-7 1.71003e-6 -1 2.08992e-7 0 -1 -0.03680717 -0.1355602 0.9900852 -0.05528777 -0.1952567 0.9791926 -0.2463482 -0.8661583 0.4348361 -0.2701252 -0.9464392 0.1768763 -0.2734856 -0.9553224 -0.1120934 0 0 -1 -0.9453386 -0.01349401 0.3258112 -0.9313896 -0.03271931 0.3625505 4.10623e-7 0 -1 2.53981e-6 0.4299368 -0.9028591 3.16479e-6 0.4298236 -0.902913 0 0.8963752 -0.4432962 0 0.8886757 -0.4585362 0 0.9830883 -0.1831322 0 0.9830884 -0.183132 9.61011e-6 0.05216217 -0.9986387 1.5403e-5 0.05217194 -0.9986382 -1 0 0 -1 1.61379e-7 0 2.08927e-7 0 -1 -0.03369969 -0.085922 0.9957318 -0.9423328 -0.0212568 0.3340018 1.53478e-5 0.05221652 -0.9986359 -4.11594e-7 0 -1 0.9312933 -0.03269582 0.3628 0.03378427 -0.08584785 0.9957353 -2.08917e-7 0 -1 1 1.6192e-7 0 1 1.30331e-7 0 0 0 -1 1.42728e-5 0.0521537 -0.9986391 0.0205276 -0.04957455 0.9985595</float_array>
          <technique_common>
            <accessor source="#generic_car_01a_002-mesh-normals-array" count="91" stride="3">
              <param name="X" type="float"/>
              <param name="Y" type="float"/>
              <param name="Z" type="float"/>
            </accessor>
          </technique_common>
        </source>
        <source id="generic_car_01a_002-mesh-map-0">
          <float_array id="generic_car_01a_002-mesh-map-0-array" count="576">0 0.5 0.25 0.375 0.25 0.5 0 0 0.25 0 0.25 0.25 0.25 0.25 0 0.25 0 0 0.375 0.5 0.3849662 0.5 0.3968152 0.5 0 0.5 0 0.5 0.25 0.5 0.25 0.5 0.25 0.5 0 0.5 0 0.25 0 0.25 0 0.5 0 0.5 0 0.5 0 0.25 0 0.25 0 0 0 0 0 0 0 0.25 0 0.25 0.25 0 0.25 0 0 0 0 0 0 0 0.25 0 0.375 0.5 0.25 0.5 0.25 0.5 0 0.5 0 0.5 0.25 0.5 0.25 0.5 0.25 0.5 0 0.5 0 0.25 0 0.25 0 0.5 0 0.5 0 0.5 0 0.25 0 0 0 0.25 0 0.25 0 0.25 0 0 0 0 0.25 0 0 0 0 0 0 0 0.25 0 0.25 0 0.375 0.5 0.25 0.5 0.25 0.5 0.25 0.5 0.375 0.5 0.375 0.5 0.3855234 0.5 0.375 0.5 0.375 0.5 0.3554605 0.5 0.25 0.375 0.3490025 0.4740025 0 0.5 0 0.25 0.25 0.375 0 0.25 0.25 0.25 0.25 0.375 0.25 0 0.3769376 0 0.3768037 0 0.25 0.375 0.25 0.25 0.25 0.25 0.25 0.25 0.25 0.375 0.25 0.375 0.25 0.25 0.25 0 0.25 0 0.25 0 0.25 0.25 0.25 0.25 0.25 0.375 0.3164976 0.3750001 0.3163928 0.375 0.25 0.25 0.3191443 0.1382886 0.3141681 0.25 0.25 0.375 0.3303278 0.3303278 0.3166195 0.375 0 0.5 0.25 0.5 0.25 0.375 0 0 0 0.25 0.25 0.25 0.25 0.25 0.25 0 0 0 0 0.5 0.25 0.5 0.25 0.5 0.25 0.5 0 0.5 0 0.5 0 0.25 0 0.5 0 0.5 0 0.5 0 0.25 0 0.25 0 0.25 0 0.25 0 0 0 0 0 0 0 0.25 0.25 0 0 0 0 0 0 0 0.25 0 0.25 0 0.25 0.5 0.25 0.5 0.375 0.5 0 0.5 0.25 0.5 0.25 0.5 0.25 0.5 0 0.5 0 0.5 0 0.25 0 0.5 0 0.5 0 0.5 0 0.25 0 0.25 0 0 0 0 0 0.25 0 0.25 0 0.25 0 0 0.25 0 0.25 0 0 0 0 0 0 0 0.25 0 0.375 0.5 0.375 0.5 0.25 0.5 0.25 0.5 0.25 0.5 0.375 0.5 0.3503858 0.4753858 0.3173749 0.375 0.25 0.375 0 0.5 0.25 0.375 0 0.25 0 0.25 0.25 0.375 0.25 0.25 0.3772143 0 0.313538 0 0.25 0 0.25 0.375 0.25 0.375 0.25 0.25 0.25 0.25 0.25 0.25 0.25 0.375 0.25 0.25 0.25 0.25 0.25 0 0.25 0 0.25 0 0.25 0.25 0.3172715 0.3750001 0.3171482 0.375 0.25 0.375 0.3194411 0.1388821 0.377348 0 0.25 0 0.3307324 0.3307324 0.3144913 0.25 0.25 0.25 0.25 0.25 0.3194411 0.1388821 0.25 0 0.25 0.375 0.3307324 0.3307324 0.25 0.25 0.25 0 0.3772143 0 0.25 0 0.25 0.375 0.3172715 0.3750001 0.25 0.375 0.375 0.5 0.3564852 0.5 0.25 0.5 0.25 0.375 0.3564852 0.5 0.3503858 0.4753858 0.25 0.25 0.3141681 0.25 0.3303278 0.3303278 0.25 0.375 0.3166195 0.375 0.3164976 0.3750001 0.25 0 0.3768037 0 0.3191443 0.1382886 0.25 0 0.313538 0 0.3769376 0 0.25 0.375 0.3163928 0.375 0.3490025 0.4740025 0.3554605 0.5 0.375 0.5 0.25 0.5 0.375 0.5 0.3855234 0.5 0.375 0.5 0.375 0.5 0.375 0.5 0.3849662 0.5 0.3554605 0.5 0.25 0.5 0.25 0.375 0.25 0 0.25 0 0.3769376 0 0.25 0.375 0.25 0.375 0.3164976 0.3750001 0.25 0.25 0.25 0 0.3191443 0.1382886 0.25 0.375 0.25 0.25 0.3303278 0.3303278 0.25 0.25 0.3144913 0.25 0.3194411 0.1388821 0.25 0.375 0.3171482 0.375 0.3307324 0.3307324 0.25 0 0.377348 0 0.3772143 0 0.25 0.375 0.3173749 0.375 0.3172715 0.3750001 0.375 0.5 0.375 0.5 0.3564852 0.5 0.25 0.375 0.25 0.5 0.3564852 0.5 0.3554605 0.5 0.375 0.5 0.375 0.5 0.375 0.5 0.3968152 0.5 0.3855234 0.5 0.375 0.5 0.3849662 0.5 0.375 0.5</float_array>
          <technique_common>
            <accessor source="#generic_car_01a_002-mesh-map-0-array" count="288" stride="2">
              <param name="S" type="float"/>
              <param name="T" type="float"/>
            </accessor>
          </technique_common>
        </source>
        <vertices id="generic_car_01a_002-mesh-vertices">
          <input semantic="POSITION" source="#generic_car_01a_002-mesh-positions"/>
        </vertices>
        <triangles material="generic_car_parametrized-material" count="96">
          <input semantic="VERTEX" source="#generic_car_01a_002-mesh-vertices" offset="0"/>
          <input semantic="NORMAL" source="#generic_car_01a_002-mesh-normals" offset="1"/>
          <input semantic="TEXCOORD" source="#generic_car_01a_002-mesh-map-0" offset="2" set="0"/>
          <p>4 0 0 15 1 1 3 2 2 6 3 3 7 4 4 2 5 5 2 5 6 5 6 7 6 3 8 13 7 9 36 8 10 37 9 11 27 10 12 9 11 13 8 12 14 8 12 15 26 13 16 27 10 17 1 14 18 10 15 19 9 16 20 9 16 21 27 17 22 1 14 23 1 14 24 0 18 25 11 19 26 11 19 27 10 15 28 1 14 29 32 20 30 12 20 31 11 20 32 11 21 33 0 21 34 32 21 35 14 22 36 8 12 37 3 23 38 9 11 39 4 24 40 3 23 41 3 23 42 8 12 43 9 11 44 10 15 45 5 25 46 4 26 47 4 26 48 9 16 49 10 15 50 6 27 51 5 25 52 10 15 53 10 15 54 11 19 55 6 27 56 7 28 57 6 28 58 11 28 59 11 29 60 12 29 61 7 29 62 13 7 63 26 13 64 8 12 65 8 12 66 14 22 67 13 7 68 56 30 69 53 31 70 25 32 71 38 33 72 15 1 73 60 34 74 4 0 75 5 6 76 15 1 77 5 6 78 2 5 79 15 1 80 12 35 81 59 35 82 40 35 83 15 36 84 2 37 85 16 38 86 16 38 87 17 39 88 15 36 89 2 37 90 7 40 91 12 41 92 12 41 93 16 38 94 2 37 95 15 36 96 57 42 97 39 43 98 16 44 99 42 44 100 43 44 101 17 44 102 44 44 103 41 44 104 18 45 105 20 46 106 19 47 107 22 48 108 21 49 109 24 50 110 24 50 111 23 51 112 22 48 113 27 10 114 26 13 115 29 52 116 29 52 117 28 53 118 27 10 119 1 14 120 27 17 121 28 54 122 28 54 123 30 55 124 1 14 125 1 14 126 30 55 127 31 56 128 31 56 129 0 18 130 1 14 131 32 57 132 0 57 133 31 57 134 31 58 135 33 58 136 32 58 137 20 59 138 29 52 139 25 32 140 28 53 141 29 52 142 20 59 143 20 59 144 18 60 145 28 53 146 30 55 147 28 54 148 18 61 149 18 61 150 21 62 151 30 55 152 22 63 153 31 56 154 30 55 155 30 55 156 21 62 157 22 63 158 23 29 159 33 29 160 31 29 161 31 64 162 22 64 163 23 64 164 13 7 165 25 32 166 29 52 167 29 52 168 26 13 169 13 7 170 46 65 171 47 66 172 19 47 173 18 45 174 19 47 175 21 49 176 21 49 177 19 47 178 24 50 179 48 67 180 58 67 181 32 67 182 19 68 183 35 69 184 34 70 185 34 70 186 24 71 187 19 68 188 24 71 189 34 70 190 33 72 191 33 72 192 23 73 193 24 71 194 55 74 195 50 75 196 35 69 197 51 76 198 49 76 199 33 76 200 52 76 201 54 76 202 34 76 203 34 77 204 51 77 205 33 77 206 35 76 207 52 76 208 34 76 209 33 78 210 48 78 211 32 78 212 19 68 213 55 74 214 35 69 215 25 32 216 45 79 217 20 59 218 19 47 219 45 80 220 46 65 221 16 44 222 43 44 223 44 44 224 17 39 225 41 81 226 57 42 227 12 44 228 40 44 229 42 44 230 32 82 231 58 82 232 59 82 233 15 1 234 39 83 235 60 34 236 38 84 237 14 22 238 3 23 239 13 7 240 56 30 241 25 32 242 13 7 243 14 22 244 36 8 245 38 33 246 3 2 247 15 1 248 12 85 249 32 85 250 59 85 251 15 36 252 17 39 253 57 42 254 16 86 255 12 86 256 42 86 257 17 87 258 16 87 259 44 87 260 34 76 261 54 76 262 51 76 263 35 76 264 50 76 265 52 76 266 33 88 267 49 88 268 48 88 269 19 68 270 47 89 271 55 74 272 25 32 273 53 31 274 45 79 275 19 47 276 20 46 277 45 80 278 38 84 279 61 90 280 14 22 281 13 7 282 37 9 283 56 30 284 61 90 285 36 8 286 14 22 287</p>
        </triangles>
      </mesh>
    </geometry>
  </library_geometries>
  <library_visual_scenes>
    <visual_scene id="Scene" name="Scene">
      <node id="template_car_front" name="template_car_front" type="NODE">
        <matrix sid="transform">0.01 0 0 0 0 0.01 0 1.25 0 0 0.01 0 0 0 0 1</matrix>
        <instance_geometry url="#generic_car_01a_002-mesh" name="template_car_front">
          <bind_material>
            <technique_common>
              <instance_material symbol="generic_car_parametrized-material" target="#generic_car_parametrized-material">
                <bind_vertex_input semantic="generic_car_01a_002-mesh-map-0" input_semantic="TEXCOORD" input_set="0"/>
              </instance_material>
            </technique_common>
          </bind_material>
        </instance_geometry>
      </node>
    </visual_scene>
  </library_visual_scenes>
  <scene>
    <instance_visual_scene url="#Scene"/>
  </scene>
</COLLADA>